<?xml version="1.0" encoding="UTF-8" standalone="no"?>
<!-- Created with Inkscape (http://www.inkscape.org/) -->

<svg
   version="1.1"
   id="svg2"
   width="561.28003"
   height="793.59998"
   viewBox="0 0 561.28003 793.59998"
   sodipodi:docname="Tsugumi smol.jpg"
   inkscape:export-filename="..\edited\v2\Tsugumi smol.svg"
   inkscape:export-xdpi="96"
   inkscape:export-ydpi="96"
   xml:space="preserve"
   xmlns:inkscape="http://www.inkscape.org/namespaces/inkscape"
   xmlns:sodipodi="http://sodipodi.sourceforge.net/DTD/sodipodi-0.dtd"
   xmlns="http://www.w3.org/2000/svg"
   xmlns:svg="http://www.w3.org/2000/svg"><defs
     id="defs6" /><sodipodi:namedview
     id="namedview4"
     pagecolor="#505050"
     bordercolor="#eeeeee"
     borderopacity="1"
     inkscape:showpageshadow="0"
     inkscape:pageopacity="0"
     inkscape:pagecheckerboard="0"
     inkscape:deskcolor="#505050"
     showgrid="false" /><g
     inkscape:groupmode="layer"
     inkscape:label="Image"
     id="g8"><path
       style="fill:#000000;stroke-width:0.16"
       d="m 69.355454,670.15909 c -9.65638,-0.71397 -18.58202,-4.3956 -26.24911,-10.82717 -9.61447,-8.06514 -18.06621,-21.31663 -24.6628,-38.66882 -1.36471,-3.58985 -3.61879,-10.2552 -4.35647,-12.88214 -4.3923303,-15.64146 -1.82199,-31.86758 7.54926,-47.65718 4.38078,-7.38119 10.87772,-15.22332 18.02135,-21.75269 2.52155,-2.30474 7.15456,-6.13746 9.21777,-7.62554 0.66,-0.47601 1.72965,-1.25757 2.37699,-1.7368 0.64734,-0.47923 2.69934,-1.85537 4.56,-3.05811 20.7646,-13.42235 44.560016,-20.59149 67.383016,-20.30133 l 4,0.0509 0.9146,-3.19962 c 2.90287,-10.15531 4.72688,-21.09768 5.65414,-33.9196 0.35526,-4.9123 0.49253,-19.85349 0.23887,-25.99848 -0.1072,-2.59683 -0.24803,-4.77718 -0.31296,-4.84521 -0.0649,-0.068 -1.42796,0.17873 -3.02894,0.5484 -2.76811,0.63913 -2.93626,0.65985 -3.4283,0.42252 -1.04493,-0.504 -11.25279,-8.89398 -17.87741,-14.69371 -21.676346,-18.97718 -33.501386,-33.77536 -36.519356,-45.70131 -0.48164,-1.90326 -0.51938,-2.24381 -0.51999,-4.69221 -4.8e-4,-1.66926 0.0784,-2.96358 0.21435,-3.52 1.20138,-4.91704 4.58937,-9.66475 9.54499,-13.37574 8.89987,-6.66459 23.380676,-11.05374 43.756826,-13.26273 1.27425,-0.13815 2.37322,-0.30756 2.44214,-0.37648 0.0689,-0.0689 0.26654,-2.02876 0.43915,-4.35517 1.14937,-15.49087 3.81839,-28.49418 8.43491,-41.09443 3.9368,-10.74504 11.44916,-25.32695 18.86171,-36.61159 11.88084,-18.08702 26.39847,-32.30875 41.82527,-40.97276 8.83896,-4.96416 18.49778,-8.56813 28.46312,-10.62039 0.56656,-0.11669 1.07947,-0.31781 1.14941,-0.4507 0.26514,-0.50389 1.80472,-3.97975 2.33867,-5.28 0.30719,-0.748 0.65146,-1.468 0.76507,-1.6 0.11362,-0.132 0.80106,-1.248 1.52767,-2.48 0.72662,-1.232 1.62577,-2.672 1.99813,-3.2 0.37235,-0.528 1.02123,-1.464 1.44195,-2.08 1.9569,-2.86523 6.73517,-8.33254 10.42792,-11.93163 5.84126,-5.69312 11.70107,-10.4595 20.04322,-16.30321 3.84219,-2.69146 4.33764,-2.94438 5.76484,-2.94288 0.84573,9.6e-4 1.21933,0.0932 2,0.49388 0.86725,0.44517 2.64001,2.00069 2.64001,2.3165 0,0.22627 0.43438,0.13514 0.66041,-0.13855 0.12077,-0.14624 1.29959,-1.21292 2.61959,-2.37041 15.87878,-13.92383 35.3195,-24.95026 58.88,-33.39569 18.26389,-6.54682 45.58301,-12.98339 62.64,-14.75839 10.81469,-1.12541 20.40162,-1.06466 28.14591,0.17836 l 1.6659,0.26739 3.2941,2.14909 c 19.72976,12.87178 35.02392,26.47713 45.63461,40.59554 4.87291,6.48381 9.37526,14.41702 12.04016,21.21494 1.71681,4.37946 8.91494,25.64645 10.58213,31.26506 0.23499,0.792 0.52824,1.51973 0.65161,1.61718 0.1234,0.0975 1.03463,0.22623 2.02498,0.28615 5.66138,0.34252 12.88886,1.68796 17.56061,3.269 11.54685,3.90773 18.56416,10.78229 21.02685,20.59912 0.82166,3.27532 0.95309,4.6016 0.94227,9.50855 -0.0147,6.70917 -0.73912,12.33697 -2.27944,17.71069 -0.8975,3.13112 -1.44306,4.56614 -2.72555,7.16931 -1.69027,3.43081 -3.49236,5.95214 -6.02594,8.43104 -1.53974,1.50651 -2.13376,1.98547 -3.97819,3.20761 -3.65842,2.42413 -8.26077,4.01362 -13.30611,4.59544 -3.29104,0.37952 -8.99519,0.17035 -13.171,-0.48297 -5.07848,-0.79456 -11.97101,-2.76332 -15.52289,-4.43391 -6.66536,-3.13497 -11.72276,-8.00888 -14.94047,-14.39843 -3.50944,-6.9688 -4.69315,-16.06091 -3.28945,-25.26624 1.81262,-11.88699 7.77908,-22.17377 14.51054,-25.01771 0.55035,-0.23251 1.04054,-0.46267 1.08933,-0.51146 0.0488,-0.0488 -1.91351,-1.11499 -4.36063,-2.36934 -2.44713,-1.25437 -4.88132,-2.51606 -5.40932,-2.80378 -12.61016,-6.87132 -20.77402,-10.73313 -29.52001,-13.96406 -3.06428,-1.132 -2.84836,-1.09718 -2.94104,-0.47419 -0.0432,0.2904 -0.19043,1.91774 -0.32718,3.61633 l -0.24866,3.08834 2.52826,3.15166 c 9.54962,11.90436 14.88661,20.19111 16.76541,26.03167 0.44635,1.38758 0.46283,1.55065 0.45285,4.48 -0.0157,4.61763 -0.48748,6.23336 -2.34071,8.01709 -1.19779,1.15286 -2.41008,1.9562 -6.60893,4.37955 -2.024,1.16814 -4.32809,2.53081 -5.1202,3.02814 -1.67709,1.05298 -4.82077,3.348 -5.27784,3.85306 -0.31375,0.34669 -0.31375,0.34925 0.002,0.52349 0.6435,0.35582 2.31444,2.09881 3.01956,3.14979 2.8676,4.27406 5.69306,12.56022 8.15943,23.92888 2.61009,12.03123 3.38214,21.30742 2.25718,27.12 -0.71643,3.70166 -1.67217,5.60851 -3.95222,7.88521 -1.32285,1.32088 -1.40743,1.44568 -1.40962,2.08 -0.002,0.37112 -0.10929,3.37479 -0.24005,6.67479 -0.36648,9.25068 -0.57435,22.41577 -0.47113,29.83999 0.11574,8.32736 0.51003,19.67708 0.7059,20.32 0.0804,0.264 0.26239,1.272 0.40435,2.24 1.44952,9.88322 4.30556,18.41292 8.00816,23.91682 1.55069,2.30506 1.60007,2.91627 0.28024,3.46797 -0.94424,0.3947 -1.26051,0.28093 -3.40513,-1.22479 -1.12807,-0.792 -2.09354,-1.44 -2.14551,-1.44 -0.052,0 -0.0945,0.13234 -0.0945,0.2941 0,0.44021 1.21912,5.81589 1.69315,7.4659 0.64278,2.23738 0.65674,2.53034 0.13987,2.9369 -0.39633,0.31176 -0.63067,0.3431 -2.56515,0.3431 -1.17094,0 -2.16758,0.0625 -2.21475,0.13877 -0.23109,0.37391 -3.80755,21.586 -5.43939,32.26123 -2.29591,15.01928 -4.53783,32.33338 -5.44876,42.08 -0.1398,1.496 -0.32393,3.368 -0.40916,4.16 -0.24916,2.31539 -0.92733,11.02803 -1.18936,15.28 -0.84271,13.67435 -0.78336,27.22134 0.15992,36.50176 0.40089,3.94422 1.21611,8.90211 1.9342,11.76325 0.0706,0.28142 0.68188,0.8368 1.96103,1.78181 7.0615,5.21684 12.55689,10.33019 16.02565,14.9115 0.77368,1.02184 1.11275,1.60878 1.11275,1.92622 0,0.25112 0.0727,0.50148 0.16147,0.55637 0.0888,0.0549 1.21459,-0.40886 2.50176,-1.03056 2.33423,-1.12742 3.08031,-1.32168 3.73355,-0.97208 0.2489,0.13322 4.39124,5.42527 11.52338,14.72173 0.84392,1.1 3.50717,4.556 5.91834,7.68 2.41118,3.124 5.18595,6.724 6.16614,8 0.98019,1.276 2.69669,3.50561 3.81443,4.95472 1.11775,1.44909 2.07605,2.8092 2.12959,3.02246 0.22856,0.91066 -0.0357,1.14592 -2.9106,2.59122 -5.27099,2.64989 -14.13472,5.89254 -21.99806,8.04765 -3.95341,1.0835 -4.01539,1.09921 -8.96,2.27 -12.69562,3.00608 -34.4617,6.42857 -51.84,8.15131 -1.364,0.13521 -3.128,0.31672 -3.92,0.40333 -2.86671,0.31347 -6.5433,0.64688 -14.11434,1.27995 -4.2429,0.35478 -7.81207,0.68256 -7.93151,0.7284 -0.31651,0.12145 -1.7676,3.1332 -2.2566,4.68361 -0.88376,2.80197 -1.12436,5.98021 -0.70757,9.34696 0.18275,1.47618 0.17585,1.58317 -0.12879,2 -0.65035,0.88988 -1.25307,1.03944 -4.19462,1.04092 -2.71614,0.002 -3.92734,-0.13365 -6.16374,-0.68704 -5.98485,-1.48096 -11.58292,-5.92384 -15.71663,-12.47349 -0.58318,-0.924 -1.18233,-1.788 -1.33147,-1.92 -0.2411,-0.21339 -0.97982,-0.21027 -6.66295,0.0281 -11.89241,0.4988 -37.87261,1.25103 -43.23179,1.25173 h -1.32 v 0.6 c -0.002,1.06031 -0.46395,3.49775 -0.8936,4.70611 -2.3775,6.68679 -9.67982,12.88308 -21.87837,18.56461 -1.51107,0.70379 -3.90113,1.73301 -5.31126,2.28714 l -2.56388,1.00752 -9.19612,0.10366 c -5.05788,0.057 -22.37213,0.20832 -38.47613,0.33623 -29.88234,0.23736 -53.2498,0.42817 -87.68001,0.716 -10.648,0.089 -27.856,0.23182 -38.239996,0.31736 -10.384,0.0855 -20.86,0.18454 -23.28,0.22004 -2.42,0.0355 -4.796,0.0353 -5.28,0 z m 15.52,-2.54172 c 4.092,-0.0467 16.404006,-0.15566 27.360006,-0.24208 33.2038,-0.26192 57.62112,-0.46022 68.24,-0.55424 5.544,-0.0491 18.576,-0.15801 28.96,-0.24209 10.384,-0.0841 28.456,-0.23266 40.16,-0.33019 l 21.28,-0.17733 2.16,-0.88127 c 19.34953,-7.89432 28.29663,-16.7452 26.25156,-25.96921 -0.57687,-2.60186 -1.72029,-4.93549 -3.74343,-7.64 l -1.10712,-1.48 h -1.01057 c -3.53595,0 -9.10411,-2.67762 -15.73928,-7.56869 -0.84213,-0.62077 -3.06224,-2.37365 -4.93356,-3.8953 l -3.4024,-2.7666 -1.4776,1.03448 c -5.61398,3.93046 -10.4064,6.04324 -15.7176,6.92924 l -1.76,0.29362 -0.10116,2.46662 c -0.0818,1.99485 -0.19266,2.81855 -0.57943,4.30663 -0.96168,3.70001 -1.51416,4.50789 -2.69707,3.94381 -0.79048,-0.37696 -0.83011,-0.82508 -0.24059,-2.72058 0.87414,-2.81067 1.33382,-5.97056 1.07177,-7.36747 l -0.10801,-0.57576 -0.99275,-0.002 c -2.20127,-0.002 -6.0698,-0.81603 -8.77365,-1.84599 -2.85778,-1.08859 -6.13383,-2.93428 -8.4018,-4.73348 -0.54048,-0.42877 -1.01748,-0.77959 -1.06,-0.77959 -0.11588,0 -3.79809,4.11026 -5.80516,6.48 -6.97128,8.23101 -11.18815,14.69589 -12.71322,19.49071 -0.53979,1.69712 -0.80152,2.02929 -1.59893,2.02929 -0.59237,0 -0.96837,-0.26944 -1.17008,-0.83849 -0.13072,-0.36876 0.65656,-2.87048 1.48923,-4.73232 2.33887,-5.22967 8.03316,-13.14703 15.22605,-21.17039 0.60215,-0.67165 1.0948,-1.26565 1.0948,-1.32 0,-0.17521 -1.37814,-0.10525 -2.62467,0.13325 -6.47955,1.23974 -16.53147,6.10635 -27.73639,13.42851 -2.80478,1.83287 -3.08436,1.96229 -3.69374,1.70987 -0.65394,-0.27086 -0.96597,-1.02539 -0.65371,-1.58073 0.41923,-0.74555 9.39888,-6.36056 14.97038,-9.36104 7.62895,-4.10848 14.24245,-6.54965 18.76597,-6.9269 0.71069,-0.0593 1.29216,-0.17249 1.29216,-0.25161 0,-0.0791 -0.31144,-0.48277 -0.69208,-0.897 -2.02083,-2.19915 -3.92262,-4.93332 -5.82995,-8.38158 -1.73931,-3.14451 -4.99595,-6.8776 -10.59797,-12.14845 -6.28805,-5.91632 -16.30072,-14.22254 -26.88,-22.29884 -5.74928,-4.38906 -5.65576,-4.29711 -5.28371,-5.19532 0.18614,-0.44937 0.74272,-0.80896 1.25214,-0.80896 0.48946,0 14.40135,10.83423 21.47157,16.72149 8.28026,6.89487 16.14547,14.3552 19.35536,18.35902 0.82919,1.03429 1.56026,1.82629 1.62461,1.76 0.27374,-0.28196 0.49706,-4.81569 0.41331,-8.39145 -0.1664,-7.10581 -1.36291,-12.72555 -4.21761,-19.80906 -5.35717,-13.29305 -16.70732,-27.04755 -33.01567,-40.00958 -5.59678,-4.44838 -14.28688,-10.57131 -19.35952,-13.64048 -9.44693,-5.71579 -20.2166,-9.28425 -31.92048,-10.57664 -7.08926,-0.78281 -13.9499,-0.73534 -21.77938,0.15071 -34.744756,3.93201 -69.418836,25.03316 -85.998406,52.33494 -2.38369,3.92525 -5.02223,9.56693 -6.46394,13.82105 -1.08683,3.20698 -2.19979,8.09032 -2.66197,11.68 -0.33351,2.59029 -0.28652,10.58842 0.0766,13.04 0.64198,4.33423 1.50755,7.63866 3.68814,14.08 7.02925,20.76407 16.26583,35.92424 27.18241,44.61503 6.58547,5.24273 14.34436,8.4772 22.11653,9.21971 0.968,0.0925 2.048,0.19629 2.4,0.23067 0.352,0.0344 2.116,0.034 3.92,0 1.804,-0.0348 6.628,-0.10152 10.72,-0.14824 z M 316.23547,638.41211 c 16.21141,-0.37494 20.32949,-0.49746 29.44,-0.87579 66.91223,-2.77875 113.68552,-9.42386 139.55511,-19.82666 4.4428,-1.78656 7.1649,-3.042 7.1649,-3.30446 0,-0.1052 -0.24058,-0.48671 -0.53463,-0.84776 -0.29403,-0.36107 -1.86365,-2.38448 -3.48803,-4.49648 -1.62438,-2.112 -4.31571,-5.604 -5.98072,-7.76 -1.66502,-2.156 -3.82408,-4.964 -4.79789,-6.24 -0.97382,-1.276 -3.24645,-4.228 -5.05027,-6.56 -1.80382,-2.332 -4.23525,-5.482 -5.40317,-7 -1.1679,-1.518 -2.18739,-2.76 -2.26552,-2.76 -0.0781,0 -0.70403,0.26029 -1.39091,0.57843 -17.78589,8.23784 -37.88738,12.94802 -62.68887,14.68918 -4.49841,0.31581 -13.03478,0.62959 -14.72077,0.54109 -1.87646,-0.0985 -2.0855,-0.30277 -2.23054,-2.17968 -0.95627,-12.37491 -4.39146,-24.80883 -10.68328,-38.66902 -2.73616,-6.02746 -6.72565,-13.64915 -9.46378,-18.08 -0.59821,-0.968 -1.86213,-3.02 -2.80873,-4.56 -0.94661,-1.54 -2.13696,-3.448 -2.64522,-4.24 -0.50827,-0.792 -1.11392,-1.75005 -1.3459,-2.12899 l -0.42178,-0.68899 -2,0.0866 c -8.32967,0.36065 -23.11573,0.25073 -30.55397,-0.22714 -1.18467,-0.0761 -2.20675,-0.10574 -2.2713,-0.0658 -0.0645,0.0399 0.0672,0.55668 0.29264,1.14844 1.16944,3.06912 3.59642,10.56983 3.97208,12.27594 0.11626,0.528 0.53895,2.22 0.93932,3.76 2.53275,9.7421 4.0754,19.68922 4.73944,30.56 0.21129,3.45902 0.20736,14.4663 -0.006,17.96618 -0.29447,4.82113 -0.59175,7.79278 -0.80533,8.05012 -0.11175,0.13464 -0.4073,0.35035 -0.65679,0.47938 -0.46027,0.23801 -3.80198,0.60449 -7.08968,0.77752 -3.61988,0.19051 -4.71992,0.27953 -4.71692,0.38173 0.002,0.0578 0.25809,0.39307 0.5698,0.74507 1.77335,2.00261 4.70076,6.31739 5.88564,8.67499 1.6651,3.31315 2.41313,6.67274 2.01532,9.05125 -0.22947,1.37193 -0.67988,2.32091 -1.59299,3.35629 -0.82421,0.93456 -1.69424,1.45518 -2.98393,1.7856 -1.99479,0.51105 -3.74202,0.29153 -7.57692,-0.95199 -3.08105,-0.99907 -4.49027,-1.27661 -5.73779,-1.12998 -1.68525,0.19806 -2.40398,0.67441 -5.20579,3.45022 -2.73807,2.71264 -4.02944,3.81851 -5.45415,4.67067 -0.48524,0.29024 -0.88227,0.59208 -0.88227,0.67076 0,0.0787 0.3513,0.61985 0.78066,1.20262 0.42937,0.58277 1.14616,1.70757 1.59286,2.49957 0.80507,1.42737 1.94648,4.15088 1.94648,4.64448 0,0.1411 0.0764,0.39933 0.16979,0.57382 0.16424,0.3069 0.29368,0.31415 3.96,0.22184 2.08461,-0.0525 6.77821,-0.16453 10.43021,-0.24899 z m -20.21852,-11.27466 c 1.47351,-0.72091 3.2246,-2.15008 6.00194,-4.89852 2.83403,-2.80455 3.71379,-3.4269 5.50323,-3.89298 1.98663,-0.51746 3.81211,-0.26317 8.11744,1.13077 3.93178,1.27297 5.76949,1.32606 7.30861,0.21113 0.91359,-0.66179 1.30981,-1.54001 1.4085,-3.12187 0.28725,-4.6043 -3.69261,-11.42165 -11.3065,-19.3676 l -2.0147,-2.10256 -2.56,-0.80929 c -5.86559,-1.85431 -10.19968,-3.11826 -13.52,-3.94287 -0.924,-0.22948 -1.90688,-0.52196 -2.18418,-0.64996 -0.27731,-0.128 -0.65379,-0.23274 -0.83664,-0.23274 -0.18285,0 -0.85597,-0.17562 -1.49581,-0.39026 -0.63985,-0.21464 -1.74,-0.46243 -2.44477,-0.55067 -0.70475,-0.0882 -1.62475,-0.23736 -2.04443,-0.33141 -0.95925,-0.21497 -7.87819,-1.19352 -10.43417,-1.47569 -2.60604,-0.28771 -11.32106,-0.28549 -13.36001,0.003 -3.918,0.55512 -8.65339,1.89283 -8.15974,2.30507 0.0439,0.0366 1.48374,0.41005 3.19974,0.82981 12.73018,3.11406 25.64885,7.2128 33.04001,10.48272 4.79944,2.12331 9.72795,5.02486 9.93475,5.84888 0.15872,0.6324 -0.06,1.17195 -0.58507,1.44348 -0.62496,0.32319 -0.88404,0.23336 -2.54968,-0.88398 -4.86504,-3.26355 -13.74399,-6.87128 -25.76001,-10.4669 -6.30828,-1.88766 -18.95246,-5.19531 -19.14068,-5.00708 -0.25613,0.25611 1.7539,4.78126 3.03273,6.82755 1.10163,1.76273 2.42266,3.28243 5.54795,6.38233 5.22448,5.18202 13.67661,12.5485 18.32365,15.97004 3.93639,2.89832 8.01848,5.32524 10.58039,6.29038 2.86505,1.07934 4.76451,1.19776 6.39745,0.39883 z m -48.90149,-5.67816 c 0,-0.2678 -1.22052,-2.65352 -1.77673,-3.47291 -0.49008,-0.72197 -2.07384,-2.6652 -4.07949,-5.00542 -2.3515,-2.74379 -3.39758,-6.62701 -2.9652,-11.0073 0.11037,-1.11798 0.37466,-2.85638 0.58733,-3.86309 0.21265,-1.00672 0.35685,-1.86019 0.32043,-1.89662 -0.0364,-0.0364 -1.06075,0.26131 -2.27629,0.66162 -4.17685,1.37558 -8.02765,1.98768 -11.37818,1.80859 -1.02953,-0.055 -2.09977,-0.14403 -2.37833,-0.19779 l -0.50647,-0.0978 -0.10174,0.93617 c -0.0559,0.5149 -0.2451,1.95981 -0.42035,3.21091 -0.29655,2.11708 -0.30063,2.30959 -0.0588,2.77732 0.72635,1.4046 2.76003,4.24177 4.00544,5.58795 0.36635,0.396 0.89644,0.98702 1.17798,1.31339 0.83222,0.9647 4.14253,3.71354 5.69264,4.72707 3.65922,2.39256 6.85133,3.69639 10.87771,4.44298 1.37292,0.25457 3.28,0.29813 3.28,0.0749 z m 5.6,-0.2634 c 4.26077,-0.84338 8.78612,-2.87541 12.96,-5.81946 0.572,-0.40347 1.166,-0.78123 1.32,-0.8395 0.154,-0.0583 0.28,-0.20885 0.28,-0.33464 0,-0.12581 -1.314,-1.42183 -2.92,-2.88005 -1.606,-1.45824 -4.01452,-3.69789 -5.35227,-4.97701 l -2.43229,-2.3257 -0.84771,0.34021 c -2.29454,0.92082 -5.28982,1.35495 -7.40729,1.07359 -2.46432,-0.32744 -4.16245,-1.19058 -6.19634,-3.14952 -1.01563,-0.97821 -1.2549,-1.14087 -1.3425,-0.91258 -0.0586,0.15278 -0.0643,1.36947 -0.0126,2.70376 0.10143,2.61835 0.32871,3.73982 1.07538,5.30597 0.45397,0.95222 0.75208,1.34192 3.3332,4.35737 0.73565,0.85944 1.7496,2.17463 2.25323,2.92263 0.82173,1.22043 2.0369,3.62769 2.32859,4.61296 0.10293,0.34766 0.1664,0.36573 0.93552,0.26624 0.45381,-0.0587 1.36511,-0.21363 2.02511,-0.34427 z m 0.0456,-18.62658 c 2.07329,-0.52936 2.02782,-0.36002 0.65185,-2.42755 -1.3899,-2.08848 -2.71297,-4.756 -3.52529,-7.10759 -0.54181,-1.56844 -0.71338,-1.84726 -0.92551,-1.50403 -0.0507,0.0821 -1.56392,0.89199 -3.36267,1.79986 l -3.27046,1.65065 -0.33991,1.25972 -0.3399,1.25969 0.61217,0.90045 c 1.62391,2.38862 3.86496,4.08192 5.81408,4.39302 1.22069,0.19484 3.46496,0.0874 4.68564,-0.22422 z m -22.68564,-6.62293 c 5.47251,-0.78225 10.9528,-2.94713 19.04,-7.52139 4.24357,-2.40024 7.19024,-3.37214 12.72,-4.19549 2.56869,-0.38244 10.92101,-0.37985 14.24001,0.004 10.3251,1.19546 20.39718,3.52205 33.06747,7.63839 1.3351,0.43376 2.49933,0.78864 2.58713,0.78864 0.51433,0 1.30533,-4.17336 1.31362,-6.93055 0.0149,-4.9346 -1.30525,-9.4467 -4.31053,-14.73352 -4.81696,-8.47387 -11.82201,-12.35364 -25.21769,-13.96689 -3.46338,-0.41711 -21.54044,-0.41208 -27.04001,0.008 -15.42984,1.1772 -27.51785,4.8935 -38.68104,11.89197 l -0.60102,0.37681 0.25886,0.59733 c 3.56117,8.21749 5.3392,16.20171 5.3424,23.99009 l 0.002,1.95276 0.6,0.0979 c 0.33,0.0538 0.708,0.12075 0.84,0.14869 0.69277,0.14659 4.44823,0.0523 5.84,-0.14667 z m 98.6897,-3.92835 c 0.0388,-0.0424 0.12063,-0.87281 0.18186,-1.84539 l 0.11131,-1.76832 -6.6664,-0.28338 c -3.66651,-0.15587 -6.69195,-0.25782 -6.72318,-0.22659 -0.0312,0.0312 -0.19941,0.8465 -0.37371,1.8117 -0.17429,0.9652 -0.36511,1.87936 -0.42404,2.03147 -0.0989,0.25529 0.13714,0.28086 3.06866,0.33245 4.25822,0.0749 10.73789,0.0438 10.8255,-0.0519 z m 73.87031,-5.44625 c 6.04863,-0.32544 10.04683,-0.62804 13.76,-1.04138 15.19685,-1.69173 27.2014,-4.68045 35.70412,-8.88912 1.37728,-0.68171 2.55403,-1.32022 2.61502,-1.41891 0.14422,-0.23336 -2.33256,-2.94615 -2.74693,-3.00867 -0.1852,-0.0279 -0.7136,0.27276 -1.29259,0.7356 -2.89085,2.31086 -9.39221,4.49734 -17.87962,6.01313 -5.87387,1.04903 -17.45976,2.47941 -24.08,2.97288 -1.188,0.0886 -4.068,0.30411 -6.4,0.47901 -2.332,0.1749 -7.07963,0.46557 -10.5503,0.64594 -3.47066,0.18038 -6.32602,0.34433 -6.34524,0.36433 -0.0192,0.02 0.0836,0.85599 0.22845,1.85773 l 0.26341,1.82138 5.44184,-0.10885 c 2.99301,-0.0599 8.06984,-0.25024 11.28184,-0.42307 z m -144.6237,-32.25492 0.7363,-0.0908 0.11207,-2.90253 c 0.18732,-4.85237 0.77672,-12.21131 1.29995,-16.23072 0.12945,-0.99451 0.23537,-1.87 0.23537,-1.94555 0,-0.0755 -0.522,-0.21928 -1.16,-0.31941 -0.638,-0.10015 -1.52,-0.25477 -1.96,-0.34363 -0.44,-0.0888 -0.95265,-0.19245 -1.13921,-0.23023 -0.3909,-0.0791 -0.32346,-0.39779 -0.93259,4.40701 -0.64927,5.12139 -1.36613,13.95989 -1.36764,16.86184 v 1.10182 l 1.72,-0.10846 c 0.946,-0.0596 2.05135,-0.14934 2.45631,-0.1993 z m 160.7837,-8.99406 c 0,-0.076 -0.0742,-0.52598 -0.16491,-1 -0.24526,-1.2817 -0.7832,-5.92002 -1.0556,-9.10184 -0.33315,-3.89146 -0.46518,-15.54842 -0.23363,-20.62778 1.03214,-22.6419 5.52296,-49.76518 13.54918,-81.83322 0.48196,-1.92557 0.84335,-3.53396 0.80311,-3.57418 -0.0402,-0.0402 -0.96079,0.67168 -2.04565,1.58205 -3.32426,2.78953 -5.87376,4.59008 -10.1993,7.203 -1.82595,1.10301 -2.49841,1.59405 -2.58848,1.89013 -0.0669,0.22 -0.91397,2.848 -1.88232,5.84 -0.96835,2.992 -2.26526,7.06 -2.88201,9.04 -5.26061,16.88832 -8.48791,33.39794 -9.78967,50.08 -0.42025,5.3857 -0.59869,17.41533 -0.32989,22.24 0.19216,3.44878 0.61564,8.79882 0.74285,9.38499 0.0572,0.26347 1.19967,0.95083 4.8356,2.90931 2.6184,1.41039 6.16472,3.35813 7.88072,4.32834 1.716,0.97021 3.174,1.76702 3.24,1.77069 0.066,0.004 0.12,-0.0555 0.12,-0.13149 z M 308.73716,524.37981 c 1.56589,-1.49375 4.57268,-6.90763 7.17493,-12.91885 2.16384,-4.99848 2.15307,-4.97766 2.66458,-5.15165 0.72184,-0.24553 1.32296,0.0214 2.6188,1.16298 3.35865,2.95877 5.43582,4.0585 5.69737,3.0164 0.3828,-1.52517 -0.43336,-6.03698 -2.01852,-11.1587 -0.43938,-1.41959 -0.79885,-2.76485 -0.79885,-2.98946 0,-0.60614 0.39387,-1.06021 1.18013,-1.36048 l 0.70067,-0.2676 1.93622,0.65426 c 2.00749,0.67833 3.68274,0.88286 3.72069,0.45425 0.13406,-1.51389 -1.44205,-4.58613 -4.76984,-9.29758 -1.96826,-2.78666 -2.64277,-3.66523 -3.78658,-4.93208 -0.45171,-0.50031 -1.07329,-1.24731 -1.38129,-1.66002 -1.15883,-1.5528 -1.13722,-1.5363 -1.76,-1.34277 -0.82099,0.25512 -3.60344,0.22464 -4.7413,-0.0519 -1.03203,-0.25086 -3.24853,-1.31835 -3.46666,-1.6696 -0.0704,-0.11331 -0.19918,-0.20603 -0.28624,-0.20603 -0.0871,0 -0.43963,-0.27853 -0.78347,-0.61896 -0.61873,-0.61257 -0.62897,-0.61595 -0.99376,-0.32774 -1.03859,0.82059 -4.70347,3.48737 -5.35982,3.90011 -1.0433,0.65606 -6.01776,4.77312 -8.04875,6.66144 -0.924,0.85909 -1.932,1.89574 -2.24,2.30366 -0.308,0.40792 -0.74767,0.94504 -0.97701,1.19359 -0.53349,0.57813 -1.16039,1.86757 -1.04904,2.15773 0.0471,0.12278 0.50425,0.31049 1.01585,0.41712 1.06192,0.22131 2.86829,0.13219 5.60668,-0.27661 1.93537,-0.28891 2.20273,-0.24584 3.04352,0.49027 0.70582,0.61794 0.5152,1.19046 -1.14199,3.42979 -1.92997,2.60791 -3.38321,4.91655 -4.04737,6.4296 -0.51941,1.18331 -0.68384,2.28643 -0.36975,2.48056 0.30477,0.18835 2.1853,0.0989 3.29106,-0.15653 0.60942,-0.14078 1.89841,-0.511 2.86441,-0.82272 1.99508,-0.64376 2.79856,-0.63926 3.50952,0.0196 l 0.4164,0.3859 -0.097,5.32658 c -0.13523,7.42321 0.1253,12.28057 0.73196,13.64657 0.0782,0.176 0.28672,0.662 0.46347,1.08 0.17673,0.418 0.40273,0.76 0.50222,0.76 0.0995,0 0.53995,-0.34251 0.9788,-0.76115 z m 12.13831,-44.52829 c 0,-0.0932 0.072,-0.12494 0.16,-0.0706 0.088,0.0544 0.16,0.13064 0.16,0.16944 0,0.0388 -0.072,0.0706 -0.16,0.0706 -0.088,0 -0.16,-0.0763 -0.16,-0.16944 z m -1.44,-0.63056 c -0.20511,-0.13254 -0.19928,-0.15545 0.04,-0.15755 0.154,-0.002 0.28,0.0695 0.28,0.15755 0,0.19514 -0.0181,0.19514 -0.32,0 z m -13.34972,-0.2731 c -0.0868,-0.22803 -0.0684,-0.2464 0.0896,-0.0896 0.10935,0.10854 0.15851,0.23765 0.10925,0.28691 -0.0493,0.0492 -0.13874,-0.0396 -0.19882,-0.19734 z m 48.70972,42.43948 c 20.96718,-1.28401 34.63343,-5.46305 41.69498,-12.75006 1.33027,-1.37273 2.21992,-2.56185 2.12101,-2.83497 -0.0308,-0.085 -0.99199,-1.11501 -2.13599,-2.28884 -2.47845,-2.54307 -6.14942,-6.56824 -8.8,-9.6491 -1.056,-1.22742 -2.21402,-2.55832 -2.57336,-2.95754 -0.35934,-0.39923 -2.07464,-2.43587 -3.81178,-4.52587 -1.73712,-2.09 -3.18809,-3.8 -3.22438,-3.8 -0.0363,0 -0.90074,0.39672 -1.92096,0.88162 -1.02024,0.48488 -2.83925,1.3035 -4.04226,1.81917 -2.02675,0.86876 -2.9599,1.23017 -7.30726,2.83011 -0.88,0.32387 -2.01576,0.79782 -2.52392,1.05326 -0.50816,0.25543 -1.28562,0.55698 -1.72768,0.6701 -0.44208,0.11313 -0.79134,0.27321 -0.77618,0.35573 0.0152,0.0825 0.62324,0.79801 1.35124,1.59001 2.81216,3.05936 3.93235,4.5764 4.56568,6.18317 0.68764,1.74458 0.21404,3.15642 -1.39231,4.15069 -0.87797,0.54342 -3.932,0.65515 -6.17417,0.22589 l -0.59733,-0.11436 0.32446,0.9373 c 0.63354,1.83022 1.89682,6.39875 2.16162,7.81731 0.38211,2.04706 0.35288,3.88222 -0.076,4.76806 -0.56848,1.17432 -1.00287,1.47194 -2.14836,1.47194 -1.23603,0 -2.24784,-0.45408 -4.03784,-1.8121 -1.67924,-1.27398 -4.92582,-4.47151 -7.50125,-7.3879 -1.12681,-1.276 -2.13972,-2.41757 -2.25091,-2.53681 -0.16697,-0.17908 -0.32046,-0.0538 -0.88185,0.72 -1.62701,2.24248 -2.81946,3.1012 -4.47047,3.21932 -0.91097,0.0652 -1.22313,0.0184 -1.82638,-0.2736 -0.90847,-0.43977 -2.10314,-1.73116 -2.78496,-3.01038 -0.62327,-1.16938 -1.63424,-3.97613 -2.03098,-5.63853 -0.41419,-1.73561 -0.37747,-1.69677 -1.7152,-1.81483 -0.642,-0.0567 -1.52113,-0.21162 -1.95365,-0.34437 -0.43251,-0.13275 -0.82224,-0.2055 -0.86608,-0.16166 -0.0438,0.0438 0.2188,1.14197 0.58365,2.44029 0.36485,1.29832 0.80135,3.00857 0.96999,3.80057 0.38803,1.82232 0.69942,4.87295 0.57646,5.64746 -0.31954,2.01281 -0.7371,2.79139 -1.74181,3.24768 -1.70741,0.7754 -4.03897,-0.11351 -7.09257,-2.70407 -0.57506,-0.48785 -1.0862,-0.80963 -1.16148,-0.73118 -0.0739,0.0771 -0.42046,0.82411 -0.77004,1.66011 -0.92096,2.20243 -2.16829,4.91859 -3.24629,7.06906 l -0.94106,1.87726 0.51781,0.0766 c 1.8441,0.27262 7.7669,0.6716 13.15781,0.88632 5.67598,0.22608 22.41075,0.18638 26.48,-0.0628 z m -51.37066,-3.84638 c -0.0381,-1.056 -0.057,-3.99 -0.0419,-6.52 0.015,-2.53 -0.0209,-4.59909 -0.08,-4.59795 -0.0591,0.002 -0.65394,0.17659 -1.32189,0.38995 -3.22853,1.03122 -5.85693,1.16195 -7.22635,0.35943 -1.75338,-1.02756 -2.0056,-3.03159 -0.74344,-5.90728 0.54099,-1.23263 2.23674,-4.04917 3.23211,-5.36839 0.35035,-0.46433 0.60272,-0.87851 0.56083,-0.9204 -0.0419,-0.0419 -0.68196,-0.0175 -1.42241,0.0542 -0.74045,0.0717 -2.0352,0.0831 -2.87722,0.0254 -2.70459,-0.18541 -4.03213,-1.12052 -4.25433,-2.99669 l -0.0962,-0.81219 -1.29926,-0.26055 c -0.71459,-0.14331 -1.98326,-0.39787 -2.81926,-0.56571 -1.51517,-0.30418 -4.18343,-0.89398 -9.04,-1.99824 -9.6657,-2.19773 -26.48057,-7.27363 -37.4078,-11.2923 -0.80713,-0.29684 -1.46096,-0.45623 -1.53237,-0.37356 -0.0685,0.0793 -0.46757,1.98021 -0.8868,4.22421 -1.35653,7.26093 -3.52453,15.74503 -5.7152,22.36533 -0.53238,1.60893 -0.93416,3.01293 -0.89281,3.12 0.0829,0.2147 2.39019,0.99584 6.19497,2.09731 14.39853,4.16834 34.76365,7.68022 58.96001,10.16744 6.27296,0.64482 7.67096,0.76872 8.38934,0.74355 l 0.38934,-0.0136 -0.0693,-1.92 z m 54.25066,-4.08885 c 0,-1.53672 -0.69824,-4.39945 -2.07307,-8.4995 -0.70781,-2.11085 -1.28693,-4.07283 -1.28693,-4.35997 0,-0.30601 0.12331,-0.63368 0.29795,-0.79173 0.57904,-0.52403 1.21555,-0.57747 3.108,-0.26099 3.43383,0.57424 4.79192,0.5996 5.47219,0.10219 0.26709,-0.19531 0.26471,-0.24334 -0.047,-0.94811 -0.69497,-1.57109 -2.52702,-3.80933 -5.18736,-6.33744 -1.47683,-1.40342 -2.36374,-2.63517 -2.36374,-3.28275 0,-0.474 0.37067,-1.03448 0.78075,-1.18054 0.23059,-0.0822 1.1557,-0.2654 2.05581,-0.40724 1.64402,-0.25907 2.76344,-0.61009 2.76344,-0.86652 0,-0.17205 -0.88107,-1.0813 -1.52,-1.56863 -1.70157,-1.29781 -8.64838,-4.83872 -10.96,-5.58651 -0.484,-0.15658 -1.25339,-0.45539 -1.70975,-0.66403 -0.45636,-0.20866 -0.913,-0.37938 -1.01476,-0.37938 -0.10176,0 -0.36808,-0.144 -0.59183,-0.32 -0.22376,-0.176 -0.49405,-0.32 -0.60065,-0.32 -0.10661,0 -0.43184,-0.11873 -0.72274,-0.26384 -0.4021,-0.20061 -0.59019,-0.22104 -0.78458,-0.0853 -0.86414,0.60351 -2.07017,1.21442 -3.08616,1.56328 -0.95521,0.32799 -1.48265,0.40277 -2.87822,0.40808 -0.93979,0.004 -1.85288,-0.0393 -2.0291,-0.0952 -0.2828,-0.0898 -0.33125,-0.0117 -0.41287,0.66561 -0.0509,0.42204 -0.2108,1.12733 -0.35542,1.56733 -0.14464,0.44 -0.63954,2.636 -1.09979,4.88 l -0.8368,4.08 0.46014,0.91307 c 1.09688,2.17658 1.51861,4.30456 1.09432,5.5217 -0.13482,0.38672 -0.086,0.81229 0.24605,2.14387 0.98416,3.94704 2.23869,6.71275 3.41611,7.53112 0.82354,0.5724 2.00429,-0.28985 3.4877,-2.54693 1.15972,-1.7646 1.39128,-1.96283 2.29292,-1.96283 0.40383,0 0.88575,0.10613 1.07095,0.23584 0.18518,0.12973 1.33424,1.37173 2.55345,2.76 4.49116,5.114 8.05948,8.47917 9.82103,9.2619 0.22,0.0977 0.454,0.14751 0.52,0.11055 0.066,-0.0369 0.12,-0.49466 0.12,-1.01714 z m -22.22738,-33.68448 c 0.008,-0.1864 0.0456,-0.2243 0.0967,-0.0967 0.0462,0.11551 0.0405,0.25351 -0.0126,0.30667 -0.0532,0.0532 -0.091,-0.0413 -0.084,-0.21 z m 7.92856,-1.86096 c 0.0427,-0.0691 0.18146,-0.12571 0.30826,-0.12571 0.12681,0 0.23056,0.0566 0.23056,0.12571 0,0.0692 -0.13872,0.12572 -0.30826,0.12572 -0.16953,0 -0.27328,-0.0566 -0.23056,-0.12572 z m -211.15716,27.83429 c 0.0749,-0.198 0.50059,-2.124 0.94606,-4.28 0.44548,-2.156 1.10675,-5.324 1.4695,-7.04 1.73602,-8.21235 2.68794,-13.89616 3.20221,-19.12 0.0953,-0.968 0.20233,-1.976 0.23784,-2.24 0.0355,-0.264 0.188,-2.244 0.33885,-4.4 0.21478,-3.0696 0.27349,-6.07203 0.27061,-13.84 -0.004,-9.51326 -0.0954,-12.85861 -0.61558,-22.4 -0.36197,-6.64008 -1.05604,-16.44566 -1.68181,-23.76 -0.5461,-6.38321 -0.6132,-7.18614 -0.86236,-10.32 -0.73773,-9.27865 -1.10659,-15.36953 -1.54551,-25.52 -0.24987,-5.77859 -0.0963,-26.00067 0.23938,-31.51999 0.42387,-6.96938 1.10004,-14.41991 1.62633,-17.92 0.12571,-0.836 0.22899,-1.6184 0.2295,-1.73866 0.001,-0.28259 -0.24291,-0.34432 6.08095,1.5377 2.948,0.87734 5.648,1.6699 6,1.76126 0.352,0.0914 1.68301,0.46166 2.9578,0.8229 1.27479,0.36124 2.43367,0.6568 2.57529,0.6568 0.19392,0 0.34819,-0.38512 0.62491,-1.56 0.61825,-2.62504 2.00453,-7.48423 3.0207,-10.58832 0.53085,-1.62157 0.92683,-3.01037 0.87997,-3.0862 -0.0469,-0.0758 -1.06925,-0.60982 -2.27195,-1.18662 -1.20269,-0.5768 -2.33072,-1.12594 -2.50672,-1.22029 -0.176,-0.0944 -1.112,-0.57987 -2.08,-1.07893 -3.62391,-1.86835 -6.28608,-3.27032 -7.76,-4.08665 -0.836,-0.46301 -1.916,-1.06096 -2.4,-1.32875 -0.53605,-0.29661 -0.86272,-0.57936 -0.83578,-0.72343 0.14274,-0.76337 2.56852,-6.99445 3.55856,-9.14081 0.28413,-0.616 0.8955,-1.984 1.35858,-3.04 0.46309,-1.056 1.73882,-3.72 2.83497,-5.92 1.717,-3.44608 2.79403,-5.48154 5.29132,-10 2.53161,-4.58055 8.04521,-13.03619 11.33225,-17.37911 1.00106,-1.3226 1.9641,-2.60836 2.1401,-2.85726 0.176,-0.2489 0.788,-1.00816 1.36,-1.68728 0.572,-0.6791 1.472,-1.76235 2,-2.40722 3.88846,-4.74904 9.29237,-10.20492 14.32,-14.45777 1.012,-0.85605 2.06181,-1.76115 2.3329,-2.01135 0.2711,-0.25019 1.79369,-1.42747 3.38355,-2.61619 5.80984,-4.34393 12.03541,-8.16097 17.90573,-10.97841 1.48381,-0.71215 2.80803,-1.35544 2.94272,-1.42954 0.1347,-0.0741 0.9987,-0.43794 1.92,-0.8085 0.92131,-0.37054 1.8911,-0.77427 2.1551,-0.89715 0.63407,-0.29512 4.27427,-1.67022 4.42146,-1.67022 0.2816,0 4.77854,-1.64714 4.77854,-1.75029 0,-0.32358 -8.47486,2.14475 -12.16,3.54166 -14.36322,5.44461 -27.54749,14.5429 -39.02203,26.92863 -2.87335,3.10152 -6.96808,7.94339 -8.49874,10.04947 -0.30757,0.4232 -0.8132,1.1072 -1.12361,1.52 -6.23303,8.28888 -12.65075,18.9665 -18.14588,30.19053 -2.1193,4.32873 -4.49129,9.73761 -5.5782,12.72 -0.40089,1.1 -0.91547,2.504 -1.14351,3.12 -1.35289,3.65448 -3.58113,11.80665 -4.63569,16.96 -1.80917,8.84089 -2.88948,21.75484 -3.07847,36.79999 -0.1785,14.21026 0.38621,24.88541 2.58574,48.88 0.95916,10.46348 1.82243,20.87727 2.15532,26 0.17727,2.728 0.42375,5.536 0.54772,6.24 0.12637,0.71755 0.16768,1.38803 0.094,1.52587 -0.0723,0.13522 -0.0662,1.61122 0.0134,3.28 0.0796,1.66877 0.19094,6.16613 0.24735,9.99413 0.24049,16.32016 -1.13388,31.74032 -3.92985,44.09199 -0.93422,4.12705 -1.15229,5.00129 -2.02681,8.12568 -0.48919,1.74771 -0.82899,3.23689 -0.7551,3.30929 0.11965,0.11727 0.65194,0.20291 1.7783,0.28615 0.24513,0.0181 0.4084,-0.0906 0.50007,-0.33311 z m 157.38866,-21.64749 c 0.52103,-0.66411 0.96964,-1.27105 0.9969,-1.34875 0.0273,-0.0777 -0.29672,-0.19017 -0.72,-0.24993 -0.94736,-0.13376 -8.55734,-1.54304 -10.80528,-2.00101 -9.79413,-1.99533 -24.7729,-6.47103 -36.60431,-10.93746 -0.836,-0.31558 -1.53496,-0.57416 -1.55324,-0.57457 -0.11911,-0.003 -1.71085,1.58686 -1.64669,1.64454 0.044,0.0395 1.15993,0.48416 2.47993,0.98808 1.32,0.5039 2.616,1.01442 2.88,1.13445 0.5262,0.23925 0.54453,0.24592 6.08,2.21325 3.39276,1.2058 6.67207,2.29662 11.76,3.9118 2.80322,0.88989 9.64136,2.76656 13.92001,3.82023 4.06344,1.00065 11.2362,2.55819 11.93268,2.59113 0.23304,0.011 0.61642,-0.34593 1.28,-1.19176 z m 74.47338,-1.41928 c 1.09668,-0.38872 2.53394,-0.93236 3.19394,-1.20808 0.66,-0.27571 1.47,-0.61348 1.8,-0.7506 0.33,-0.13711 0.59838,-0.29548 0.5964,-0.35192 -0.002,-0.0564 -0.72234,-0.41752 -1.60078,-0.8024 l -1.59719,-0.69978 -1.83461,0.81744 c -1.00904,0.4496 -2.55569,1.0525 -3.437,1.33978 -0.88133,0.28728 -1.60071,0.55833 -1.59863,0.60233 0.003,0.0565 2.39917,1.76 2.47595,1.76 0.004,0 0.90527,-0.31805 2.00192,-0.70677 z m -27.04606,-23.65881 c 2.03667,0.0856 14.5279,-0.92119 19.22142,-1.54927 l 2.18144,-0.29192 1.49856,-1.00667 c 1.66162,-1.11617 4.86018,-4.20333 6.53413,-6.30656 2.35069,-2.95349 4.35003,-6.64355 5.50797,-10.16574 1.13005,-3.43736 1.1347,-3.64027 0.10934,-4.76935 -0.3923,-0.43198 -0.59934,-0.79536 -0.54696,-0.96 0.0595,-0.18688 0.0419,-0.20633 -0.0595,-0.0661 -0.10337,0.14293 -0.82052,-0.46429 -2.55104,-2.16 -1.32396,-1.29734 -2.77907,-2.64621 -3.23356,-2.99747 -0.4545,-0.35127 -0.79159,-0.72927 -0.74909,-0.84 0.0437,-0.11378 -0.0426,-0.20135 -0.19837,-0.20135 -0.27245,0 -1.77181,-1.09841 -1.78664,-1.30886 -0.004,-0.0599 0.15432,-0.14501 0.35232,-0.18918 0.198,-0.0442 0.0982,-0.0646 -0.22184,-0.0454 -0.41827,0.0251 -0.55963,-0.0229 -0.50288,-0.17083 0.0434,-0.11315 0.19725,-0.2141 0.34184,-0.22431 0.19819,-0.0141 0.18413,-0.0435 -0.0571,-0.12 -0.176,-0.0558 2.02,-0.13744 4.88,-0.18144 3.30667,-0.0509 5.2,-0.13825 5.2,-0.24 0,-0.10281 -1.99766,-0.17505 -5.58877,-0.20211 -3.07382,-0.0231 -5.5448,0.002 -5.49104,0.0556 0.0538,0.0537 2.53269,0.10567 5.50877,0.11538 l 5.41104,0.0176 -5.12,0.0867 c -3.74509,0.0634 -5.11062,0.13637 -5.08506,0.27155 0.0711,0.37613 -0.4306,0.35117 -0.73561,-0.0366 -0.17184,-0.21846 -0.37248,-0.38064 -0.44589,-0.36038 -0.0734,0.0203 -0.45744,-0.13973 -0.85344,-0.35552 l -0.72,-0.39234 -19.0729,-0.0425 -19.07289,-0.0425 -0.63023,0.84254 c -1.95597,2.61499 -4.6851,7.838 -5.62363,10.76254 -1.17318,3.65568 -1.50712,6.74151 -1.05827,9.7793 0.63203,4.27763 2.36902,7.4691 6.10441,11.21605 l 2.10884,2.11532 2.22233,0.0571 c 1.22229,0.0314 4.38234,0.0195 7.02234,-0.0265 2.64,-0.046 4.98,-0.0761 5.2,-0.0668 z m -18.56,-0.23664 c 0,-0.0672 -0.42011,-0.58922 -0.9336,-1.16 -4.63792,-5.15546 -6.55624,-10.93781 -5.72143,-17.24592 0.46069,-3.48098 1.45735,-6.53451 3.38149,-10.36003 1.73199,-3.44344 4.5417,-7.69635 5.2917,-8.00973 0.45637,-0.19069 4.65789,-0.21856 27.65555,-0.18347 l 27.11743,0.0414 0.33584,0.33584 c 0.48057,0.4806 0.61163,1.24098 0.72809,4.22416 0.20856,5.34239 -0.60032,10.68115 -2.30657,15.22367 -1.90701,5.077 -5.21938,10.06457 -9.0372,13.60766 -0.5401,0.50122 -0.93796,0.95536 -0.88413,1.00917 0.17752,0.17753 6.28856,-1.08903 10.93283,-2.26589 9.69587,-2.45698 19.40987,-6.16661 32.74765,-12.50587 6.37058,-3.02784 13.89992,-7.55066 18.47195,-11.09592 2.32855,-1.80562 6.23848,-5.66632 7.55762,-7.46246 4.24403,-5.77864 4.9653,-11.55908 2.23926,-17.94604 -1.72206,-4.03473 -5.24532,-8.9679 -10.47422,-14.66569 -2.28834,-2.49355 -2.19773,-2.24175 -1.96695,-5.46611 0.30605,-4.27589 -0.16728,-32.87781 -0.55043,-33.26096 -0.0566,-0.0566 -0.22944,0.0115 -0.38406,0.15152 -0.58184,0.52654 -3.75221,2.18121 -5.81754,3.03628 -1.98689,0.82258 -5.71126,2.10116 -7.30328,2.5072 -1.74582,0.44528 -1.96,0.51312 -1.96,0.62074 0,0.0632 0.33128,0.51046 0.73618,0.99384 1.49051,1.77941 4.22382,6.3584 4.22382,7.07597 0,0.13277 -0.37304,0.34205 -0.91323,0.51232 -1.13594,0.35808 -1.71291,0.95237 -1.97163,2.03085 -0.28514,1.18859 -0.006,2.30016 0.80928,3.22676 0.8856,1.0061 1.50702,1.26112 2.96897,1.21844 1.39943,-0.0409 1.49885,0.0397 1.7944,1.45452 1.66295,7.96069 1.1688,17.67276 -1.274,25.04 -1.692,5.10288 -3.9532,9.01711 -6.93379,12.00268 -2.28472,2.28852 -4.28107,3.52948 -6.85589,4.26171 -1.87206,0.53237 -4.94433,0.53141 -6.66411,-0.002 -2.65109,-0.8224 -4.57529,-2.02591 -6.80549,-4.2565 -8.14281,-8.1443 -11.37763,-24.68001 -7.67478,-39.23182 0.72925,-2.86584 1.61616,-5.28107 2.86467,-7.80106 0.55208,-1.11432 0.9483,-2.06033 0.88048,-2.10225 -0.0678,-0.0419 -0.82637,0.007 -1.68566,0.10804 -2.26992,0.26772 -5.49653,0.1085 -6.64679,-0.328 -1.5867,-0.60209 -2.39616,-1.85624 -2.15552,-3.33964 0.14165,-0.87311 1.03178,-2.52159 1.85789,-3.44072 1.30032,-1.44672 3.78475,-3.09499 6.5652,-4.35557 0.748,-0.33914 1.47358,-0.71061 1.61242,-0.82552 0.13883,-0.11491 0.67822,-0.38216 1.19864,-0.59389 1.06744,-0.43427 1.14792,-0.57885 1.17299,-2.10718 0.009,-0.5345 0.12401,-1.69453 0.25609,-2.57786 0.3825,-2.55817 0.32932,-7.59462 -0.0884,-8.37032 -0.1014,-0.1883 -0.16612,-0.14297 -0.30049,0.21042 -0.0942,0.24773 -0.17125,0.51528 -0.17125,0.59457 0,0.0793 -0.10381,0.3806 -0.23069,0.66959 -0.12689,0.28897 -0.49681,1.24542 -0.82208,2.12542 -0.71958,1.94685 -0.84597,2.2417 -1.94205,4.53091 -0.47689,0.99602 -0.96345,2.07602 -1.08124,2.4 -0.37557,1.03304 -1.2029,2.74908 -1.32554,2.7494 -0.0651,0 -1.2344,0.14182 -2.5984,0.31476 -2.93454,0.3721 -13.90795,1.37463 -17.44,1.59332 -2.74285,0.16982 -2.88,0.13092 -2.88,-0.81668 0,-0.24592 -0.0711,-0.75416 -0.15792,-1.1294 -0.0869,-0.37527 -0.2753,-1.58231 -0.41875,-2.68231 -0.14346,-1.1 -0.47168,-2.864 -0.72938,-3.92 -0.59969,-2.45736 -2.33713,-7.7483 -3.38272,-10.30126 l -0.81145,-1.98127 -0.36741,0.46079 c -0.56613,0.71 -2.95832,5.53357 -3.7204,7.50174 -0.37482,0.968 -0.77016,1.904 -0.87856,2.08 -0.44442,0.72159 -2.83359,8.81469 -3.19844,10.83439 -0.059,0.32691 -0.18152,0.64022 -0.27216,0.69624 -0.2415,0.14926 -20.2627,0.0834 -24.38281,-0.0802 -3.1901,-0.12668 -4.05511,-0.10061 -3.47978,0.10484 0.11013,0.0393 1.15413,0.66938 2.32,1.40011 4.37467,2.74192 6.30688,4.83125 6.25888,6.76784 -0.0642,2.58844 -2.93224,3.8224 -9.71083,4.17805 -2.03075,0.10655 -3.18635,0.0867 -4.70594,-0.0808 -1.10782,-0.1221 -2.04918,-0.18703 -2.09192,-0.14427 -0.0427,0.0427 0.18922,0.66163 0.51544,1.37531 0.97451,2.13187 0.95744,2.026 0.36837,2.28491 -0.28282,0.1243 -0.76232,0.32101 -1.06554,0.43714 -1.42515,0.5458 -2.31656,1.89457 -2.31737,3.50638 -0.002,2.7123 2.50232,4.45368 5.09091,3.54086 0.51824,-0.18275 0.99366,-0.30048 1.05653,-0.26163 0.0629,0.0389 0.16056,0.59491 0.2171,1.2357 0.0566,0.64078 0.17712,1.70507 0.26794,2.36507 0.27537,2.00146 0.32305,7.84851 0.0822,10.08 -0.61277,5.6771 -1.74237,9.81283 -3.91128,14.32 -1.73626,3.60806 -3.51109,6.15074 -6.05435,8.67352 -6.25024,6.19995 -14.62763,7.67563 -21.80035,3.84013 -7.43807,-3.97739 -12.86058,-12.73682 -14.71335,-23.7677 -1.7785,-10.58862 0.31224,-22.27878 5.38022,-30.08313 0.47759,-0.73544 0.84503,-1.40711 0.81653,-1.4926 -0.0285,-0.0855 -0.76992,-0.3927 -1.6476,-0.68273 -0.87769,-0.29003 -2.12921,-0.7589 -2.78115,-1.04192 -1.7053,-0.74034 -5.88781,-2.92389 -7.90826,-4.12866 -0.95347,-0.56854 -1.79222,-0.97144 -1.86388,-0.89531 -0.12743,0.13536 -0.44597,3.57624 -0.82008,8.8584 -0.29928,4.22549 -0.25464,16.23586 0.0749,20.16 1.41343,16.82947 5.07898,29.59362 11.67082,40.64 1.46621,2.45701 1.59139,2.98723 0.8549,3.62074 -0.2425,0.20859 -0.63386,0.37926 -0.86967,0.37926 -0.23579,0 -2.69779,0.17774 -5.47107,0.39499 -2.77328,0.21725 -5.56403,0.43231 -6.20165,0.47791 l -1.15929,0.0829 -0.70116,-0.89335 c -0.66396,-0.84595 -2.32812,-4.01859 -3.00537,-5.72956 -0.17136,-0.43292 -0.4496,-1.09013 -0.61832,-1.46047 -0.94776,-2.08046 -4.30875,-10.91057 -5.69133,-14.95243 -0.61837,-1.80773 -0.65536,-1.31482 -0.16416,2.18754 0.22003,1.56886 0.44699,3.28446 0.50435,3.81246 0.21775,2.00413 1.62779,9.72118 2.40402,13.15698 0.30281,1.34033 0.55057,2.83433 0.55057,3.32 v 0.88302 h -4.14288 c -3.17105,0 -4.15897,0.0469 -4.21148,0.2 -0.0378,0.11 0.0231,1.82 0.13515,3.8 0.11208,1.98 0.26125,5.9356 0.33149,8.79024 l 0.12772,5.19022 1.12,0.28573 c 5.37856,1.37214 17.82674,4.04067 26,5.57363 17.77085,3.33306 38.10391,5.81535 50.92001,6.2164 0.418,0.0131 0.76,-0.0312 0.76,-0.0984 z m 43.88,-43.43205 c -0.42011,-0.45088 -0.46869,-1.17934 -0.11254,-1.68782 0.14772,-0.21091 0.61524,-0.45931 1.16,-0.61632 1.3015,-0.37515 1.79254,-0.76055 1.79254,-1.40693 0,-0.71507 -0.77206,-2.18848 -1.85216,-3.53466 -1.2029,-1.49923 -1.24315,-1.58758 -1.02485,-2.24905 0.20647,-0.62563 0.55903,-0.87095 1.25167,-0.87095 0.57062,0 1.56915,1.02927 2.7618,2.84684 1.39912,2.13222 1.77772,3.95792 1.12069,5.40448 -0.53955,1.18795 -2.23755,2.20993 -4.01541,2.4168 -0.61756,0.0719 -0.77371,0.0282 -1.08174,-0.30239 z m 10.66738,19.43427 c -0.008,-0.17806 -0.0428,-0.20475 -0.0956,-0.0733 -0.0637,0.15872 -0.13503,0.16346 -0.30736,0.0204 -0.22088,-0.18331 -0.32579,0.0182 -0.11778,0.22624 0.20949,0.2095 0.53311,0.10178 0.52071,-0.17333 z m -246.394,-1.04 c 0.20241,-1.03784 0.38034,-1.74867 0.95854,-3.82932 0.33208,-1.19498 0.33439,-1.27096 0.0827,-2.72 -0.25624,-1.47538 -0.39528,-2.39074 -1.33223,-8.77068 -0.62479,-4.25436 -1.51564,-10.80059 -1.68748,-12.4 -0.0473,-0.44 -0.19561,-1.7 -0.32964,-2.8 -0.33751,-2.77009 -0.98599,-8.97993 -1.27819,-12.24 -0.13408,-1.496 -0.31705,-3.44 -0.40659,-4.32 -0.88787,-8.726 -1.43363,-20.77262 -1.45513,-32.11955 -0.009,-4.73201 -0.0734,-7.67595 -0.16925,-7.7352 -0.19041,-0.11768 -1.95246,0.12004 -6.15895,0.8309 -10.22018,1.72712 -17.774986,3.94544 -24.457186,7.18136 -3.02379,1.4643 -4.69726,2.46939 -6.96957,4.18595 -1.74121,1.31536 -4.40325,4.0157 -5.34827,5.4252 -0.35081,0.52323 -0.67874,0.98734 -0.72873,1.03134 -0.22006,0.19367 -1.58534,3.05452 -1.9017,3.98487 -0.46534,1.36848 -0.6814,3.94229 -0.48101,5.73022 0.1958,1.74711 0.95767,4.65125 1.69075,6.44491 1.48433,3.63178 4.54747,8.878 7.05326,12.08008 0.0689,0.0881 0.44574,0.59205 0.83743,1.12 5.02904,6.77866 16.147536,18.19572 26.251926,26.95687 0.65775,0.5703 1.23192,1.07445 1.27592,1.1203 0.0902,0.094 3.03196,2.62339 3.74128,3.21683 0.25371,0.21226 0.54171,0.45824 0.64,0.54664 0.0983,0.0884 0.57472,0.48341 1.05872,0.8778 0.484,0.3944 0.916,0.75828 0.96,0.80864 0.16567,0.18958 5.36168,4.42435 6.31623,5.14774 0.54787,0.4152 1.08766,0.8652 1.19954,1 0.33661,0.4056 0.43371,0.29064 0.63762,-0.7549 z m 246.51592,-0.47 c -0.0511,-0.12763 -0.089,-0.0897 -0.0967,0.0967 -0.007,0.16866 0.0309,0.26317 0.084,0.21 0.0532,-0.0532 0.0589,-0.19116 0.0126,-0.30667 z m -0.16333,-1.13 c -0.0444,-0.11 -0.0807,-0.02 -0.0807,0.2 0,0.22 0.0363,0.31 0.0807,0.2 0.0444,-0.11 0.0444,-0.29 0,-0.4 z m 0.32,-0.64 c -0.0444,-0.11 -0.0807,-0.02 -0.0807,0.2 0,0.22 0.0363,0.31 0.0807,0.2 0.0444,-0.11 0.0444,-0.29 0,-0.4 z m -0.15509,-1.35696 c -0.0406,-0.15566 -0.0764,-0.067 -0.0797,0.19696 -0.003,0.264 0.0299,0.39138 0.0738,0.28304 0.0438,-0.10832 0.0465,-0.32432 0.006,-0.48 z m -5.55088,-0.52304 c 0,-0.088 -0.11226,-0.16 -0.24944,-0.16 -0.1372,0 -0.20494,0.072 -0.15056,0.16 0.0544,0.088 0.16664,0.16 0.24944,0.16 0.0828,0 0.15056,-0.072 0.15056,-0.16 z m 5.87736,-2.11577 c -0.0338,-0.37632 -0.0619,-0.10823 -0.0625,0.59577 0,0.704 0.0271,1.01191 0.0614,0.68423 0.0344,-0.32767 0.0349,-0.90367 0.002,-1.28 z m -7.39078,0.84641 c -0.058,-0.0938 -0.22722,-0.16228 -0.37602,-0.15208 -0.24392,0.0167 -0.24299,0.0258 0.009,0.0917 0.154,0.0403 0.28,0.15191 0.28,0.24811 0,0.0962 0.0432,0.13173 0.096,0.0789 0.0528,-0.0528 0.0486,-0.17282 -0.009,-0.26668 z m 6.90371,-1.25064 c -0.0402,-0.154 -0.0732,-0.028 -0.0732,0.28 0,0.308 0.0329,0.434 0.0732,0.28 0.0402,-0.154 0.0402,-0.406 0,-0.56 z m -8.15911,0.0267 c 0.0326,-0.098 -0.14484,-0.17335 -0.40814,-0.17335 -0.36984,0 -0.42845,0.0433 -0.28443,0.20983 0.20803,0.24062 0.60733,0.2196 0.69257,-0.0365 z m 8.68639,-1.7981 c 0.002,-0.0283 -0.10557,0.0566 -0.23757,0.18856 -0.132,0.132 -0.23518,0.47915 -0.2293,0.77144 0.0106,0.52024 0.0155,0.51627 0.23757,-0.18858 0.12479,-0.396 0.22797,-0.74313 0.2293,-0.77142 z m -11.39757,-0.61886 c -0.154,-0.0403 -0.406,-0.0403 -0.56,0 -0.154,0.0402 -0.028,0.0732 0.28,0.0732 0.308,0 0.434,-0.0329 0.28,-0.0732 z m 11.28,0.004 c -0.11,-0.0444 -0.29,-0.0444 -0.4,0 -0.11,0.0444 -0.02,0.0807 0.2,0.0807 0.22,0 0.31,-0.0363 0.2,-0.0807 z m -83.08,-9.59188 c 2.07411,-0.47508 4.09732,-1.41475 6.00779,-2.79025 1.42632,-1.02695 3.75397,-3.22975 3.74907,-3.548 -0.002,-0.11215 -0.28478,-0.67191 -0.62902,-1.24391 -0.34424,-0.572 -0.95538,-1.616 -1.3581,-2.32 -0.4027,-0.704 -0.90704,-1.568 -1.12074,-1.92 -0.21369,-0.352 -0.54414,-0.928 -0.73432,-1.28 -0.19017,-0.352 -0.96076,-1.70708 -1.71244,-3.01129 l -1.36668,-2.3713 0.72872,-1.5487 c 0.88764,-1.88642 1.29167,-3.07375 1.6166,-4.75069 0.1362,-0.70291 0.30776,-1.49402 0.38123,-1.75802 0.0735,-0.264 0.1208,-1.776 0.10517,-3.36 -0.0326,-3.3035 -0.40069,-5.73428 -1.20285,-7.94336 -0.45472,-1.25224 -1.63453,-3.63748 -1.88767,-3.81633 -0.0625,-0.0442 -0.26795,-0.33231 -0.45652,-0.64031 -0.18858,-0.308 -0.53975,-0.704 -0.78039,-0.88 -0.24062,-0.176 -0.60381,-0.48454 -0.80705,-0.68564 -0.20325,-0.20111 -0.88837,-0.62922 -1.52248,-0.95136 -1.09948,-0.55856 -1.22565,-0.5854 -2.72128,-0.57847 -1.43892,0.007 -1.65092,0.0493 -2.56871,0.51642 -0.55017,0.28005 -1.23011,0.70489 -1.51096,0.94411 -0.28083,0.23922 -0.69555,0.57894 -0.92158,0.75494 -0.22603,0.176 -0.60583,0.644 -0.84399,1.04 -0.23814,0.396 -0.52883,0.81855 -0.64595,0.93898 -0.39304,0.40416 -1.27137,2.32765 -1.7631,3.86102 -0.80421,2.50784 -1.04461,4.2132 -1.03755,7.36 0.009,4.21624 0.66993,7.24096 2.23928,10.25485 l 0.7159,1.37487 -0.43504,0.94513 c -0.67157,1.45903 -4.29882,9.46279 -4.79445,10.57925 l -0.4413,0.99408 0.43055,0.51166 c 0.61435,0.73012 1.75216,1.72082 3.04786,2.65381 3.65632,2.63279 8.13403,3.60901 12.24,2.66851 z m 108.88,-1.84193 c 1.78746,-0.43135 4.06384,-1.7669 5.79475,-3.39976 1.06728,-1.00682 3.08565,-3.62453 3.08488,-4.00093 0,-0.0987 -0.36972,-0.82754 -0.82118,-1.61954 -1.55421,-2.72665 -2.61803,-4.57345 -3.31792,-5.76 -0.15573,-0.264 -0.48408,-0.85172 -0.72968,-1.30606 l -0.44653,-0.82605 0.49693,-1.49395 c 1.20198,-3.6136 1.47267,-5.47525 1.4735,-10.13394 0.002,-4.45033 -0.33248,-6.83233 -1.38054,-9.86681 -1.02965,-2.98115 -2.04144,-4.41389 -3.90894,-5.53517 -0.93976,-0.56424 -2.61634,-0.60226 -3.60527,-0.0817 -0.75883,0.3994 -1.62531,1.18739 -2.15936,1.96372 -0.21187,0.308 -0.43302,0.596 -0.49144,0.64 -0.38569,0.29052 -1.81563,4.0374 -2.01027,5.26757 -0.0498,0.31485 -0.12643,0.63085 -0.17026,0.70224 -0.0438,0.0714 -0.10443,0.32339 -0.13468,0.56 -0.0303,0.23661 -0.1429,1.07819 -0.25029,1.87019 -0.24744,1.82488 -0.24647,6.89028 0.002,8.88 0.35192,2.82157 1.16659,5.84656 2.03731,7.56484 0.3789,0.74771 0.39853,0.87476 0.21461,1.38907 -0.11133,0.31136 -0.25146,0.60209 -0.31139,0.64609 -0.0984,0.0722 -1.86002,3.09866 -2.14205,3.68 -0.0641,0.132 -0.20437,0.384 -0.31183,0.56 -0.24753,0.40538 -1.35924,2.30621 -2.19206,3.74797 -0.352,0.60939 -0.64,1.22803 -0.64,1.37477 0,0.42765 2.7295,3.01368 3.93581,3.72894 1.34065,0.79492 3.01232,1.43943 4.21254,1.62413 0.97629,0.15026 2.76685,0.0669 3.77165,-0.17558 z m -14.31659,-21.94023 c 1.14024,-0.77342 1.67902,-2.54579 1.66584,-5.48 -0.0138,-3.04868 -0.64357,-4.7998 -1.98459,-5.5175 -0.51912,-0.27782 -1.41108,0.23669 -1.95016,1.12491 -0.48964,0.80671 -0.9345,2.93592 -0.9345,4.47259 0,0.50495 0.11093,1.55418 0.2465,2.33164 0.28992,1.66249 0.861,2.73107 1.68246,3.14811 0.68685,0.3487 0.63832,0.35174 1.27445,-0.0797 z m -113.09383,-1.38464 c 0.34134,-0.13328 0.75899,-0.49024 1.17899,-1.00768 0.73627,-0.90708 1.28757,-3.53715 1.11674,-5.32768 -0.21728,-2.27732 -0.5905,-3.25094 -1.65796,-4.32513 -1.24291,-1.25075 -3.04806,0.004 -3.68872,2.56513 -0.69739,2.78732 0.0707,7.05018 1.37767,7.64565 0.20003,0.0912 0.36369,0.22088 0.36369,0.28831 0,0.11676 0.34076,0.24745 0.74959,0.28748 0.10427,0.0102 0.35627,-0.0465 0.56,-0.12608 z m 116.79333,-14.75956 c 1.44989,-1.50815 1.08725,-4.85117 -0.60777,-5.60263 -0.75818,-0.33611 -1.02901,-0.2739 -1.77912,0.40869 -0.66645,0.60645 -1.0726,1.90795 -0.9413,3.01645 0.1064,0.89848 0.42902,1.88169 0.61742,1.88169 0.0703,0 0.12786,0.10316 0.12786,0.22922 0,0.12606 0.144,0.27493 0.32,0.33078 0.176,0.0559 0.32,0.16372 0.32,0.23965 0,0.17171 0.61178,0.27554 1.04,0.1765 0.176,-0.0407 0.58231,-0.34687 0.90291,-0.68035 z m -113.35803,-0.1442 c 2.11153,-1.12731 2.11214,-4.93558 0.002,-6.06268 -0.73321,-0.39144 -1.26796,-0.31023 -1.92049,0.29169 -1.51201,1.39474 -1.55312,4.03674 -0.0844,5.426 0.38895,0.36791 0.81517,0.58616 1.28397,0.65744 0.0577,0.009 0.38168,-0.13182 0.72,-0.31245 z m -82.8223,-15.32052 c 0.002,-1.39472 0.49543,-8.66589 0.71595,-10.5576 0.0483,-0.4144 0.23191,-2.26547 0.40799,-4.11347 0.39969,-4.19496 1.07785,-9.97292 1.19224,-10.158 0.0321,-0.052 0.83753,-0.005 1.78981,0.10488 3.02902,0.34878 9.0327,0.73625 9.16718,0.59164 0.0709,-0.0762 0.16115,-1.81289 0.20066,-3.85932 l 0.0718,-3.7208 -0.57411,-0.15368 c -0.31578,-0.0845 -1.25813,-0.30309 -2.09413,-0.4857 -0.836,-0.18261 -1.844,-0.42621 -2.24,-0.54136 -0.396,-0.11514 -1.656,-0.4479 -2.8,-0.7395 -1.144,-0.29159 -2.13365,-0.5757 -2.1992,-0.63136 -0.1165,-0.0989 1.23328,-9.31532 2.03963,-13.9268 2.0606,-11.78461 4.75332,-23.17074 7.18712,-30.39063 0.57893,-1.71736 0.60191,-2.22189 0.12616,-2.76937 -0.34358,-0.3954 -0.65592,-0.34762 -0.83675,0.128 -0.28886,0.75974 -1.88513,6.21304 -2.85459,9.752 -5.6148,20.49659 -8.95453,41.26686 -9.93063,61.76 -0.25337,5.31975 -0.38564,11.70334 -0.24713,11.92745 0.0941,0.15218 0.22328,0.0928 0.50107,-0.23011 0.33627,-0.39095 0.37458,-0.59288 0.37691,-1.98627 z m 116.71644,-11.24863 c -0.23106,-1.53035 -0.45744,-2.89044 -0.50309,-3.02244 -0.13286,-0.38426 -2.61593,4.7202 -2.61593,5.37763 0,0.23089 0.46601,0.33997 1.99529,0.46699 0.61341,0.0509 1.14861,0.12595 1.18933,0.16667 0.0407,0.0407 0.13714,0.0109 0.21426,-0.0662 0.0803,-0.0803 -0.0393,-1.32941 -0.27986,-2.92268 z m -50.97627,0.18794 c 1.10966,-0.32496 3.29126,-0.72643 4.87118,-0.89642 l 0.93394,-0.10048 -0.10671,-1.54673 c -0.0848,-1.22896 -0.99552,-7.06955 -1.45768,-9.34815 -0.1415,-0.69768 -0.33917,-0.37449 -0.53939,0.88191 -0.10163,0.63773 -0.25218,1.41998 -0.33453,1.73835 -0.0824,0.31838 -0.39369,1.76266 -0.69187,3.20949 -0.29816,1.44685 -0.67275,3.0451 -0.83245,3.55168 l -0.29033,0.92104 -0.80746,-0.12432 c -0.4441,-0.0684 -1.09546,-0.12712 -1.44746,-0.13055 l -0.64,-0.006 -0.0865,0.75205 c -0.0838,0.72891 0.0436,1.40795 0.26408,1.40795 0.0593,0 0.58367,-0.13932 1.16516,-0.30961 z m 31.31379,-3.30208 c 1.23262,-6.5585 2.58496,-12.31245 4.16797,-17.734 1.03509,-3.54504 2.54182,-8.01611 2.87929,-8.54406 0.13,-0.20336 0.20421,-0.45536 0.1649,-0.56 -0.042,-0.11181 -0.12315,-0.0583 -0.19686,0.12976 -0.069,0.176 -0.42178,0.716 -0.784,1.2 -0.83911,1.12123 -4.21893,6.22668 -4.81936,7.28 -0.25082,0.44 -0.7746,1.268 -1.16397,1.84 -0.87623,1.28724 -3.24251,6.11545 -4.32013,8.81491 -0.4424,1.10821 -1.10166,2.98021 -1.46504,4.16 -0.67595,2.19462 -1.49651,5.84313 -1.36282,6.05947 0.10373,0.16782 1.56804,0.32594 3.92029,0.42326 1.09824,0.0455 2.02944,0.11528 2.06933,0.15517 0.20374,0.20375 0.39019,-0.45662 0.9104,-3.22451 z m 119.02346,-3.63779 c 0.352,-0.13184 0.66355,-0.35608 0.69235,-0.49832 0.0288,-0.14224 -0.13662,-1.35519 -0.36758,-2.69541 -0.23096,-1.34022 -0.44064,-2.6349 -0.46594,-2.87704 -0.0628,-0.60096 -0.25883,-0.75862 -0.25883,-0.20818 0,0.55055 -0.73664,4.92391 -0.95797,5.68738 -0.3158,1.08939 -0.15646,1.1588 1.35797,0.59157 z m -190.16001,-6.09709 c 2.79951,-0.15886 8.34232,-0.88336 9.48663,-1.23997 0.9824,-0.30616 1.39337,-0.79373 1.39337,-1.65309 0,-0.5614 -0.0902,-0.82513 -0.38213,-1.11704 -0.44252,-0.44254 -0.7316,-0.50142 -3.53787,-0.7208 -2.95457,-0.23096 -6.47931,-0.62017 -8.16,-0.90105 -4.4936,-0.75099 -6.08465,-0.98803 -6.19088,-0.92239 -0.0653,0.0404 -0.0846,1.4926 -0.0429,3.22716 0.0417,1.73457 0.0754,3.25332 0.0748,3.37502 -0.002,0.18363 0.49567,0.20571 2.91901,0.12986 1.606,-0.0503 3.604,-0.13024 4.44,-0.1777 z m 16.05483,-1.71107 c 0.43805,-0.19959 0.74517,-0.75895 0.74517,-1.35715 0,-0.5389 -0.67272,-1.18535 -1.23272,-1.18461 -0.64133,0.002 -1.48328,0.55819 -1.50624,0.99705 -0.035,0.66991 0.0327,0.8405 0.50936,1.28236 0.51323,0.47576 0.87552,0.53979 1.48443,0.26235 z m -45.26016,-0.50235 c 0.0491,-0.286 0.15627,-1.132 0.23829,-1.88 0.22405,-2.04364 0.62448,-5.40247 0.77726,-6.51956 0.0744,-0.5443 0.0936,-1.0555 0.0426,-1.136 -0.0772,-0.12182 -5.05958,-1.78857 -5.5186,-1.84616 -0.22252,-0.0279 -0.51402,1.0932 -1.28492,4.94172 -0.92067,4.5963 -1.12428,5.8183 -0.9916,5.951 0.14784,0.14784 5.13208,0.97805 5.97509,0.99527 0.63776,0.013 0.67739,-0.0133 0.76192,-0.50627 z m -8.75197,-2.36 c 0.2357,-1.58144 1.21002,-6.54298 1.649,-8.39725 0.2391,-1.00995 0.26113,-1.31706 0.10534,-1.46747 -0.15771,-0.15226 -2.67658,-1.11994 -6.35704,-2.4422 -0.52528,-0.18872 -8.44907,-3.52851 -9.6599,-4.07155 -0.51696,-0.23184 -1.00111,-0.42153 -1.07591,-0.42153 -0.23968,0 -0.55275,0.79188 -2.03504,5.14752 -1.58358,4.65328 -2.69194,8.57459 -2.48219,8.78188 0.14646,0.14474 4.73883,1.27695 8.37304,2.06429 1.276,0.27645 3.112,0.68224 4.08,0.90178 3.43112,0.77816 6.24635,1.31952 6.72,1.29221 0.47621,-0.0275 0.4816,-0.0384 0.6827,-1.38768 z m 221.07731,-4.05615 c 15.13144,-1.15021 28.7597,-3.31926 43.52,-6.92659 4.13104,-1.0096 5.21525,-1.48018 6.33116,-2.74792 1.35259,-1.53661 2.34254,-4.30176 2.72678,-7.61645 0.25856,-2.23041 0.0877,-8.29008 -0.32962,-11.69289 -0.84128,-6.85919 -2.89827,-16.54378 -5.08057,-23.92 -2.43832,-8.24152 -5.53346,-13.88602 -7.94498,-14.48901 -0.41525,-0.10384 -0.5523,-0.0131 -1.49224,0.98733 -1.24649,1.3268 -2.76832,3.25203 -3.79435,4.80017 -0.41499,0.62618 -0.93499,1.22072 -1.15555,1.32122 -0.72522,0.33043 -7.27459,1.89918 -10.70063,2.56309 -25.49798,4.94104 -50.34877,2.81931 -76.08,-6.49563 -6.5105,-2.35687 -14.91104,-6.028 -20.25637,-8.85226 -0.87099,-0.46019 -2.33963,-1.23478 -3.26363,-1.7213 -16.35996,-8.61396 -29.95533,-19.77816 -38.19888,-31.36803 -3.97064,-5.58245 -7.10724,-11.64374 -9.1633,-17.70753 -3.22917,-9.52362 -4.18923,-20.16896 -2.81679,-31.23304 0.29831,-2.40486 0.45786,-3.20452 0.73213,-3.66938 l 0.35071,-0.59439 -0.9282,-0.85018 c -1.01956,-0.93387 -1.7362,-1.25179 -2.53097,-1.12282 -0.82874,0.13449 -8.5832,5.63278 -13.67655,9.69734 -24.71795,19.72523 -34.57019,40.11634 -29.42198,60.89442 3.99553,16.12595 16.65165,32.42899 38.45382,49.53449 2.32055,1.82066 4.55311,3.51373 5.46644,4.14551 0.19081,0.132 1.45094,1.03017 2.80025,1.99593 5.15223,3.68765 10.8345,7.32098 16.69332,10.67394 25.73387,14.72736 53.33337,22.8572 83.52,24.60205 3.88021,0.22428 22.49391,0.0767 26.24,-0.20807 z m -68.16,-13.66549 c -1.848,-0.57592 -3.39139,-1.07355 -3.42975,-1.10584 -0.084,-0.0707 0.22306,-1.12022 2.54285,-8.69252 2.70058,-8.81524 5.18413,-16.93652 6.43421,-21.04 0.61659,-2.024 1.13886,-3.69818 1.16062,-3.7204 0.0525,-0.0536 6.85527,2.03027 6.95578,2.13078 0.043,0.0429 -0.14706,0.81294 -0.42222,1.7111 -0.27519,0.89815 -0.48572,1.64764 -0.46783,1.66551 0.0179,0.0179 0.53114,-0.28832 1.14058,-0.68043 1.54144,-0.99178 2.78654,-1.34656 4.72576,-1.34656 1.81286,0 3.11507,0.33512 4.87982,1.25579 4.56236,2.38017 5.7773,8.1751 3.14156,14.98421 -1.52229,3.9326 -4.37788,6.86504 -7.75351,7.96217 -1.31589,0.42768 -3.91672,0.45346 -5.38787,0.0534 -2.47485,-0.67302 -4.40688,-2.15884 -5.31184,-4.08505 -0.2905,-0.61829 -0.56416,-1.1249 -0.60816,-1.12578 -0.044,-0.002 -0.97659,2.9497 -2.07243,6.55683 -1.09586,3.60714 -2.03186,6.55068 -2.08,6.54117 -0.0482,-0.009 -1.59957,-0.48846 -3.44757,-1.06437 z m 16.08,-13.18518 c 1.98317,-0.84971 3.79418,-3.93555 4.30837,-7.34115 0.52078,-3.4493 -1.42959,-5.75203 -4.87186,-5.75203 -0.77965,0 -1.19054,0.10251 -1.96786,0.49092 -1.69427,0.84664 -2.63889,2.26384 -3.54854,5.32373 -0.6771,2.27771 -0.70227,3.67131 -0.0904,5.00779 0.51496,1.12482 0.75893,1.40708 1.68567,1.95018 1.40635,0.82418 3.03715,0.94075 4.48464,0.32056 z m 30,11.07518 -1.76,-0.0884 0.0444,-1.36 c 0.0806,-2.46592 0.66703,-17.79224 0.77339,-20.21176 l 0.10429,-2.37176 3.13895,0.099 c 1.72641,0.0544 3.38296,0.13686 3.6812,0.18318 l 0.54225,0.0842 -0.082,2.14858 c -0.0451,1.18171 -0.0593,2.14858 -0.0317,2.14858 0.0277,0 0.2837,-0.4378 0.56888,-0.97287 0.72482,-1.3599 1.79299,-2.44137 2.94024,-2.97686 0.79503,-0.37109 1.22122,-0.45733 2.48,-0.50176 0.836,-0.0295 1.71989,0.0229 1.96418,0.11654 l 0.44417,0.17021 -0.0899,2.20237 c -0.0494,1.21129 -0.12863,2.71544 -0.17597,3.34251 l -0.0861,1.14016 -0.82821,-0.31514 c -1.02587,-0.39033 -2.85339,-0.54065 -3.71768,-0.30577 -1.59821,0.43433 -2.83528,1.77083 -3.46259,3.74091 -0.27253,0.85582 -0.35552,1.92648 -0.57674,7.4397 l -0.25838,6.44 -1.92642,-0.0316 c -1.05952,-0.0174 -2.7184,-0.0714 -3.6864,-0.12 z m -62.48,-13.42355 c -1.88247,-0.49515 -3.75543,-1.26568 -5.49274,-2.25969 -1.34907,-0.77189 -3.29904,-2.19754 -3.41342,-2.4956 -0.0626,-0.16308 1.90452,-5.23583 2.13272,-5.49988 0.0334,-0.0387 0.17651,0.10532 0.31792,0.32 0.52478,0.79669 2.84518,2.89746 3.8784,3.51128 2.20096,1.30756 4.56545,1.79487 5.63718,1.16176 0.63615,-0.37577 0.90773,-1.26705 0.60773,-1.9944 -0.28344,-0.68721 -1.18757,-1.6603 -2.76534,-2.97628 -1.54645,-1.28986 -3.16029,-3.14956 -3.71232,-4.27788 -0.57128,-1.16763 -0.73812,-2.52612 -0.46848,-3.81481 0.62737,-2.99853 2.647,-5.09042 5.48622,-5.6825 3.13566,-0.6539 7.75264,0.63384 11.47086,3.19938 1.9598,1.35224 1.85888,0.94417 0.83552,3.3788 -0.49126,1.16875 -0.97308,2.33595 -1.07072,2.59379 l -0.1775,0.46878 -1.07301,-1.04688 c -1.23937,-1.20916 -2.19374,-1.88172 -3.59629,-2.53435 -2.5123,-1.16899 -4.59784,-0.74582 -4.59614,0.93259 0.002,0.79346 0.4568,1.49237 1.73314,2.65645 2.82388,2.57551 4.12926,4.00712 4.6796,5.13216 0.5123,1.0473 0.54667,1.21906 0.54667,2.73248 0,1.57832 -0.0154,1.64605 -0.68072,2.98827 -1.36509,2.75404 -3.50653,3.96352 -6.99928,3.95317 -1.22355,-0.004 -1.99528,-0.1087 -3.28,-0.44664 z m 52.65312,-4.76353 c -1.35678,-0.29794 -2.49755,-0.57239 -2.53504,-0.60986 -0.0876,-0.0877 1.96642,-9.82925 2.10091,-9.96374 0.11648,-0.11648 5.07207,0.89604 5.27608,1.078 0.10346,0.0923 -1.51157,8.33763 -1.91843,9.79432 -0.0955,0.34195 0.0717,0.35904 -2.92352,-0.29872 z m -72.25312,-6.12584 c -3.73463,-0.9617 -7.58135,-3.24927 -9.78696,-5.82015 -3.84639,-4.48339 -3.10612,-11.15257 1.82422,-16.43438 4.82203,-5.16578 12.29779,-5.09467 17.5041,0.16651 1.1406,1.15261 2.04003,2.72877 2.46096,4.31258 0.54081,2.03489 0.17164,5.07281 -0.89439,7.36 -0.63611,1.3648 -2.39957,4.32 -2.57787,4.32 -0.0768,0 -0.76752,-0.38415 -1.53488,-0.85365 -0.76734,-0.46951 -3.66318,-2.24263 -6.43518,-3.94026 -2.772,-1.69763 -5.12605,-3.11968 -5.23122,-3.16011 -0.3265,-0.12547 -0.9049,2.08419 -0.80326,3.06875 0.23531,2.28003 2.20284,4.28365 5.66352,5.76738 1.28835,0.55237 3.29004,1.03789 4.27899,1.03789 h 0.5615 l -1.32411,2.2 -1.32411,2.2 -0.63066,0.0319 c -0.34686,0.0176 -1.13465,-0.0979 -1.75065,-0.25648 z m 6.13276,-16.52845 c 0.0993,-1.70331 -0.57184,-2.79216 -2.27412,-3.68947 -1.01464,-0.53483 -2.45892,-0.47767 -3.7837,0.14979 -1.01704,0.48168 -2.39494,1.59616 -2.39494,1.93706 0,0.0954 0.702,0.59995 1.56,1.12116 0.858,0.5212 2.532,1.54002 3.72,2.26402 l 2.16,1.31635 0.4751,-1.01294 c 0.33565,-0.71562 0.49347,-1.32792 0.53766,-2.08597 z m -32.85277,-2.63075 c -2.40609,-0.50111 -4.2703,-1.43735 -6.24052,-3.13413 -1.13023,-0.97338 -2.19909,-2.18246 -2.73559,-3.09448 l -0.38374,-0.65237 2.1848,-2.62763 c 1.20163,-1.4452 2.21681,-2.62763 2.25597,-2.62763 0.0392,0 0.19928,0.33744 0.35582,0.74987 0.42614,1.12264 0.88523,1.7867 1.83578,2.65546 1.26432,1.1555 1.84556,1.39548 3.36748,1.39033 1.02832,-0.004 1.42157,-0.0784 2,-0.38121 1.76183,-0.92221 2.67458,-1.89706 9.63031,-10.28544 3.78704,-4.56706 6.94144,-8.28242 7.00978,-8.25637 0.30659,0.11686 5.57779,4.54547 5.58822,4.69496 0.006,0.0922 -1.6623,2.18334 -3.7083,4.64702 -2.046,2.4637 -5.06271,6.09629 -6.7038,8.07242 -5.06787,6.10253 -7.06166,7.72385 -10.61614,8.63294 -1.14525,0.29291 -2.97675,0.39605 -3.84007,0.21626 z m -31.5671,-29.66386 c -0.77843,-0.3124 -0.8595,-0.92782 -0.67992,-5.16073 0.38742,-9.13146 1.50699,-17.06245 3.07466,-21.78063 2.12041,-6.38182 5.45507,-9.4255 9.56672,-8.73197 5.23187,0.88247 11.36004,7.62287 18.95097,20.84424 1.91527,3.33588 2.04016,3.79583 1.24635,4.58965 -0.33292,0.33291 -0.6727,0.47759 -1.32,0.562 -6.01284,0.78423 -14.54902,3.39021 -24.15168,7.37319 -4.14201,1.71803 -6.0423,2.47355 -6.19176,2.46172 -0.0705,-0.006 -0.29344,-0.0764 -0.49534,-0.15747 z m 4.214,-3.808 c 2.1055,-0.88216 4.66155,-1.93593 6.05496,-2.49625 l 0.62184,-0.25007 -0.11354,-1.54669 c -0.16446,-2.24059 -0.11846,-7.11238 0.0788,-8.34904 0.26174,-1.64065 0.86668,-2.83944 1.6706,-3.31056 1.19058,-0.69772 2.31464,-0.38228 3.74896,1.05204 1.0837,1.08368 2.88471,3.87526 4.333,6.71619 1.05809,2.07552 0.84814,1.96989 2.85024,1.43411 0.9395,-0.25142 2.6442,-0.64342 3.7882,-0.87114 1.144,-0.22771 2.16576,-0.44363 2.27058,-0.47985 0.39416,-0.13618 -4.53045,-8.14903 -7.32784,-11.92312 -4.63118,-6.24819 -8.34323,-9.30415 -11.34274,-9.33794 -1.33912,-0.015 -2.0662,0.35875 -3.25702,1.67466 -2.15493,2.38126 -3.75162,7.28973 -4.80893,14.78328 -0.71089,5.03849 -1.31608,13.84 -0.95161,13.84 0.0832,0 1.15625,-0.42103 2.38446,-0.93562 z m 14.58947,-5.68742 c 0.2881,-0.2881 -3.34949,-6.34079 -4.43174,-7.37415 -0.61551,-0.58769 -0.73189,-0.45652 -0.91563,1.03207 -0.15407,1.24821 -0.1636,7.4895 -0.012,7.87637 0.0947,0.24179 0.38756,0.17708 2.69736,-0.59605 1.42508,-0.47699 2.62302,-0.8992 2.66204,-0.93824 z m 258.88301,56.30164 c 7.07405,-0.87577 12.97347,-3.93907 17.05937,-8.85816 4.53885,-5.46438 7.15394,-12.62222 8.27887,-22.66044 0.44352,-3.95773 0.48976,-10.32589 0.0938,-12.91562 -0.91908,-6.01078 -3.1018,-10.49059 -6.99884,-14.36438 -5.56622,-5.53303 -14.01758,-8.92955 -25.83254,-10.38189 -3.48733,-0.42867 -5.36,-0.56024 -5.36,-0.37658 0,0.0826 0.28158,1.25911 0.62574,2.61437 0.34418,1.35525 0.67607,2.94547 0.73755,3.53383 0.10464,1.00139 0.0863,1.09523 -0.28736,1.46888 -1.47656,1.47656 -5.56289,0.58499 -13.61696,-2.971 l -2.54102,-1.12188 -1.61898,0.43179 c -2.93769,0.7835 -4.54928,1.77552 -6.81017,4.19201 -7.31498,7.81842 -10.86567,23.64484 -8.07007,35.97047 2.24306,9.88945 8.29621,17.28489 17.34311,21.18896 4.18889,1.80766 11.08313,3.54571 16.79816,4.23484 2.54494,0.30688 7.77878,0.31448 10.19936,0.0147 z m -108.43937,-20.081 c 8.41871,-0.27319 15.50375,-0.90128 23.70935,-2.10183 1.29214,-0.18904 2.41094,-0.38692 2.48622,-0.43974 0.28141,-0.19742 1.69114,-2.10266 1.61336,-2.18043 -0.0445,-0.0446 -0.82976,0.0956 -1.74496,0.31141 -2.06113,0.48604 -6.69398,1.00272 -13.82397,1.54172 -3.67213,0.27759 -15.93414,0.37781 -20.20035,0.16509 -19.76679,-0.98561 -37.04261,-4.7027 -54.91965,-11.81661 -5.41397,-2.15441 -11.68384,-5.06297 -15.84,-7.34809 -3.75781,-2.06611 -4.1785,-2.30475 -5.49267,-3.11592 -0.68898,-0.42527 -1.27437,-0.7732 -1.30088,-0.7732 -0.11716,0 -5.12597,-3.35845 -6.64645,-4.45648 -5.02581,-3.62946 -10.19989,-8.18443 -13.74858,-12.10352 -4.0412,-4.46301 -6.4021,-7.56978 -9.29272,-12.22861 -0.96162,-1.54986 -3.79906,-7.02582 -4.31701,-8.33139 -0.19201,-0.484 -0.41717,-1.00858 -0.50033,-1.16573 -0.0832,-0.15715 -0.47808,-1.16418 -0.87757,-2.23782 -3.49624,-9.39645 -5.00698,-18.6404 -4.83237,-29.56841 0.0408,-2.5501 0.015,-4.61663 -0.0571,-4.59229 -0.0721,0.0243 -0.70136,0.53299 -1.39828,1.13034 l -1.26714,1.08608 -0.13446,1.55392 c -0.074,0.85465 -0.1332,4.43391 -0.13164,7.95391 0.003,6.6929 0.13181,8.60949 0.89266,13.28 2.9732,18.25118 12.26293,33.51769 27.9045,45.85755 3.08001,2.42987 4.94625,3.74118 9.44,6.63306 0.528,0.33977 1.104,0.69907 1.28,0.79841 0.176,0.0993 1.472,0.84291 2.88,1.65237 11.23838,6.46101 25.80992,12.2217 39.68,15.68702 11.7012,2.92344 24.44042,4.59636 37.04,4.86408 1.012,0.0215 2.488,0.0536 3.28,0.0713 0.792,0.0177 3.636,-0.0391 6.32,-0.12617 z M 206.461,260.20073 c 3.95757,-2.70727 11.16307,-6.43245 16.78235,-8.67635 0.64234,-0.2565 1.32634,-0.56978 1.52,-0.69616 0.19366,-0.12639 1.39611,-0.63533 2.67211,-1.13098 1.276,-0.49566 2.3769,-0.95608 2.44642,-1.02315 0.0695,-0.0671 -0.11967,-0.65547 -0.42042,-1.30754 -0.80923,-1.75443 -1.92051,-4.5259 -2.41608,-6.02558 -0.2399,-0.726 -0.4759,-1.32 -0.52443,-1.32 -0.0485,0 -0.92461,0.66872 -1.94685,1.48603 -1.02225,0.81731 -2.11064,1.66038 -2.41864,1.8735 -1.04489,0.72298 -5.34878,4.38424 -7.92,6.73744 -3.20785,2.93588 -5.37768,5.18023 -7.12201,7.36664 -1.40607,1.76244 -2.55455,3.65639 -2.2172,3.65639 0.10465,0 0.80878,-0.42311 1.56475,-0.94024 z"
       id="path226" /></g></svg>
