%TF.GenerationSoftware,Altium Limited,Altium Designer,21.7.2 (23)*%
G04 Layer_Physical_Order=3*
G04 Layer_Color=16440176*
%FSLAX45Y45*%
%MOMM*%
%TF.SameCoordinates,838FB56E-0ED7-4152-9A2E-8E5145BDEB09*%
%TF.FilePolarity,Positive*%
%TF.FileFunction,Copper,L3,Inr,Signal*%
%TF.Part,Single*%
G01*
G75*
%TA.AperFunction,WasherPad*%
%ADD43C,1.15200*%
%TA.AperFunction,ComponentPad*%
%ADD44C,0.60000*%
%ADD45O,1.00000X2.20000*%
%ADD46O,1.00000X1.90000*%
%TA.AperFunction,ViaPad*%
%ADD47C,0.70000*%
%ADD48C,0.60000*%
G36*
X1150000Y2375000D02*
X1150000Y2375000D01*
X1150004D01*
X1163803Y2373724D01*
X1171877Y2372119D01*
X1185526Y2366465D01*
X1197810Y2358257D01*
X1208257Y2347810D01*
X1216464Y2335526D01*
X1222118Y2321877D01*
X1225000Y2307387D01*
X1224999Y2300000D01*
X1225001Y-999999D01*
X1225000Y-1000000D01*
X1225000Y-1007386D01*
X1222118Y-1021876D01*
X1216464Y-1035525D01*
X1208257Y-1047809D01*
X1197810Y-1058256D01*
X1185526Y-1066463D01*
X1171877Y-1072117D01*
X1157387Y-1074999D01*
X1150000Y-1074999D01*
X-1152879D01*
X-1168335Y-1071925D01*
X-1182894Y-1065894D01*
X-1195997Y-1057139D01*
X-1207140Y-1045996D01*
X-1215895Y-1032893D01*
X-1221925Y-1018334D01*
X-1225000Y-1002878D01*
Y-994999D01*
Y2300000D01*
X-1225000Y2307387D01*
X-1222118Y2321877D01*
X-1216464Y2335526D01*
X-1208257Y2347810D01*
X-1197810Y2358257D01*
X-1185526Y2366464D01*
X-1171877Y2372118D01*
X-1157387Y2375000D01*
X-1150000Y2374999D01*
X-457399Y2375000D01*
X-454167Y2360863D01*
X-474358Y2352500D01*
X-491696Y2339196D01*
X-505000Y2321858D01*
X-513363Y2301667D01*
X-516216Y2280000D01*
Y2190000D01*
X-513363Y2168333D01*
X-505000Y2148142D01*
X-491696Y2130804D01*
X-474358Y2117500D01*
X-454167Y2109137D01*
X-432500Y2106284D01*
X-410833Y2109137D01*
X-390642Y2117500D01*
X-373304Y2130804D01*
X-360000Y2148142D01*
X-351637Y2168333D01*
X-348784Y2190000D01*
Y2280000D01*
X-351637Y2301667D01*
X-360000Y2321858D01*
X-373304Y2339196D01*
X-390642Y2352500D01*
X-410833Y2360863D01*
X-407601Y2375000D01*
X407602Y2375000D01*
X410833Y2360863D01*
X390642Y2352500D01*
X373304Y2339196D01*
X360000Y2321858D01*
X351637Y2301667D01*
X348784Y2280000D01*
Y2190000D01*
X351637Y2168333D01*
X360000Y2148142D01*
X373304Y2130804D01*
X390642Y2117500D01*
X410833Y2109137D01*
X432500Y2106284D01*
X454167Y2109137D01*
X474358Y2117500D01*
X491696Y2130804D01*
X505000Y2148142D01*
X513363Y2168333D01*
X516216Y2190000D01*
Y2280000D01*
X513363Y2301667D01*
X505000Y2321858D01*
X491696Y2339196D01*
X474358Y2352500D01*
X454167Y2360863D01*
X457398Y2375000D01*
X1150000Y2375001D01*
X1150000Y2375000D01*
D02*
G37*
%LPC*%
G36*
X1010940Y2205000D02*
X989060D01*
X968845Y2196627D01*
X953374Y2181155D01*
X945000Y2160940D01*
Y2139060D01*
X953374Y2118845D01*
X968845Y2103373D01*
X989060Y2095000D01*
X1010940D01*
X1031155Y2103373D01*
X1046627Y2118845D01*
X1055000Y2139060D01*
Y2160940D01*
X1046627Y2181155D01*
X1031155Y2196627D01*
X1010940Y2205000D01*
D02*
G37*
G36*
X432500Y1958716D02*
X410833Y1955864D01*
X390642Y1947501D01*
X373304Y1934197D01*
X360000Y1916858D01*
X356144Y1907550D01*
X354622Y1906729D01*
X338923Y1905172D01*
X325686Y1918409D01*
X302531Y1928000D01*
X277469D01*
X254313Y1918409D01*
X236591Y1900687D01*
X227000Y1877531D01*
Y1852469D01*
X236591Y1829314D01*
X254313Y1811592D01*
X277469Y1802000D01*
X302531D01*
X325686Y1811592D01*
X333784Y1819689D01*
X348784Y1813476D01*
Y1755000D01*
X351637Y1733333D01*
X360000Y1713142D01*
X373304Y1695804D01*
X390642Y1682500D01*
X410833Y1674137D01*
X432500Y1671284D01*
X454167Y1674137D01*
X474358Y1682500D01*
X491696Y1695804D01*
X505000Y1713142D01*
X513363Y1733333D01*
X516216Y1755000D01*
Y1875000D01*
X513363Y1896668D01*
X505000Y1916858D01*
X491696Y1934197D01*
X474358Y1947501D01*
X454167Y1955864D01*
X432500Y1958716D01*
D02*
G37*
G36*
X-432500D02*
X-454167Y1955864D01*
X-474358Y1947501D01*
X-491696Y1934197D01*
X-505000Y1916858D01*
X-513363Y1896668D01*
X-516216Y1875000D01*
Y1755000D01*
X-513363Y1733333D01*
X-505000Y1713142D01*
X-491696Y1695804D01*
X-474358Y1682500D01*
X-454167Y1674137D01*
X-432500Y1671284D01*
X-410833Y1674137D01*
X-390642Y1682500D01*
X-373304Y1695804D01*
X-360000Y1713142D01*
X-351637Y1733333D01*
X-348784Y1755000D01*
Y1813476D01*
X-333784Y1819689D01*
X-325686Y1811592D01*
X-302531Y1802000D01*
X-277469D01*
X-254313Y1811592D01*
X-236591Y1829314D01*
X-227000Y1852469D01*
Y1877531D01*
X-236591Y1900687D01*
X-254313Y1918409D01*
X-277469Y1928000D01*
X-302531D01*
X-325686Y1918409D01*
X-338923Y1905172D01*
X-354622Y1906729D01*
X-356144Y1907550D01*
X-360000Y1916858D01*
X-373304Y1934197D01*
X-390642Y1947501D01*
X-410833Y1955864D01*
X-432500Y1958716D01*
D02*
G37*
G36*
X-839060Y1875000D02*
X-860940D01*
X-881155Y1866626D01*
X-896627Y1851155D01*
X-905000Y1830940D01*
Y1809060D01*
X-896627Y1788845D01*
X-881155Y1773373D01*
X-860940Y1765000D01*
X-839060D01*
X-818845Y1773373D01*
X-803374Y1788845D01*
X-795000Y1809060D01*
Y1830940D01*
X-803374Y1851155D01*
X-818845Y1866626D01*
X-839060Y1875000D01*
D02*
G37*
G36*
X-639060Y1855000D02*
X-660940D01*
X-681155Y1846626D01*
X-696626Y1831155D01*
X-705000Y1810940D01*
Y1789060D01*
X-696626Y1768845D01*
X-681155Y1753373D01*
X-660940Y1745000D01*
X-639060D01*
X-618845Y1753373D01*
X-603373Y1768845D01*
X-595000Y1789060D01*
Y1810940D01*
X-603373Y1831155D01*
X-618845Y1846626D01*
X-639060Y1855000D01*
D02*
G37*
G36*
X-239049Y1654991D02*
X-260929D01*
X-281143Y1646617D01*
X-296615Y1631146D01*
X-304988Y1610931D01*
Y1589051D01*
X-296615Y1568836D01*
X-281143Y1553364D01*
X-260929Y1544991D01*
X-239049D01*
X-218834Y1553364D01*
X-203362Y1568836D01*
X-194989Y1589051D01*
Y1610931D01*
X-203362Y1631146D01*
X-218834Y1646617D01*
X-239049Y1654991D01*
D02*
G37*
G36*
X260929Y1652284D02*
X239049D01*
X218834Y1643911D01*
X203362Y1628439D01*
X194989Y1608225D01*
Y1586345D01*
X203362Y1566130D01*
X218834Y1550658D01*
X239049Y1542285D01*
X260929D01*
X281143Y1550658D01*
X296615Y1566130D01*
X304988Y1586345D01*
Y1608225D01*
X296615Y1628439D01*
X281143Y1643911D01*
X260929Y1652284D01*
D02*
G37*
G36*
X1110940Y1605000D02*
X1089060D01*
X1068845Y1596627D01*
X1053374Y1581155D01*
X1045000Y1560940D01*
Y1539060D01*
X1053374Y1518845D01*
X1068845Y1503374D01*
X1089060Y1495000D01*
X1110940D01*
X1131155Y1503374D01*
X1146627Y1518845D01*
X1155000Y1539060D01*
Y1560940D01*
X1146627Y1581155D01*
X1131155Y1596627D01*
X1110940Y1605000D01*
D02*
G37*
G36*
X460940Y1580000D02*
X439060D01*
X418845Y1571627D01*
X403374Y1556155D01*
X395000Y1535940D01*
Y1514060D01*
X403374Y1493845D01*
X418845Y1478373D01*
X439060Y1470000D01*
X460940D01*
X481155Y1478373D01*
X496627Y1493845D01*
X505000Y1514060D01*
Y1535940D01*
X496627Y1556155D01*
X481155Y1571627D01*
X460940Y1580000D01*
D02*
G37*
G36*
X-364060Y1430000D02*
X-385940D01*
X-406155Y1421627D01*
X-421627Y1406155D01*
X-430000Y1385940D01*
Y1364060D01*
X-421627Y1343845D01*
X-406155Y1328374D01*
X-385940Y1320000D01*
X-364060D01*
X-343845Y1328374D01*
X-328373Y1343845D01*
X-320000Y1364060D01*
Y1385940D01*
X-328373Y1406155D01*
X-343845Y1421627D01*
X-364060Y1430000D01*
D02*
G37*
G36*
X130940Y1025000D02*
X109060D01*
X88845Y1016627D01*
X73373Y1001155D01*
X65000Y980940D01*
Y959060D01*
X73373Y938845D01*
X88845Y923374D01*
X109060Y915000D01*
X130940D01*
X151155Y923374D01*
X166627Y938845D01*
X175000Y959060D01*
Y980940D01*
X166627Y1001155D01*
X151155Y1016627D01*
X130940Y1025000D01*
D02*
G37*
G36*
X-139060Y975000D02*
X-160940D01*
X-181155Y966626D01*
X-196626Y951155D01*
X-205000Y930940D01*
Y909060D01*
X-196626Y888845D01*
X-181155Y873373D01*
X-160940Y865000D01*
X-139060D01*
X-118845Y873373D01*
X-103373Y888845D01*
X-95000Y909060D01*
Y930940D01*
X-103373Y951155D01*
X-118845Y966626D01*
X-139060Y975000D01*
D02*
G37*
G36*
X834945Y500000D02*
X815054D01*
X796677Y492388D01*
X782612Y478323D01*
X775000Y459946D01*
Y440054D01*
X782612Y421677D01*
X796677Y407612D01*
X815054Y400000D01*
X834945D01*
X853323Y407612D01*
X867388Y421677D01*
X875000Y440054D01*
Y459946D01*
X867388Y478323D01*
X853323Y492388D01*
X834945Y500000D01*
D02*
G37*
G36*
X285940Y505000D02*
X264060D01*
X243845Y496627D01*
X228373Y481155D01*
X220000Y460940D01*
Y439060D01*
X228373Y418845D01*
X243845Y403374D01*
X264060Y395000D01*
X285940D01*
X306155Y403374D01*
X321626Y418845D01*
X330000Y439060D01*
Y460940D01*
X321626Y481155D01*
X306155Y496627D01*
X285940Y505000D01*
D02*
G37*
G36*
X635940Y505000D02*
X614060D01*
X593845Y496626D01*
X578373Y481155D01*
X570000Y460940D01*
Y439060D01*
X578373Y418845D01*
X593845Y403373D01*
X614060Y395000D01*
X635940D01*
X656155Y403373D01*
X671627Y418845D01*
X680000Y439060D01*
Y460940D01*
X671627Y481155D01*
X656155Y496626D01*
X635940Y505000D01*
D02*
G37*
G36*
X-17554Y467500D02*
X-37445D01*
X-55823Y459888D01*
X-69888Y445823D01*
X-77500Y427445D01*
Y407554D01*
X-69888Y389177D01*
X-55823Y375112D01*
X-37445Y367500D01*
X-22067D01*
X-16253Y365778D01*
X-8208Y355135D01*
Y343504D01*
X-596Y325127D01*
X13469Y311061D01*
X31846Y303449D01*
X51737D01*
X70114Y311061D01*
X84180Y325127D01*
X91792Y343504D01*
Y363395D01*
X84180Y381772D01*
X70114Y395837D01*
X51737Y403449D01*
X36358D01*
X30545Y405171D01*
X22500Y415814D01*
Y427445D01*
X14888Y445823D01*
X823Y459888D01*
X-17554Y467500D01*
D02*
G37*
G36*
X779946Y200000D02*
X760054D01*
X741677Y192388D01*
X727612Y178323D01*
X720000Y159946D01*
Y140054D01*
X727612Y121677D01*
X741677Y107612D01*
X760054Y100000D01*
X779946D01*
X798323Y107612D01*
X812388Y121677D01*
X820000Y140054D01*
Y159946D01*
X812388Y178323D01*
X798323Y192388D01*
X779946Y200000D01*
D02*
G37*
G36*
X360599Y149347D02*
X340707D01*
X322330Y141735D01*
X308265Y127670D01*
X300653Y109293D01*
Y89401D01*
X308265Y71024D01*
X322330Y56959D01*
X340707Y49347D01*
X360599D01*
X378976Y56959D01*
X393041Y71024D01*
X400653Y89401D01*
Y109293D01*
X393041Y127670D01*
X378976Y141735D01*
X360599Y149347D01*
D02*
G37*
G36*
X485940Y130000D02*
X464060D01*
X443845Y121626D01*
X428373Y106155D01*
X420000Y85940D01*
Y64060D01*
X428373Y43845D01*
X443845Y28373D01*
X464060Y20000D01*
X485940D01*
X506155Y28373D01*
X521626Y43845D01*
X530000Y64060D01*
Y85940D01*
X521626Y106155D01*
X506155Y121626D01*
X485940Y130000D01*
D02*
G37*
G36*
X734946Y-25000D02*
X715054D01*
X696677Y-32612D01*
X682612Y-46677D01*
X675000Y-65054D01*
Y-84946D01*
X682612Y-103323D01*
X696677Y-117388D01*
X715054Y-125000D01*
X734946D01*
X753323Y-117388D01*
X767388Y-103323D01*
X775000Y-84946D01*
Y-65054D01*
X767388Y-46677D01*
X753323Y-32612D01*
X734946Y-25000D01*
D02*
G37*
G36*
X485940Y-70000D02*
X464060D01*
X443845Y-78373D01*
X428374Y-93845D01*
X420000Y-114060D01*
Y-135940D01*
X428374Y-156155D01*
X443845Y-171627D01*
X464060Y-180000D01*
X485940D01*
X506155Y-171627D01*
X521627Y-156155D01*
X530000Y-135940D01*
Y-114060D01*
X521627Y-93845D01*
X506155Y-78373D01*
X485940Y-70000D01*
D02*
G37*
G36*
X-439060Y-95000D02*
X-460940D01*
X-481155Y-103373D01*
X-496627Y-118845D01*
X-505000Y-139060D01*
Y-160940D01*
X-496627Y-181155D01*
X-481155Y-196626D01*
X-460940Y-205000D01*
X-439060D01*
X-418845Y-196626D01*
X-403374Y-181155D01*
X-395000Y-160940D01*
Y-139060D01*
X-403374Y-118845D01*
X-418845Y-103373D01*
X-439060Y-95000D01*
D02*
G37*
G36*
X1034946Y-150000D02*
X1015054D01*
X996677Y-157612D01*
X982612Y-171677D01*
X975000Y-190054D01*
Y-209946D01*
X982612Y-228323D01*
X996677Y-242388D01*
X1015054Y-250000D01*
X1034946D01*
X1053323Y-242388D01*
X1067388Y-228323D01*
X1075000Y-209946D01*
Y-190054D01*
X1067388Y-171677D01*
X1053323Y-157612D01*
X1034946Y-150000D01*
D02*
G37*
G36*
X860940Y-220000D02*
X839060D01*
X818845Y-228374D01*
X803373Y-243845D01*
X795000Y-264060D01*
Y-285940D01*
X803373Y-306155D01*
X818845Y-321627D01*
X839060Y-330000D01*
X860940D01*
X881155Y-321627D01*
X896626Y-306155D01*
X905000Y-285940D01*
Y-264060D01*
X896626Y-243845D01*
X881155Y-228374D01*
X860940Y-220000D01*
D02*
G37*
G36*
X634946Y-250000D02*
X615054D01*
X596677Y-257612D01*
X582612Y-271677D01*
X575000Y-290054D01*
Y-309946D01*
X582612Y-328323D01*
X596677Y-342388D01*
X615054Y-350000D01*
X634946D01*
X653323Y-342388D01*
X667388Y-328323D01*
X675000Y-309946D01*
Y-290054D01*
X667388Y-271677D01*
X653323Y-257612D01*
X634946Y-250000D01*
D02*
G37*
G36*
X159946Y-375000D02*
X140054D01*
X121677Y-382612D01*
X107612Y-396677D01*
X100000Y-415054D01*
Y-434946D01*
X107612Y-453323D01*
X121677Y-467388D01*
X140054Y-475000D01*
X159946D01*
X178323Y-467388D01*
X192388Y-453323D01*
X200000Y-434946D01*
Y-415054D01*
X192388Y-396677D01*
X178323Y-382612D01*
X159946Y-375000D01*
D02*
G37*
G36*
X284616Y-375330D02*
X264724D01*
X246347Y-382942D01*
X232282Y-397007D01*
X224670Y-415384D01*
Y-435275D01*
X232282Y-453653D01*
X246347Y-467718D01*
X264724Y-475330D01*
X284616D01*
X302993Y-467718D01*
X317058Y-453653D01*
X324670Y-435275D01*
Y-415384D01*
X317058Y-397007D01*
X302993Y-382942D01*
X284616Y-375330D01*
D02*
G37*
G36*
X-514060Y-470000D02*
X-535940D01*
X-556155Y-478373D01*
X-571626Y-493845D01*
X-580000Y-514060D01*
Y-535940D01*
X-571626Y-556155D01*
X-556155Y-571626D01*
X-535940Y-580000D01*
X-514060D01*
X-493845Y-571626D01*
X-478373Y-556155D01*
X-470000Y-535940D01*
Y-514060D01*
X-478373Y-493845D01*
X-493845Y-478373D01*
X-514060Y-470000D01*
D02*
G37*
G36*
X310940Y-620000D02*
X289060D01*
X268845Y-628373D01*
X253373Y-643845D01*
X245000Y-664060D01*
Y-685940D01*
X253373Y-706155D01*
X268845Y-721626D01*
X289060Y-730000D01*
X310940D01*
X331155Y-721626D01*
X346626Y-706155D01*
X355000Y-685940D01*
Y-664060D01*
X346626Y-643845D01*
X331155Y-628373D01*
X310940Y-620000D01*
D02*
G37*
G36*
X-1088072Y-859400D02*
X-1111928D01*
X-1134970Y-865574D01*
X-1155630Y-877502D01*
X-1172498Y-894370D01*
X-1184426Y-915030D01*
X-1190600Y-938072D01*
Y-961927D01*
X-1184426Y-984970D01*
X-1172498Y-1005629D01*
X-1155630Y-1022498D01*
X-1134970Y-1034425D01*
X-1111928Y-1040600D01*
X-1088072D01*
X-1065030Y-1034425D01*
X-1044371Y-1022498D01*
X-1027502Y-1005629D01*
X-1015575Y-984970D01*
X-1009400Y-961927D01*
Y-938072D01*
X-1015575Y-915030D01*
X-1027502Y-894370D01*
X-1044371Y-877502D01*
X-1065030Y-865574D01*
X-1088072Y-859400D01*
D02*
G37*
%LPD*%
D43*
X-1100000Y-950000D02*
D03*
D44*
X-290000Y1865000D02*
D03*
X290000D02*
D03*
D45*
X432500Y1815000D02*
D03*
X-432500D02*
D03*
D46*
Y2235000D02*
D03*
X432500D02*
D03*
D47*
X-950000Y2000000D02*
D03*
X-360000Y-940000D02*
D03*
X-160000Y700000D02*
D03*
Y820000D02*
D03*
X-150000Y920000D02*
D03*
X120000Y970000D02*
D03*
X-860000Y2280000D02*
D03*
X-1040000D02*
D03*
X860000D02*
D03*
X-850000Y1820000D02*
D03*
X1040000Y2280000D02*
D03*
X1000000Y2150000D02*
D03*
X680000Y1800000D02*
D03*
X850000Y1820000D02*
D03*
X675000Y1675000D02*
D03*
X752944Y834548D02*
D03*
X320000Y-520000D02*
D03*
X-300000Y1275000D02*
D03*
X-375000Y1375000D02*
D03*
X450000Y1525000D02*
D03*
Y1050000D02*
D03*
X775000Y1125000D02*
D03*
X75000Y1975000D02*
D03*
X-575000Y1900000D02*
D03*
X-100000Y1925000D02*
D03*
X550000Y1175000D02*
D03*
X-650000Y1800000D02*
D03*
X-150000Y2250000D02*
D03*
X125000Y2300000D02*
D03*
X-250000Y2150000D02*
D03*
X250000Y2175000D02*
D03*
X-600000D02*
D03*
X875000Y1025000D02*
D03*
X1050000D02*
D03*
X1175000Y1050000D02*
D03*
Y800000D02*
D03*
Y550000D02*
D03*
X-875000Y2175000D02*
D03*
X-600000Y1625000D02*
D03*
X-975000Y1450000D02*
D03*
X-950000Y400000D02*
D03*
X-800000Y625000D02*
D03*
Y275000D02*
D03*
X820000Y1570000D02*
D03*
X975000Y1550000D02*
D03*
X1100000Y1550000D02*
D03*
X-1175000Y1425000D02*
D03*
Y1200000D02*
D03*
Y975000D02*
D03*
X-1025000Y925000D02*
D03*
X-800000Y1610000D02*
D03*
X0Y2200000D02*
D03*
X300000Y2325000D02*
D03*
X-300000D02*
D03*
X-475000Y2075000D02*
D03*
X-575000Y1475000D02*
D03*
X-375000D02*
D03*
X-400000Y1175000D02*
D03*
X140000Y1250000D02*
D03*
X240000Y1200000D02*
D03*
X450000Y350000D02*
D03*
X275000Y450000D02*
D03*
X-775000Y-150000D02*
D03*
X-1175000Y350000D02*
D03*
Y100000D02*
D03*
Y-150000D02*
D03*
X-875000Y100000D02*
D03*
X-1025000Y-300000D02*
D03*
X-775000Y-50000D02*
D03*
X550000Y1550000D02*
D03*
X1175000Y350000D02*
D03*
X475000Y550000D02*
D03*
X1050000Y-350000D02*
D03*
X1175000D02*
D03*
Y-575000D02*
D03*
X790000Y-570000D02*
D03*
X-600000Y1140000D02*
D03*
X625000Y-900000D02*
D03*
X500000Y-1025000D02*
D03*
X375000Y-900000D02*
D03*
X250000Y-1025000D02*
D03*
X1050000Y-475000D02*
D03*
Y-675000D02*
D03*
X-550000D02*
D03*
X-1175000Y-400000D02*
D03*
X-675000D02*
D03*
X-925000D02*
D03*
X-620000Y-600000D02*
D03*
X-812312Y-628610D02*
D03*
X-1090000Y-520000D02*
D03*
X-1175000Y-650000D02*
D03*
X-575000Y-1025000D02*
D03*
X-380000Y-350000D02*
D03*
X-280000Y-570000D02*
D03*
Y-480000D02*
D03*
X50000Y-570000D02*
D03*
Y-480000D02*
D03*
X775000Y-1025000D02*
D03*
X875000Y-900000D02*
D03*
X125000D02*
D03*
X0Y-1025000D02*
D03*
X-1070000Y-790000D02*
D03*
X-810000Y-840000D02*
D03*
X-550000Y-820000D02*
D03*
X-675000Y-900000D02*
D03*
X-925000D02*
D03*
X1000000Y-775000D02*
D03*
X1125000Y-900000D02*
D03*
X1000000Y-1025000D02*
D03*
X-90000Y-850000D02*
D03*
X-250000Y-1025000D02*
D03*
X-800000D02*
D03*
X360000Y1200000D02*
D03*
X1100000Y1175000D02*
D03*
X350000Y875000D02*
D03*
Y1597294D02*
D03*
X249989Y1597285D02*
D03*
X-249989Y1599991D02*
D03*
X-350000Y1600000D02*
D03*
X-1025000Y1800000D02*
D03*
Y600000D02*
D03*
X450000Y-250000D02*
D03*
X475000Y-125000D02*
D03*
X-575000Y475000D02*
D03*
X-525000Y-525000D02*
D03*
X300000Y-675000D02*
D03*
X725000Y-300000D02*
D03*
X925000Y450000D02*
D03*
X1120000Y-130000D02*
D03*
X625000Y450000D02*
D03*
X850000Y-275000D02*
D03*
X1050000Y25000D02*
D03*
X-450000Y-150000D02*
D03*
X1175000Y125000D02*
D03*
X475000Y75000D02*
D03*
Y175000D02*
D03*
X225000Y950000D02*
D03*
X200000Y825000D02*
D03*
D48*
X-27500Y417500D02*
D03*
X770000Y150000D02*
D03*
X41792Y353449D02*
D03*
X350653Y99347D02*
D03*
X-675000Y-1045000D02*
D03*
X625000Y-75000D02*
D03*
X725000D02*
D03*
X-100000Y1350000D02*
D03*
X274670Y-425330D02*
D03*
X625000Y-300000D02*
D03*
X150000Y-425000D02*
D03*
X125000Y0D02*
D03*
X0Y-125000D02*
D03*
X-125000Y0D02*
D03*
X0Y125000D02*
D03*
X125000Y-125000D02*
D03*
X-125000D02*
D03*
X125000Y125000D02*
D03*
X-125000D02*
D03*
X825000Y450000D02*
D03*
X1025000Y-200000D02*
D03*
X875000Y250000D02*
D03*
%TF.MD5,8b7e611b332bb518d2d8b0e64249fc8d*%
M02*
