<?xml version="1.0" encoding="UTF-8" standalone="no"?>
<!-- Created with Inkscape (http://www.inkscape.org/) -->

<svg
   version="1.1"
   id="svg2"
   width="377.95276"
   height="30.236219"
   viewBox="0 0 377.95276 30.236219"
   sodipodi:docname="txt.png"
   xmlns:inkscape="http://www.inkscape.org/namespaces/inkscape"
   xmlns:sodipodi="http://sodipodi.sourceforge.net/DTD/sodipodi-0.dtd"
   xmlns="http://www.w3.org/2000/svg"
   xmlns:svg="http://www.w3.org/2000/svg">
  <defs
     id="defs6" />
  <sodipodi:namedview
     id="namedview4"
     pagecolor="#505050"
     bordercolor="#eeeeee"
     borderopacity="1"
     inkscape:showpageshadow="0"
     inkscape:pageopacity="0"
     inkscape:pagecheckerboard="0"
     inkscape:deskcolor="#505050"
     showgrid="false" />
  <g
     inkscape:groupmode="layer"
     inkscape:label="Image"
     id="g8">
    <path
       style="fill:#000000;stroke-width:0.125984"
       d="m 302.98919,17.129914 -0.003,-7.3661349 -1.56764,-0.8555567 c -0.86218,-0.470556 -1.60122,-0.9099261 -1.64229,-0.9763779 -0.0471,-0.076099 1.35037,-0.1208213 3.77526,-0.1208213 h 3.84995 v 6.2067788 6.206779 l -1.41732,1.384818 c -0.77953,0.761649 -1.77166,1.72273 -2.20473,2.135734 l -0.7874,0.750915 -0.003,-7.366134 z M 99.905513,16.440944 V 10.07874 H 97.147207 94.388901 L 93.515437,9.1023618 C 93.035031,8.5653539 92.600481,8.0551177 92.549771,7.9685035 c -0.07343,-0.125412 1.859064,-0.1574803 9.490039,-0.1574803 5.27023,0 9.58224,0.048307 9.58224,0.1073483 0,0.059042 -0.39983,0.5692779 -0.88851,1.1338582 l -0.8885,1.0265103 H 107.08 104.31496 v 6.362204 6.362204 h -2.20472 -2.204727 z m 13.384827,-1.102362 0.0325,-7.4645666 2.17322,-0.034471 2.17323,-0.034471 v 3.2155736 3.215573 h 3.90551 3.90552 V 11.023622 7.8110232 h 2.20472 2.20473 v 7.4960628 7.496062 h -2.20473 -2.20472 V 19.59055 16.377952 h -3.90552 -3.90551 v 3.212598 3.212598 h -2.20572 -2.20572 z m 18.61517,0.02754 c 0,-5.8335352 0.034,-7.4500008 0.15748,-7.4972053 0.0866,-0.033099 3.86211,-0.045493 8.38998,-0.027542 l 8.2325,0.032638 -0.96638,1.1023621 -0.96638,1.1023622 h -5.15588 -5.15588 v 2.07874 2.07874 h 5.6063 5.60629 v 1.070866 1.070866 h -5.60629 -5.6063 v 2.141732 2.141732 l 5.19685,0.0094 5.19685,0.0094 0.85039,0.985762 c 0.46772,0.54217 0.85039,1.019843 0.85039,1.061496 0,0.04165 -3.74173,0.07573 -8.31496,0.07573 h -8.31496 v -7.437024 z m 25.32284,0.004 c 0,-4.088189 0.0329,-7.4330705 0.0732,-7.4330705 0.0402,0 2.0768,1.3024706 4.52566,2.8943795 2.44887,1.591908 4.50558,2.910018 4.57048,2.929134 0.0649,0.01911 2.03937,-1.20808 4.38773,-2.727098 2.34834,-1.5190187 4.39729,-2.8436492 4.55319,-2.9436233 l 0.28347,-0.1817711 v 7.4475604 7.447559 h -2.20473 -2.20472 v -4.281207 -4.281207 l -2.04724,1.296767 c -1.12599,0.713222 -2.19304,1.392416 -2.37123,1.509319 -0.32264,0.211669 -0.33376,0.206294 -2.67716,-1.294397 l -2.35319,-1.50695 v 4.278839 4.278836 h -2.26772 -2.26771 z m 23.21421,5.385029 -1.79365,-2.046446 -0.002,-5.448819 -0.002,-5.4488188 h 8.44095 8.44094 v 7.4960628 7.496062 l -6.64567,-7.55e-4 -6.64567,-7.56e-4 -1.79366,-2.046446 z m 10.64544,-5.416525 0.0329,-5.259842 h -4.03287 -4.03288 v 3.820246 3.820246 l 1.29075,1.473462 1.29076,1.473464 2.70924,-0.03387 2.70925,-0.03387 z m 6.20334,-0.0315 V 7.8110232 h 5.96473 c 5.52579,0 5.97841,0.016224 6.15084,0.2204725 0.10237,0.1212598 1.11355,1.6944881 2.24708,3.4960623 1.13351,1.801575 2.13962,3.399166 2.23579,3.550203 0.16326,0.256425 0.0178,0.521326 -2.19605,3.999911 l -2.37089,3.725299 -6.01575,8.9e-5 -6.01575,8.8e-5 z m 10.64514,2.709467 1.72785,-2.644861 -0.29673,-0.486957 c -0.1632,-0.267825 -0.92035,-1.457851 -1.68256,-2.6445 L 206.29921,10.08273 204,10.08073 l -2.29921,-0.002 v 5.207348 c 0,2.864043 0.0378,5.245145 0.084,5.291338 0.0462,0.0462 1.06046,0.08399 2.25392,0.08399 h 2.16993 z m 8.00053,-2.709467 V 7.8110232 h 2.20357 2.20357 l 0.0326,6.3937008 0.0326,6.3937 3.93585,0.03329 3.93586,0.03329 0.0326,-6.395494 0.0327,-6.3954936 2.17323,-0.034471 2.17323,-0.034471 v 7.4990376 7.499037 h -8.37796 -8.37795 z m 18.67617,0.0315 0.0325,-7.4645666 2.17207,-0.034466 2.17207,-0.034466 0.0327,6.3966706 0.0326,6.39667 4.94488,0.03296 c 2.71969,0.01813 4.94488,0.06731 4.94488,0.109294 0,0.04198 -0.40286,0.523216 -0.89523,1.069403 l -0.89524,0.993068 h -6.28687 -6.28686 z m 17.80493,5.380703 -1.83813,-2.083865 0.0328,-5.380702 0.0328,-5.3807026 8.40945,-0.032389 8.40945,-0.032389 v 7.4969556 7.496955 h -6.60417 -6.60417 z m 10.63701,-5.349207 V 10.07874 h -4.0315 -4.03149 v 3.778845 3.778846 l 1.32738,1.512493 1.32737,1.512492 h 2.70413 2.70411 z m 14.25722,7.322194 c 0.0231,-0.06098 2.16504,-3.434209 4.75988,-7.496062 l 4.71788,-7.3851868 h 1.50032 c 1.21787,0 1.48786,0.032462 1.43416,0.1724299 -0.0364,0.094836 -2.18262,3.4674419 -4.76939,7.4946789 l -4.70322,7.32225 -1.49081,0.0014 c -0.81995,7.56e-4 -1.47192,-0.04851 -1.44882,-0.109493 z m 7.92518,-1.996568 c -0.38664,-0.469067 -0.38712,-0.471614 -0.38712,-2.050036 0,-1.578421 0,-1.580968 0.38712,-2.050035 l 0.38713,-0.46965 2.22704,4e-6 2.22705,4e-6 0.34646,0.43421 c 0.33824,0.423918 0.34646,0.473348 0.34646,2.085467 0,1.61212 -0.008,1.66155 -0.34646,2.085468 l -0.34646,0.43421 -2.22705,4e-6 -2.22704,3e-6 z m 3.41399,-0.620743 c 0.19249,-0.17421 0.23038,-0.405983 0.23038,-1.409203 0,-1.059394 -0.0322,-1.235016 -0.27392,-1.492285 -0.33439,-0.355943 -1.15979,-0.401315 -1.51144,-0.08308 -0.1957,0.177118 -0.23039,0.410364 -0.23039,1.549606 0,0.875102 0.0525,1.393635 0.15119,1.492284 0.22985,0.22986 1.36066,0.190194 1.63418,-0.05732 z M 276.56015,14.19877 276.15748,13.783324 V 12.081752 10.38018 l 0.41545,-0.4026666 0.41544,-0.4026667 h 2.15418 2.15418 l 0.39101,0.4453283 0.391,0.445329 v 1.629028 1.629028 l -0.391,0.445327 -0.39101,0.44533 h -2.16695 -2.16697 z m 3.27246,-0.548962 c 0.32509,-0.294207 0.34239,-2.734514 0.0219,-3.088663 -0.30128,-0.332917 -1.14061,-0.308808 -1.51565,0.04354 -0.26516,0.249097 -0.29159,0.382556 -0.29159,1.472196 0,1.056895 0.0323,1.232667 0.27392,1.48985 0.33439,0.355943 1.15979,0.401315 1.51144,0.08308 z"
       id="path170" />
  </g>
</svg>
