<?xml version="1.0" encoding="UTF-8" standalone="no"?>
<!-- Created with Inkscape (http://www.inkscape.org/) -->

<svg
   version="1.1"
   id="svg2"
   width="615.14368"
   height="1314.3646"
   viewBox="0 0 615.14368 1314.3646"
   xml:space="preserve"
   xmlns="http://www.w3.org/2000/svg"
   xmlns:svg="http://www.w3.org/2000/svg"><defs
     id="defs6" /><g
     id="g8"
     transform="translate(-190.84809,-55.671098)"><path
       style="fill:#040404;stroke:none;stroke-width:0.32"
       d="m 273.48383,391.06636 h -0.64 c -5.48768,-11.2864 -13.26208,-21.28512 -19.22848,-32.32 -8.2768,-15.30752 -14.49632,-31.82047 -19.91584,-48.32 -2.31712,-7.05408 -4.42528,-14.37792 -5.35296,-21.75999 -0.2976,-2.36737 -0.98432,-6.28929 0.54272,-8.3696 1.064,-1.44928 3.59328,-1.88256 5.23456,-2.27616 5.2112,-1.24865 10.67872,-1.192 16,-1.19425 6.82816,-0.003 10.64128,-5.45696 16.96,-6.57472 4.32,-0.76416 9.42848,-0.23264 13.76,0.25952 1.88736,0.2144 4.42336,1.13505 6.2832,0.54241 5.25568,-1.67392 -0.0822,-8.11169 3.04384,-10.61505 5.29088,-4.23712 14.47072,-5.8048 14.67296,-14.01216 -9.94624,-9.6e-4 -19.84384,-2.21184 -29.12,-5.74464 -4.00736,-1.52608 -8.32128,-5.25824 -12.48,-5.88512 -2.26176,-0.34111 -4.8272,0.56928 -7.04,0.98656 -5.59936,1.05568 -11.03584,2.72672 -16.64,3.79104 -4.00288,0.76032 -8.2448,-0.0672 -12.16,1.184 -10.07683,3.22048 -20.76694,10.13216 -28.47997,17.25888 -2.78851,2.57664 -6.41844,5.7968 -7.62846,9.52928 -1.04274,3.21632 0.04,7.85377 0.22114,11.2 0.67131,12.39905 4.1423,23.69952 7.93894,35.52 5.10921,15.90721 11.01603,31.57888 15.49491,47.68 3.74003,13.4464 6.1655,27.8688 10.93376,40.96001 3.04192,8.35199 8.0032,16.7808 12.67168,24.32 3.8656,6.2432 8.90624,11.55199 13.04512,17.59999 3.33408,4.8704 4.9888,11.7952 8.77536,16.15041 3.4384,3.95199 11.44864,4.6368 16.30752,5.11039 1.75648,0.1728 4.05792,0.62401 5.76,0.032 4.17024,-1.4496 8.2784,-7.4304 11.52,-10.4128 -13.58912,35.5072 -22.44384,72.56641 -33.78016,108.79681 -2.0624,6.59199 -11.0704,2.2016 -13.48832,7.43679 -2.44864,5.30241 -2.53888,12.43521 -3.1136,18.1664 -1.4512,14.4704 -1.66336,29.32161 -0.86496,43.84 0.35616,6.47681 0.49664,13.20961 2.1536,19.52 1.376,5.24161 4.34464,9.6224 3.94592,15.29281 -0.31072,4.41919 -3.92896,9.23839 -5.78464,13.18719 -0.70592,1.50081 -2.20032,3.7152 -1.72864,5.44001 1.29536,4.7328 9.64192,7.2736 13.6208,8.95999 -16.74368,16.74241 -32.76189,34.2368 -47.48429,52.80001 -3.47683,4.38399 -6.91888,8.832 -10.09286,13.43999 -1.52499,2.21441 -3.19837,4.528 -2.64915,7.36 0.99449,5.1264 5.48272,10.112 8.26435,14.4 2.47747,3.82081 4.94742,7.6448 7.33638,11.52001 1.2417,2.016 2.29392,4.47359 4.12474,6.03199 3.99837,3.3984 9.98403,5.4592 14.90083,7.088 11.30656,3.744 23.20384,5.42081 34.56,9.06881 6.7696,2.1728 13.46976,4.4928 20.16,6.9024 2.14208,0.7712 6.05568,1.37599 7.35328,3.42079 1.11648,1.76 1.20096,4.51521 1.58336,6.52801 0.77408,4.07679 1.70912,8.1344 2.7152,12.15999 3.62944,14.5184 7.13344,28.752 9.65536,43.52 0.93088,5.44961 2.024,10.8736 2.98048,16.32001 0.57184,3.2544 0.77344,6.93759 2.28032,9.91999 8.24576,16.3104 19.59136,30.91201 28.0528,47.04001 4.44064,8.46399 8.50656,17.12 12.24224,25.92 2.75808,6.49601 5.1248,13.37283 8.62272,19.52003 1.84608,3.2416 5.21184,4 7.45248,6.752 3.47712,4.2687 5.59808,10.3999 8.01696,15.3279 7.3664,15.0112 13.02112,31.0208 18.71616,46.72 7.37856,20.3424 14.50368,40.8 21.01056,61.44 4.99616,15.8464 9.94112,31.6896 14.46176,47.68 2.78496,9.8496 6.09248,20.1696 7.05088,30.4 0.23008,2.4544 -0.63264,4.6304 -0.77728,7.04 -0.1584,2.6432 0.26208,5.344 0.26272,8 l -8.64,-1.6 c -0.60416,2.2592 -1.87904,4.6848 -1.92448,7.04 -0.055,2.8704 1.63136,6.1344 2.23488,8.96 1.36448,6.384 2.4752,12.8256 3.88576,19.2 0.70752,3.1968 2.1168,6.576 2.38368,9.8304 0.25216,3.0752 -1.78752,6.8096 -2.73856,9.6896 -1.56992,4.752 -1.9664,10.1504 -3.85472,14.72 -1.98144,4.7936 -5.44384,9.1456 -8.30656,13.44 -1.31072,1.9648 -2.54848,4.5024 -4.57184,5.8304 -5.23136,3.4304 -11.536,5.3408 -16.86816,8.8896 -1.6736,1.1136 -4.14976,2.2464 -5.21376,4.0192 -1.13952,1.8976 -0.61408,5.3696 -0.49888,7.5008 0.26528,4.9056 0.13184,9.824 0.50272,14.72 0.19072,2.5184 -0.0486,4.8384 1.48512,7.0176 4.25504,6.0416 13.6176,7.1904 20.3648,7.8432 8.75328,0.8512 21.27488,-0.2304 29.12,-4.544 3.78592,-2.08 6.89856,-6.016 9.92,-9.0368 7.27936,-7.28 13.9776,-15.0176 20.42848,-23.04 4.31616,-5.3664 4.70912,-13.104 9.69216,-17.8272 4.45472,-4.224 10.89216,-6.0992 15.95935,-9.4912 4.73408,-3.168 7.23712,-7.1296 10.37056,-11.7216 3.61344,-5.296 7.57184,-10.8256 7.56224,-17.6 -0.0128,-9.9648 -8.65312,-14.9088 -13.13504,-22.72 -1.71552,-2.9888 -2.86816,-6.1696 -4.94912,-8.96 -2.45855,-3.2992 -5.75871,-6.1152 -7.48191,-9.92 -1.12096,-2.4736 -0.78048,-5.1072 -1.4176,-7.68 -1.06272,-4.2944 -3.3616,-8.9696 -5.61984,-12.7616 -1.97824,-3.3216 -6.21408,-3.1328 -8.69792,-5.7632 -1.54432,-1.6352 -1.67232,-4.4064 -2.46208,-6.4352 -1.41856,-3.6448 -3.59072,-6.7744 -4.7648,-10.56 -6.38016,-20.5664 -8.32992,-42.7456 -11.19264,-64 -2.46528,-18.304 -6.18432,-36.384 -8.47168,-54.72 -2.43744,-19.536 -4.3968,-39.3536 -10.24256,-58.2399 -8.1088,-26.19843 -19.30848,-52.13763 -33.08288,-75.84003 -9.26464,-15.94241 -22.46688,-31.00801 -28.43616,-48.64 -1.67488,-4.94721 -1.01536,-11.7504 -1.1984,-16.96001 -0.3184,-9.08159 -1.17728,-18.14399 -1.90016,-27.2 28.06016,8.18881 56.37888,16.2912 82.88,28.89921 5.01504,2.3872 10.0544,4.73919 15.04,7.184 2.13248,1.0496 5.10336,1.9712 6.70624,3.7824 1.77632,2.0096 2.78624,5.536 3.21376,8.13439 -4.69184,-1.2032 -6.48192,4.66241 -4.57376,8.272 1.79232,3.392 6.18944,6.52161 9.05312,9.02401 1.44896,1.264 3.65248,2.6304 3.58144,4.79679 -0.0794,2.4256 -1.32832,4.94721 -1.76352,7.3472 -1.3952,7.69601 -3.87968,13.6704 -7.04256,20.8 -1.27328,2.8704 -2.0672,5.9776 -3.75584,8.64001 -3.98976,6.2944 -10.3584,11.35679 -11.96352,18.88 -1.44256,6.76159 -2.01376,19.21279 2.1888,24.95361 4.48896,6.13122 13.19232,7.85602 20.35584,7.99362 9.8832,0.1888 21.92671,-2.9024 30.07999,-8.64002 4.2272,-2.97281 7.8944,-7.51361 11.1296,-11.50721 2.9952,-3.69921 6.624,-8.1984 8.0896,-12.8 1.0752,-3.37601 1.0016,-7.3664 1.3152,-10.88 0.6688,-7.52961 1.0816,-15.36 2.88002,-22.72 1.504,-6.1536 5.6576,-11.2384 7.3152,-17.28 1.5744,-5.744 0.7296,-12.64321 0.9824,-18.56001 0.1504,-3.51679 1.0208,-7.7632 0.026,-11.2 -1.4272,-4.92479 -4.896,-10.31999 -7.5456,-14.7008 -2.27842,-3.76639 -7.07842,-4.27839 -10.34562,-6.8544 -2.5664,-2.0256 -2.6752,-5.7472 -5.2704,-7.88479 -5.2736,-4.34241 -14.5536,-4.9984 -21.056,-6.21441 -3.352,-0.6272 -5.78656,2.55681 -8.95999,1.28321 -12.77632,-5.1232 -25.1472,-12.31681 -37.12,-19.06241 -19.91584,-11.22559 -38.8128,-22.8736 -57.28,-36.3424 -6.86144,-5.00159 -13.83296,-9.8336 -20.8,-14.68799 -2.44096,-1.70241 -7.0064,-3.81761 -8.22656,-6.65601 -0.7632,-1.776 -0.0973,-4.41919 -0.0938,-6.31999 0.01,-5.64801 0.288,-11.32161 0.59296,-16.96001 0.39808,-7.35679 0.49472,-14.7232 0.96416,-22.07999 0.16544,-2.592 -0.20992,-6.84801 1.25472,-9.08801 1.2336,-1.88479 4.7904,-2.46399 6.78848,-3.18719 5.792,-2.0992 11.5344,-4.33281 17.28,-6.55361 3.9648,-1.5328 8.00672,-3.62879 12.16,-4.57279 9.0288,-2.0512 18.68512,-2.12801 27.84,-3.68961 14.2512,-2.432 28.10304,-6.16639 41.6,-11.36 9.57472,-3.68639 19.71519,-7.65119 28.47999,-13.02719 3.6768,-2.25601 7.9424,-5.4336 8.7744,-9.96161 1.0656,-5.81119 -5.4432,-9.0176 -9.0944,-12.51199 -6.13344,-5.87201 -11.71583,-12.46081 -16.47903,-19.48801 -1.74112,-2.5696 -4.12256,-5.39199 -5.18528,-8.32 -1.84064,-5.07199 0.67104,-11.06239 -0.5552,-16.31999 -2.89824,-12.42561 -7.0608,-24.69441 -11.0592,-36.80001 -2.45216,-7.424 -4.49984,-15.31839 -7.85984,-22.39679 -2.26368,-4.768 -7.77376,-2.6656 -11.98144,-2.144 -1.79136,0.22399 -3.85952,0.7776 -5.12224,-0.8736 -2.75712,-3.6064 -4.44928,-8.60801 -6.47776,-12.6656 -1.35264,-2.704 -3.35744,-5.6384 -3.91232,-8.64 -0.90304,-4.88641 0.26272,-10.1024 -0.23104,-15.04 -0.32256,-3.2256 -3.29856,-5.41761 -3.50944,-8.64 -0.27264,-4.15681 0.55168,-8.6528 0.93024,-12.8 0.93152,-10.21121 2.43712,-20.26241 3.92256,-30.40001 h 0.32 c 4.60672,19.04 20.20256,35.0528 38.08,42.29761 4.1168,1.6704 8.39264,2.74239 12.8,3.27999 4.06336,0.4928 9.07871,0.7008 11.92127,4.08961 2.74464,3.2704 2.72992,8.67519 2.79136,12.7328 0.15936,10.4864 -0.46176,21.4112 -4.03136,31.36 -1.25216,3.488 -2.91328,6.7328 -4.79072,9.91999 -0.65183,1.10721 -2.03199,2.8992 -1.53183,4.27841 0.5296,1.456 2.64383,0.71359 3.64159,0.3296 3.40704,-1.312 6.50624,-3.48801 9.27968,-5.82721 9.2192,-7.77919 19.3504,-19.63199 21.76,-31.74079 4.5824,4.5952 9.49436,10.7616 10.96636,17.28 1.248,5.5168 0.2336,12.26879 0.2336,17.91999 3.792,-0.3424 5.9168,-3.0272 7.84,-6.07999 3.8176,-6.06081 8.224,-15.48481 5.7696,-22.72 -2.7072,-7.97441 -9.4752,-14.95041 -16.1696,-19.7696 -2.60476,-1.87521 -7.94236,-3.28321 -9.63196,-5.96161 -1.1104,-1.7632 -1.2864,-4.2752 -1.7728,-6.2688 -0.944,-3.87519 -2.0672,-7.70559 -3.2384,-11.52 -3.8208,-12.4448 -8.192,-24.6048 -13.5168,-36.48 l 41.27996,30.12801 12.16,8.4192 5.5424,4.7072 0.8576,6.66559 v 12.48001 c 4.32,-0.45441 7.008,-4.47681 8.9792,-8 1.6352,-2.92481 3.8624,-6.832 4.0896,-10.24001 0.1344,-2.03519 -0.912,-4.18879 -1.552,-6.07999 -1.904,-5.62561 -4.7392,-10.81281 -8.576,-15.36 -12.896,-15.28641 -32.432,-25.24801 -49.34076,-35.392 -7.2352,-4.34241 -17.14304,-8.5408 -22.54368,-15.1744 -3.26176,-4.00961 -3.89664,-10.4864 -5.20767,-15.35361 -3.49536,-12.9792 -6.31552,-26.40319 -8.40864,-39.68 h 0.32 c 1.00064,2.15361 2.1824,5.1552 4.09376,6.6528 1.78848,1.39841 4.12255,0.8672 5.48511,3.01441 10.06176,15.84639 20.14912,30.21119 33.28192,43.77279 3.808,3.936 7.35036,9.41441 11.87196,12.5152 3.3408,2.2912 9.0656,0.49921 12.4672,-0.816 1.9168,-0.73919 4.2592,-2.3232 6.0832,-0.6432 3.824,3.52 6.6368,8.82881 9.8176,12.944 6.016,7.7856 12.6304,15.3024 19.9392,21.9008 3.9712,3.58401 8.5952,8.49921 14.08,9.4592 -0.08,14.05121 -9.6256,27.00481 -15.7728,39.04001 -2.0384,3.99359 -4.9152,8.33919 -5.6672,12.8 5.984,-1.2864 10.88,-7.456 16,-10.6304 1.776,-1.09761 5.008,-1.97761 6,-3.93601 1.52,-3.0048 0.4448,-8.5952 0.9088,-11.9936 1.1072,-8.144 3.4624,-16 5.2512,-24 6.768,1.36 13.2064,3.2352 19.2,6.7424 3.6704,2.1504 7.3856,6.368 11.52,7.4304 5.2736,1.3536 11.8432,0.6656 17.28,0.84801 2.5088,0.0832 5.7408,-0.1696 7.8656,1.4336 2.8512,2.1472 1.7344,7.936 1.7344,11.0656 6.7872,-0.0128 11.1008,-4.46081 15.0656,-9.60001 1.3024,-1.69279 3.2288,-3.63199 3.7408,-5.76 0.4064,-1.69919 -0.1984,-3.70239 -0.2464,-5.44 h 0.32 c 0.5728,1.3056 3.2576,7.8752 5.504,5.1008 0.9952,-1.232 0.3008,-3.42719 -0.032,-4.7808 -1.0048,-4.1216 -2.4256,-8.1408 -3.7664,-12.15999 -6.08,-18.2464 -15.2544,-33.65761 -27.7216,-48.32001 -12.048,-14.16639 -25.7984,-26.5984 -40.224,-38.27839 -4.5568,-3.68641 -9.392,-7.04641 -14.08,-10.56 -1.8976,-1.424 -5.0368,-3.0368 -6.1568,-5.20001 -0.9376,-1.81759 0.9632,-4.56 1.7952,-6.1216 2.5024,-4.68576 5.8112,-9.46496 6.9216,-14.72 13.712,13.6352 28.7648,25.27681 46.08,34 9.12,4.592 18.3232,8.9952 27.52,13.4272 4.8224,2.3232 10.7776,4.4992 14.9248,7.9264 4.1024,3.3888 7.2128,9.35681 10.1408,13.7664 5.8464,8.8096 11.056,18.1792 15.36,27.84001 2.0064,4.50239 4.3392,9.5072 5.1552,14.39999 1.6736,10.0288 0.1792,21.5072 0.1792,31.68 7.9488,-0.5376 10.912,-10.74879 15.68,-15.68 1.2256,8.384 7.184,0.2528 6.9056,-4.48 -1.1296,-19.3056 -11.2512,-36.2048 -23.1712,-50.88 -21.5712,-26.56 -49.824,-47.6896 -78.1344,-66.56 -9.9968,-6.66463 -21.6224,-12.28256 -30.6624,-20.22655 -2.1664,-1.90401 -1.312,-3.94977 -0.4608,-6.33345 1.4528,-4.08511 3.1232,-8.09088 4.6208,-12.16 0.5888,-1.6032 0.944,-3.88384 2.0832,-5.19551 2.1504,-2.47041 7.6448,3.41055 8.9632,4.88288 6.64,7.42111 9.7088,18.52351 14.4352,27.19263 5.1392,9.4176 11.4624,18.11521 20.2208,24.48001 9.3728,6.8096 20.448,10.48639 30.08,16.90879 10.5888,7.05601 21.2928,16.8768 34.56,18.1312 9.184,0.86721 20.144,-3.87839 28.8,-6.47999 10.8192,-3.25121 22.7232,-6.39041 31.68,-13.52961 3.2992,-2.6304 7.664,-5.8816 8,-10.3904 -17.3792,3.7952 -35.0336,5.9136 -52.8,5.152 -5.2448,-0.224 -10.8192,-0.0512 -16,-0.94079 -4.5344,-0.7776 -9.0784,-2.86401 -13.44,-4.3168 -12.032,-4.01601 -24,-8.83841 -34.24,-16.47008 -17.2832,-12.88096 -31.6032,-31.53281 -43.52,-49.34433 7.3984,1.83008 14.4,6.18272 21.44,9.07936 16.4544,6.77121 33.392,12.82497 50.88,16.32864 5.92,1.18624 12.5056,3.07297 18.56,3.01888 14.1856,-0.12704 28.1056,-0.77632 41.92,-4.08223 3.8816,-0.92897 13.6352,-3.09185 10.4736,-9.20993 -0.8896,-1.72543 -3.0208,-1.8448 -4.7136,-2.16287 -3.12,-0.58593 -6.656,-1.17441 -9.28,-3.05185 5.3344,0 14.4992,0.49665 18.9248,-3.10912 0.9856,-0.80128 1.264,-2.2496 1.9232,-3.29248 1.1264,-1.77696 2.6592,-3.28927 4.1056,-4.79839 2.0704,-2.15521 4.2976,-4.53089 5.4048,-7.35969 0.4352,-1.11584 0.7648,-2.82367 -0.4992,-3.552 -1.2928,-0.74463 -3.2928,0.20865 -4.5792,0.57953 -3.7408,1.07871 -7.472,2.1936 -11.2,3.30784 -13.9968,4.18271 -28.3104,8.27455 -42.88,9.79296 -16.3552,1.70463 -32.3584,-0.75937 -48.32,-4.29793 -19.0592,-4.22528 -37.7632,-10.09472 -55.04,-19.27072 5.0464,-4.63839 11.2384,-6.17984 17.28,-8.98527 8.0416,-3.73377 15.2512,-10.07777 24.96,-7.77056 2.032,0.48288 3.5712,2.08736 5.44,2.94592 2.544,1.16864 5.4176,1.31264 8,2.45919 4.2432,1.88384 8.0448,4.82753 12.8,5.38976 2.3552,0.2784 4.3936,-1.03807 6.72,-0.97471 2.9216,0.0793 14.6272,2.61376 11.9936,-4.26304 -0.48,-1.25728 -1.392,-2.36577 -2.0736,-3.52128 1.4976,-0.21025 4.688,-0.672 4,-2.91712 -0.8608,-2.80192 -5.0656,-4.67264 -7.2,-6.41089 -5.7536,-4.68288 -10.5312,-10.392 -16.64,-14.64544 -4.5568,-3.17216 -9.056,-4.20608 -14.08,-6.19072 -6.944,-2.74368 -13.5904,-5.62879 -20.8,-7.68735 -3.4944,-0.99745 -8.8512,-3.57121 -12.48,-2.89377 -2.8576,0.53312 -5.744,2.72416 -8.32,4.02784 -6.8224,3.45312 -13.4976,7.27488 -19.84,11.54816 -4.2528,2.86496 -9.3536,6.0336 -12.1408,10.45024 -2.1568,3.41697 -4.1248,7.52096 -5.8176,11.19904 -0.7168,1.56128 -0.9664,3.57952 -2.032,4.94401 -1.4528,1.86016 -3.4624,0.69247 -4.9696,-0.41857 -14.0992,-10.38655 -22.6176,-26.06752 -30.224,-41.32544 -1.696,-3.40704 -3.9808,-6.49344 -5.6544,-9.92 -4.6784,-9.57696 -8.5824,-19.41536 -13.6928,-28.8 -9.3216,-17.12576 -21.57116,-31.81536 -32.73916,-47.68 -7.12,-10.11552 -12.7392,-21.19935 -19.28032,-31.67999 -4.53248,-7.26304 -10.11487,-13.85473 -14.58047,-21.12001 -1.2416,-2.02016 -3.00672,-4.700484 -3.46208,-7.040004 -0.97952,-5.030716 0.87584,-11.079356 0.41856,-16.319996 -0.21056,-2.414208 0.76384,-6.941632 -1.06976,-8.792032 -6.37664,-6.435168 -15.15168,3.119936 -21.79552,-0.931488 -7.08448,-4.320064 -15.3872,-9.640768 -23.36,-12.064138 -3.22528,-0.98031 -6.90144,-1.004374 -10.24,-1.397654 -18.21792,-2.146093 -34.04512,2.4464 -50.56,9.794688 -3.62656,1.613664 -10.19424,-0.835712 -13.08672,1.631488 -1.43808,1.2264 -1.952,3.696416 -2.71936,5.359136 -1.2624,2.735552 -2.89504,5.301888 -4.74016,7.68 -7.68352,9.90368 -14.84576,18.874236 -20.12192,30.4 -7.84672,17.14208 -11.17536,36.01057 -17.48704,53.76001 -3.3904,9.53535 -6.3536,19.21023 -9.5792,28.79999 -2.70592,8.04448 -5.75744,15.45024 -6.41568,24 -0.2368,3.07904 -0.74432,6.5376 -0.2576,9.6 1.57504,9.91104 8.1984,19.9248 14.39744,27.52 2.89824,3.55104 6.1696,6.98304 9.77024,9.82976 1.06656,0.8432 3.70784,2.1184 3.70784,3.70176 0,1.45248 -1.82848,2.82177 -2.74944,3.74848 -2.40512,2.42112 -5.25088,4.74177 -7.04064,7.68001 -4.49024,7.37183 -6.792,16.19488 -11.60288,23.35999 -3.9616,5.90017 -10.34688,9.97728 -14.14496,16 -2.69792,4.27841 2.2928,6.39552 1.47392,10.24 -1.01504,4.7664 -7.11328,8.01056 -8.68512,12.80001 -1.09248,3.32895 3.0208,5.83776 2.05792,9.27999 -4.06272,14.52609 -14.5984,26.3328 -20.93664,39.68 m 144.64,-322.88 c -1.35008,3.171008 -4.71584,3.181952 -7.68,3.986944 -7.0032,1.901888 -14.19872,5.225152 -21.44,5.933056 1.55776,-2.512672 5.34272,-2.937504 8,-3.664224 7.06304,-1.931712 13.99776,-4.59696 21.12,-6.255776 m 17.28,3.2 -16,-2.56 c 3.99136,-1.729696 13.29152,-1.071872 16,2.56 m -53.12,-2.24 0.96,4.8 -5.76,-4.48 4.8,-0.32 m -0.32,18.24 c -1.06592,-1.845536 -3.74688,-8.07392 -6.5728,-7.236096 -1.48928,0.441472 -1.33536,2.556576 -1.07808,3.71616 0.61312,2.763232 4.61216,8.708416 -1.23872,8.957056 -2.14848,0.09152 -2.50656,-2.9248 -2.74304,-4.47712 -0.69152,-4.540704 -1.37344,-9.169376 -1.6112,-13.75968 -0.10368,-2.005792 0.62688,-4.144544 3.0192,-3.99056 5.8128,0.37424 18.74784,12.535936 10.22464,16.79024 m 52.16,-13.76 -17.92,1.28 -0.32,-0.32 c 2.68544,-3.442176 8.26848,-2.56 12.16,-2.56 v -0.32 l -5.12,-0.96 c 3.85056,-0.927904 8.74336,-0.508192 11.2,2.88 m 42.88,-1.28 v 0.32 l -12.16,8.32 c -0.34112,-4.332352 -3.9216,-4.009536 -7.36,-4.489216 -6.55168,-0.913984 -13.00128,-2.704128 -19.52,-3.830784 v -1.6 l 16,2.898272 10.56,1.864608 12.48,-3.48288 m 8.64,21.759996 c -5.36064,-2.710076 -2.1984,-6.318076 -3.01152,-10.863676 -0.4864,-2.72032 -2.94112,-2.15648 -4.66848,-0.950848 -0.67264,0.469376 -1.29696,1.00656 -1.91264,1.546784 -1.03712,0.909696 -1.99104,1.860544 -2.88736,2.907744 l -7.04,-3.52 c 3.62592,-3.653216 8.25248,-6.849312 12.8,-9.258592 1.54048,-0.81616 3.84224,-2.262272 5.6448,-1.502976 1.92608,0.811264 1.77248,3.596032 1.9184,5.321568 0.44,5.201088 0.6448,11.27968 -0.8432,16.319996 m -110.72,-11.519996 c 1.60736,-0.01658 5.68288,1.915168 4.44768,4.159936 -0.96736,1.757504 -3.21728,-1.104768 -3.63296,-1.911808 -0.36832,-0.714912 -0.58784,-1.480928 -0.81472,-2.248128 m 106.24,-0.32 -1.6,7.04 h -0.64 c -2.26528,-3.351392 -1.04864,-5.142592 2.24,-7.04 m -34.56,69.76 c 2.59968,5.62433 7.32352,6.792 13.12,5.74528 4.6288,-0.83616 9.96512,-3.21472 12.3104,2.91361 1.1648,3.04383 0.824,6.7072 0.80832,9.90111 -0.005,1.06496 0.21184,2.92224 -0.74432,3.67872 -1.20544,0.9536 -4.29056,-1.9568 -5.97536,-1.90464 -6.46496,0.19968 -14.52864,1.65536 -18.6224,7.19041 -3.62304,4.89855 1.62976,12.23551 6.78336,13.54175 6.74144,1.70817 12.5936,-1.80288 17.6,-5.54624 -1.74656,21.93408 -8.99776,39.65472 -27.84,52.36896 -4.75456,3.20832 -9.88864,6.95361 -15.68,7.88032 -7.80512,1.24928 -15.58592,-4.00704 -21.76,-8.09152 -7.44672,-4.9264 -15.83136,-10.13375 -20.59904,-17.91776 -5.23712,-8.55136 -5.15872,-20.65664 -5.32096,-30.4 l 3.84,0.32 -0.64,-12.48 c 3.29408,3.2432 4.49632,9.02528 8.64992,11.1968 5.99424,3.13441 13.48896,2.13984 19.83008,0.7248 4.52288,-1.00928 8.40256,-4.32384 7.008,-9.6816 -1.968,-7.55968 -14.57472,-8.72 -20.768,-8.97664 -2.21568,-0.0918 -4.58336,-0.65599 -6.72,0.1808 -3.328,1.30336 -5.43616,4.30977 -8.32,6.23584 -2.71648,-7.78528 2.8272,-18.26144 5.12,-25.6 5.54016,1.85696 11.57344,1.24992 16.96,3.0512 3.43072,1.1472 6.80448,4.90016 10.56,4.6544 2.80704,-0.18368 5.464,-1.72256 7.68,-3.34016 1.22976,-0.89792 2.76288,-2.54848 4.38432,-2.61408 2.01216,-0.0816 1.69056,3.04705 1.69568,4.32865 3.68448,-0.0611 12.32096,0.792 14.98016,-2.20833 1.15712,-1.3056 1.104,-3.54816 1.65984,-5.15168 m -54.98912,6.65568 c -1.78784,1.27776 0.29824,2.86945 1.56448,3.24384 2.92544,0.86464 6.0128,0.9536 8.94464,1.87232 4.26688,1.33696 8.13248,3.51552 12.16,5.40672 1.63616,0.76832 5.3504,2.73024 7.04,1.23872 2.41376,-2.13088 -3.79584,-5.17856 -5.12,-5.80896 -5.75616,-2.73888 -11.94048,-4.7232 -18.24,-5.7216 -1.6048,-0.2544 -4.91328,-1.25728 -6.34912,-0.23104 m 53.70912,13.82432 c 7.39904,-1.5312 13.832,-6.83167 21.44,-7.36 -5.54816,-2.256 -11.95392,-1.30688 -16.96,1.86592 -2.08928,1.32416 -4.28928,2.86304 -4.48,5.49408 m 37.76,-4.48 -0.32,0.32 0.32,-0.32 m -15.04,19.2 c 0.7696,-4.72416 0.35648,-8.40672 -2.24,-12.48 5.64032,0.58977 6.95104,9.84129 2.24,12.48 m -71.04,-12.16 c 0.2624,1.32576 1.784,2.57792 1.76352,3.83552 -0.0211,1.31265 -1.98016,1.8144 -2.4384,3.00128 -0.96544,2.49984 0.53056,5.54304 1.31488,7.8832 -6.088,-1.78432 -14.43424,-11.16799 -4.48064,-14.3984 1.22656,-0.3984 2.56832,-0.31872 3.84064,-0.3216 m -40,1.92 c 1.59168,6.1152 2.45472,12.88256 2.56,19.2 -1.16192,-1.45632 -1.44,-3.34624 -1.87872,-5.12 -1.0368,-4.19136 -3.47424,-10.18944 -0.68128,-14.08 m 56.64,0.64 c 1.31936,1.19681 2.90592,2.41728 3.50336,4.16416 1.08128,3.16096 -0.8112,6.81696 -4.14336,7.03584 l -0.32,-4.48 c 2.01152,-1.92031 0.7712,-4.29343 0.96,-6.72 m 38.4,0 2.56,2.24 c -4.84256,2.05312 -2.89696,5.05824 -2.24,9.28 -5.42496,-1.9696 -4.83168,-8.89792 -0.32,-11.52 m -122.24,6.72 c 0.98912,5.01952 0.93344,10.28416 1.6464,15.36 1.36576,9.71872 3.432,19.31072 5.92288,28.8 1.2704,4.84032 2.73984,9.6384 4.27712,14.4 0.96448,2.9872 2.38624,6.08928 1.9136,9.28 -5.46816,-2.86144 -12.89056,-6.91552 -16.36224,-12.16031 -4.37568,-6.61185 -4.75776,-14.43137 -4.75776,-22.07969 0,-7.0048 0.16928,-13.63872 1.88448,-20.48 1.09696,-4.37632 2.39616,-9.70272 5.47552,-13.12 m 119.68,36.8 c -6.856,-0.88864 -14.20224,0.4832 -21.12,0.62688 -4.76864,0.0992 -9.68096,-0.8512 -14.4,-1.49888 -2.66624,-0.36576 -5.38528,-1.0352 -8.08608,-1.00192 -0.83936,0.0103 -2.272,0.0467 -2.48,1.10848 -0.25728,1.31232 1.2592,2.77376 2.03264,3.64544 2.39744,2.70272 4.90176,5.448 7.5744,7.87937 5.19456,4.72511 9.38976,6.13695 16.31904,6.20447 1.76832,0.0176 3.73888,0.45952 5.44,-0.15936 4.26016,-1.54975 8.1232,-5.872 10.67296,-9.44448 1.6704,-2.34016 3.70304,-4.40608 4.04704,-7.36 m -34.97792,4.28928 c 2.39872,-1.17632 7.17184,0.94272 9.69792,1.30688 3.53472,0.50945 6.99872,0.44704 10.5392,0.12929 1.65152,-0.14849 4.05664,-0.81825 5.624,-0.10177 2.6848,1.2272 -0.7024,4.92928 -1.84512,5.99968 -0.93952,0.88 -1.98336,1.65568 -3.1184,2.26496 -5.30752,2.85024 -12.6768,2.01984 -17.58592,-1.40192 -1.48096,-1.03232 -6.63232,-6.56863 -3.31168,-8.19712 m -27.10208,4.35072 c 3.20224,4.83072 4.42368,11.248 4.48,16.96 h -0.32 c -1.8688,-4.65279 -5.11008,-11.88704 -4.16,-16.96 m 72,4.8 c 0.76256,4.16512 0.63328,12.3952 3.84,15.36 v -10.24 h 0.32 c 2.10272,7.9264 3.66528,16.01793 5.55584,24 0.6512,2.74913 2.96096,6.83712 2.55264,9.6 -0.37088,2.5104 -2.69408,5.16512 -3.91136,7.36001 -2.63424,4.74912 -5.32192,9.77855 -6.75712,15.04 4.2144,-5.4576 6.69952,-12.19425 10.56992,-17.92 2.22112,-3.28577 4.45056,-5.92225 8.63008,-4.48001 -4.5504,5.68608 -9.73472,10.87649 -12.8,17.60001 4.20128,-3.98721 7.58912,-8.8256 11.47424,-13.11904 2.264,-2.5024 4.50016,-5.13216 8.04576,-5.44097 l -9.92,12.48 c 4.0048,-2.67711 7.07456,-8.23647 11.31872,-10.15903 2.86944,-1.30016 7.6496,-0.40096 10.76127,-0.40096 -0.48927,3.07424 -0.96991,6.68832 -2.91199,9.22432 -2.09504,2.73568 -5.63552,4.29184 -8.608,5.86784 -6.20096,3.28735 -12.88064,5.90208 -18.88,9.53951 -4.73632,2.87201 -7.848,7.62913 -12.8,10.24833 0.24448,-2.38497 1.3216,-3.98624 2.88,-5.76001 l -8.32,8 c -1.5664,-6.12255 2.83392,-10.7632 6.08,-15.67999 h 0.32 l -3.52,8.32 0.32,0.32 c 3.34528,-2.48384 4.09952,-7.44672 5.44,-11.2 l -1.92,0.96 1.92,-6.4 -8.96,13.76 c 0.0416,-5.63072 3.4512,-13.64961 6.28864,-18.47393 0.8032,-1.36544 5.50528,-2.95871 5.04096,-4.60608 -0.43872,-1.55679 -3.912,-0.664 -4.9296,-0.4464 -4.448,0.952 -8.82656,2.41825 -13.12,3.90433 -1.04384,0.36127 -3.67808,1.05568 -3.67808,2.51295 0,1.27617 2.32032,0.90176 3.03904,0.78369 2.1056,-0.34529 8.01312,-3.44737 9.81312,-1.97184 1.11008,0.91008 0.0115,3.18975 -0.36736,4.21727 -1.38368,3.75488 -2.97024,7.43488 -4.32672,11.20001 h -0.32 c -0.30336,-1.37088 -0.49408,-3.11872 -1.57728,-4.1264 -1.32448,-1.23232 -3.48288,-0.95136 -5.14272,-1.02529 -3.74272,-0.16608 -7.45024,-0.256 -11.2,-0.29216 -1.34304,-0.0131 -5.96192,0.38144 -6.74144,-0.90559 -0.75584,-1.24768 2.16064,-2.74145 2.90272,-3.2208 3.58688,-2.31585 8.39712,-4.60096 10.68192,-8.35393 2.9408,-4.83103 1.44832,-12.7776 1.94304,-18.23584 0.16896,-1.86624 -0.0477,-4.86912 1.31872,-6.33984 1.00416,-1.08096 2.94496,-1.00063 4.29504,-1.17056 3.82592,-0.48192 7.6576,-1.06559 11.52,-1.1296 l -2,12.8 -1.568,5.85473 -7.952,5.66528 c 6.10784,0.96447 12.45248,-3.54913 18.24,-5.07808 1.4096,-0.37248 5.72544,-1.09601 5.27808,-3.28897 -1.01056,-4.95679 -8.73152,1.81824 -9.98432,-2.62016 -0.42784,-1.5152 0.27072,-3.496 0.49696,-5.0128 0.63264,-4.24064 1.9776,-8.68512 0.36928,-12.8 l -10.56,1.6 c 0.45728,-7.49919 5.09824,-12.6752 11.52,-16.32 m 7.68,0.64 c 2.63744,6.57568 3.12096,10.89345 2.56,17.92 h -0.32 c -1.47712,-5.53312 -3.21696,-12.13759 -2.24,-17.92 m -71.68,1.92 c 10.27904,7.47712 23.44448,15.35617 36.48,15.36 -3.35488,7.10144 -15.1792,11.45665 -22.72,11.84 l 0.32,-7.68 c -1.88544,-0.0186 -4.55072,0.18176 -6.20576,-0.86207 -1.50208,-0.94753 -2.29024,-3.07552 -3.10272,-4.57793 -2.14208,-3.96032 -5.5312,-9.38144 -4.77152,-14.08 m -99.2,13.44 -0.32,0.64 7.36,-2.24 c -1.39168,2.1312 -3.12896,4.11936 -5.76,4.48 v 1.28 l -30.08,-4.13664 -20.8,-5.46336 -1.28,2.88 c 9.28768,3.53313 18.3152,5.2528 28.16,6.7392 4.39168,0.66304 8.46368,0.33697 12.8,1.5808 l -0.64,0.32 v 0.32 l 4.48,0.32 c -3.0464,4.17792 -8.5504,2.46816 -13.12,2.272 -7.67424,-0.32959 -15.37792,-0.60448 -23.04,-1.17088 -3.67648,-0.27168 -7.18496,-1.5424 -10.88,-1.10112 3.2048,3.34113 7.5184,2.87264 11.84,2.88032 6.19328,0.0115 12.39552,0.6336 18.5808,0.92032 5.99232,0.27808 10.28864,-0.96 12.4592,5.79936 -5.96736,-0.4784 -11.6496,0.11616 -17.6,-0.0128 -6.72896,-0.14592 -13.41216,-0.9472 -20.16,-0.9472 -4.776,0 -10.67264,-1.00576 -14.4,2.56 l 4.16,-0.64 c -1.69248,1.82528 -4.38176,2.30656 -6.72,2.8928 -6.17344,1.54817 -21.40054,5.37184 -21.59997,-5.4528 -0.17795,-9.66144 12.61203,-16.59263 20.31997,-19.39136 6.79488,-2.4672 13.38464,-4.50272 20.48,-5.75999 1.91392,-0.33921 3.8048,-1.7536 5.76,-1.65473 1.78528,0.0902 3.32352,1.62561 4.8,2.48608 2.8144,1.64 5.90336,2.95329 8.96,4.06912 8.16096,2.97824 17.66464,4.17888 26.24,5.53088 m 92.48,-9.28 0.96,5.76 h -0.64 v -2.88 h -0.32 l -2.56,3.84 2.56,-6.72 m -154.88,1.28 v 0.32 l -17.28,6.08 c 4.6241,-3.88831 11.2592,-6.87616 17.28,-6.4 m 458.55995,32.64001 -1.92,0.31999 2.24,3.52 c -6.5824,-1.02495 -13.7344,-2.81664 -20.16,-4.66623 -2.9888,-0.86016 -6.7808,-3.02177 -9.92,-2.78369 -2.9792,0.22625 -6.1984,2.61792 -8.96,3.72257 -4.4192,1.76672 -9.0144,2.58303 -13.76,2.76191 -1.7984,0.0682 -4.4992,0.82432 -6.1536,-0.0765 -2.256,-1.22721 -2.8608,-5.65377 -2.624,-7.91809 0.8704,-8.24864 5.5936,-11.52384 12.2976,-15.35968 3.9072,-2.23616 7.8592,-4.3968 11.84,-6.49824 1.9008,-1.00255 3.9136,-2.47712 6.08,-2.79488 3.2288,-0.47296 7.4496,1.09408 10.56,1.90848 10.6496,2.78752 19.9328,7.65888 27.84,15.39712 3.0208,2.95585 5.6384,6.28224 8.6496,9.23936 0.96,0.9408 3.1232,2.26081 3.1232,3.78465 0,1.40959 -1.8944,1.27551 -2.816,1.0704 -2.864,-0.63776 -5.6,-2.4864 -7.9968,-4.09889 -5.1264,-3.44768 -9.5552,-8.8576 -15.04,-11.62304 -4.2176,-2.12735 -9.44,-1.6448 -13.744,-3.54559 -1.9808,-0.87457 -2.6688,-2.81729 -4.3232,-4.03392 -2.4672,-1.81601 -7.1488,-0.53441 -6.6016,3.11487 0.3456,2.29601 2.9088,4.07425 4.5088,5.51616 3.0016,2.70304 5.9424,5.26784 9.92,6.34016 5.1264,1.38241 14.128,1.33568 16.96,6.70305 M 444.04383,245.46636 c 0,1.45664 0.35232,3.55776 -0.40096,4.86976 -1.47232,2.56353 -7.9888,1.85024 -10.47904,1.85024 2.87616,-2.81472 7.16384,-5.19904 10.88,-6.72 m -210.56,2.24 v 0.32 l 2.24,-0.32 h -2.24 m 68.8,0 v 0.32 c -1.83904,0.61024 -3.37216,0.5232 -5.12,-0.32 h 5.12 m 197.11999,0.64 9.28,25.92001 c -7.31168,-6.07201 -11.55263,-16.48705 -9.28,-25.92001 m -265.91999,1.28 v 0.64 l 2.24,-0.32 -2.24,-0.32 m 157.44,-0.32 0.32,6.4 h 0.32 l 0.96,-6.08 h 0.32 l -1.28,11.52 h -0.32 l -1.6,-8.32 -1.6,0.32 c 0.47616,-1.78432 1.34848,-2.82784 2.88,-3.84 m -177.92,1.6 c -2.0584,3.96928 -5.12435,7.02176 -6.15296,11.52 -0.6672,2.91777 1.18365,6.75937 -0.13427,9.28 -2.62442,5.0192 -8.60813,7.53248 -10.35277,13.12 h -0.32 c -1.18832,-5.06368 -2.58763,-12.88448 -0.82022,-17.92 2.35644,-6.7136 11.72937,-12.86144 17.78022,-16 m 152.96,0 -0.32,0.32 0.32,-0.32 m 31.36,0 c 0.39744,0.85504 0.83072,1.69952 1.1936,2.5696 0.43936,1.05313 0.23968,5.27936 -1.59104,3.06049 -0.98944,-1.19968 0.0413,-4.27809 0.39744,-5.63009 m -73.6,1.92 -0.32,0.32 0.32,-0.32 m -39.36,0.64 -0.32,0.32 0.32,-0.32 m 10.56,2.24 v 0.32 l -8.64,-0.96 8.64,0.64 m 286.72001,2.24 -0.32,0.32 0.32,-0.32 m 86.72,0 c 1.968,2.18432 3.8816,2.54944 6.72,2.56 v 0.32 l -6.4,1.28 -0.32,-4.16 m 32.96,0.32 c 7.7536,3.02208 14.0928,9.52288 18.24,16.64001 -5.5424,-1.7264 -9.9136,-6.79649 -13.7856,-10.88192 -1.6416,-1.73217 -3.6128,-3.47585 -4.4544,-5.75809 m -297.28001,1.92 c 0.40256,2.528 0.6656,6.28352 3.24416,7.57313 1.84512,0.92255 4.43808,0.26944 5.99872,1.74047 2.85024,2.6864 4.12896,9.66625 4.19712,13.40641 l 1.28,-0.32 c -0.44224,3.77504 -4.72928,5.75168 -8,6.75712 -1.3232,0.40704 -3.22592,0.92352 -4.39104,-0.12032 -1.496,-1.33985 -2.08256,-4.21184 -2.91776,-5.9968 -1.92352,-4.11201 -4.07904,-8.11264 -6.1312,-12.16001 h -0.32 l 8,18.88 c -2.8176,0.0973 -3.65888,-3.32544 -4.76128,-5.44 -3.2464,-6.22815 -5.6784,-12.71264 -7.39872,-19.52 h 0.32 l 1.92,2.56 c -1.10112,-6.29632 3.68672,-6.88512 8.96,-7.36 m 28.8,9.92 c -2.52992,-2.07104 -3.86912,-3.71296 -7.36,-3.2 l -0.32,-3.52 h 0.32 l 0.96,2.88 c 0.38976,-1.4864 3.4928,-8.2432 5.6416,-4.8992 1.42784,2.22208 0.7584,6.22017 0.7584,8.7392 m -69.44,-8 c 4.48384,3.58016 14.60992,7.14624 15.68,13.12001 -7.65184,-0.0234 -15.34848,-4.63009 -15.68,-13.12001 m 59.2,0.32 c 1.85408,3.05408 1.51264,5.86081 5.44,7.04 0,1.8976 0.44768,4.51233 -0.40096,6.26273 -0.50016,1.03199 -1.54592,1.66111 -2.48672,2.2416 -1.15776,0.71391 -2.8944,1.9952 -4.3424,1.53663 -2.50688,-0.79359 -4.70976,-8.61824 -4.42656,-10.98272 0.35744,-2.98464 4.74752,-3.59968 6.21664,-6.09824 m 263.36001,0.96 -5.12,3.84 c -2.768,-0.0157 -5.1776,-0.35808 -7.68,-1.6 3.9808,-2.16288 8.3872,-3.58368 12.8,-2.24 m -312.00001,1.28 -1.28,-0.32 1.28,0.32 m 254.72001,0 c -2.2656,6.53568 -0.368,10.49568 2.24,16.64 -2.8192,1.16129 -10.8224,-2.41215 -8.8768,2.54241 0.2976,0.75327 0.6048,1.49472 0.8768,2.2576 l -8,0.95999 c 4.2112,-7.9328 6.112,-17.1088 13.76,-22.4 m 61.12,5.44 c -4.3904,-1.44704 -0.3872,-4.92576 0,0 m -447.68001,-2.88 -2.88,3.2 -0.32,-0.32 3.2,-2.88 m 13.44,0.32 v 0.32 l -8,0.96 v 0.32 l 11.52,0.32 -2.56,3.20001 c -5.72768,0.23072 -11.70112,1.57919 -17.28,-0.32001 v -0.64 l 7.04,-4.19552 9.28,0.0355 m 6.4,0.96 c -0.9136,2.39872 -2.65888,3.41664 -5.12,3.84 v -0.32 c 2.00768,-0.80128 3.08896,-1.80511 3.84,-3.84 l 1.28,0.32 m 24,-0.32 0.96,0.32 -2.56,1.92 1.6,-2.24 m -3.2,0.32 v 0.64 h -2.24 v -0.64 h 2.24 m 81.6,9.28001 c -5.04608,1.57247 -12.02272,1.57247 -16.57504,4.13792 -2.91456,1.64223 -3.20096,5.67712 -5.76416,7.62111 -1.86944,1.41793 -6.10496,1.0032 -8.3808,1.04097 l 1.28,2.23999 c -5.536,-0.2272 -11.41952,1.29888 -14.72,6.08001 4.64864,-2.75329 9.26112,-4.44896 14.72,-4.48001 -2.1872,2.04545 -5.38272,2.14817 -7.97792,3.46209 -1.63648,0.82848 -2.56288,2.56799 -4.23136,3.2944 -1.16224,0.50592 -2.6672,0.45823 -3.27904,-0.82592 -0.73728,-1.54689 0.27808,-3.27392 0.93696,-4.64864 1.5968,-3.33121 3.20128,-6.6368 4.8976,-9.92192 2.95648,-5.72609 8.07072,-13.84129 14.45376,-16.23361 2.07552,-0.77824 4.93728,0.0518 7.04,0.43904 6.11168,1.12576 13.3984,2.89793 17.6,7.79457 m 333.44001,-3.84001 c -1.7472,-0.11359 -2.7232,-0.47071 -3.2,-2.24 l -3.52,0.32 c 2.4224,-3.28223 4.9888,-0.7952 6.72,1.92 m 21.76,-2.24 1.28,1.6 -1.28,-1.6 m -483.52001,2.24 c -1.80032,1.91329 -4.29824,1.69504 -6.72,2.05728 -3.55008,0.53088 -6.99158,1.66689 -10.56,2.10273 -0.64784,7.39455 -13.25821,14.09471 -18.24,6.71999 3.7488,-0.36767 0.91738,-2.1792 1.77312,-4.47999 0.84464,-2.27073 3.40461,-3.87392 5.58694,-4.6064 3.27671,-1.09952 6.55284,-0.63712 9.91994,-0.69696 6.23136,-0.11041 12.10016,-0.30048 18.24,-1.09665 m 490.88001,5.44 c -3.9104,0.87745 -7.1616,2.53408 -10.88,0.32001 v -0.32001 c 2.8352,0.14785 3.9808,-1.43392 5.12,-3.84 2.208,0.79073 4.2848,1.99136 5.76,3.84 m -53.44,-1.27999 v 0.31999 l -14.4,4.60609 -14.72,0.19392 c 2.816,-2.19937 6.2848,-2.42017 9.6,-3.38496 2.7552,-0.8016 5.2128,-2.53121 8,-3.18848 3.6352,-0.8576 8.0576,0.39744 11.52,1.45344 m 37.44,8.95999 c -4.0736,-0.82335 -8.464,-3.38304 -11.5104,-6.17183 -0.6912,-0.6336 -3.1264,-2.72033 -2.2464,-3.87777 0.8672,-1.14335 3.4528,0.9792 4.1568,1.47936 3.488,2.47361 7.0432,5.10784 9.6,8.57024 m -7.36,-10.56 c 3.5328,1.56801 5.0816,2.88448 6.08,6.72001 -2.2496,-1.81408 -4.9536,-3.99073 -6.08,-6.72001 m -274.88001,0.96001 c -1.73696,2.61183 -4.68384,4.56032 -7.68,5.44 1.43168,-2.91136 4.60128,-4.7056 7.68,-5.44 m -39.04,16 c -2.27488,0 -5.22048,-0.48224 -7.36,0.40096 -3.64736,1.50527 -6.82688,6.33472 -9.42336,9.19903 -6.24736,6.89185 -11.69152,13.74912 -19.69664,18.72545 -4.64768,2.88928 -14.03296,5.51839 -16,11.03455 l 1.28,-0.32 -3.52,3.84001 c 0.12416,-3.16865 -2.344,-3.42496 -4.8,-2.56 l -1.6,-5.76001 c 3.95296,-2.31616 7.51072,-5.16896 11.2,-7.87071 1.68064,-1.23073 3.56864,-2.92289 5.76,-2.36928 1.12512,-2.21889 2.47488,-4.39137 3.38912,-6.70881 0.3008,-0.7632 0.6432,-1.97408 -0.37664,-2.36575 -1.152,-0.44289 -2.26144,0.62432 -2.8832,1.45568 -2.28704,3.05791 -4.45504,5.52799 -7.48928,7.92063 -5.33056,4.20352 -12.90912,10.17536 -20.16,7.3696 -2.54464,-0.98464 -4.8272,-3.21343 -7.04,-4.79135 v -0.64001 l 27.47776,-12.23488 3.1168,-3.78912 5.88544,-5.09599 c -2.5344,-1.09953 -2.29728,-3.10528 0.32,-3.84001 v -0.32 c -4.54112,-1.29791 -6.21664,0.54048 -10.56,1.28001 v -0.64001 h 1.92 l -2.24,-2.23999 h 8.96 c -1.01984,-8.68257 7.79744,-9.98048 14.08,-11.96192 2.9024,-0.91553 5.96864,-2.79136 8.96,-3.20993 2.25696,-0.31615 4.79296,0.40416 7.04,0.664 1.79552,0.20737 4.12448,0.0941 5.672,1.14657 1.79712,1.22239 2.1664,3.68799 3.68896,5.20319 2.60192,2.58945 3.97664,4.71937 4.39904,8.47809 m 113.91999,-13.12 2.24,7.68 h -0.32 l -1.6,-1.60001 -0.12864,5.99009 -4.67136,6.48992 c 2.08448,-1.71585 4.69664,-5.14049 7.67552,-5.04545 2.06432,0.0659 3.49536,2.16481 4.43008,3.76768 2.6624,4.57696 5.5872,9.7488 7.4144,14.71777 -1.616,1.03359 -4.5248,2.13727 -5.3216,3.99424 -0.6112,1.42047 0.1792,3.25439 0.5472,4.64575 l 2.7136,10.24001 c 0.448,1.71519 1.3664,3.73023 0.3968,5.41919 -2.6208,4.5648 -9.0528,8.10049 -13.056,11.41184 -1.57312,1.30113 -3.52608,3.15584 -5.75999,2.67968 -4.23616,-0.90304 -8.42528,-7.19231 -11.52,-10.02719 -6.00288,-5.49793 -12.2784,-10.7056 -18.24,-16.24385 -3.75712,-3.49024 -7.05344,-7.4896 -11.2,-10.51968 8.46336,-13.42303 22.89984,-16.92319 35.84,-24.2256 2.28032,-1.28703 4.4832,-3.01087 6.25087,-4.94367 1.44928,-1.58433 2.2592,-3.55712 4.30912,-4.43072 m 132.48002,1.59999 c -2.928,1.81441 0.4736,3.70209 -0.32,6.40001 l 3.2,0.63999 c -3.472,1.54561 -7.4656,1.7616 -11.2,1.28001 3.6,2.89439 8.7456,3.08831 13.12,4.15999 -12.2944,17.28256 -17.3792,37.18944 -25.952,56.32 -9.3312,20.8192 -21.4464,39.88801 -33.9776,58.88 -2.5376,3.84641 -5.3472,7.52 -7.6352,11.52 -4.9696,8.68161 -9.3984,19.2352 -19.7952,22.37121 -2.1088,0.6368 -4.5408,0.34879 -6.72,0.34879 l 3.84,-11.19999 -5.12,9.59999 c -5.00802,-4.3936 -9.17122,-10.2272 -13.40802,-15.35999 -7.3536,-8.9088 -14.656,-17.792 -20.9152,-27.52001 -2.24384,-3.4848 -4.30784,-7.07839 -6.55232,-10.56 -0.9456,-1.46559 -2.73376,-3.28319 -2.97888,-5.0592 -0.31616,-2.288 4.2288,-4.48959 5.7744,-5.59039 5.9264,-4.23137 11.8848,-8.42721 17.92,-12.50081 1.6704,-1.12736 4.4704,-3.99968 6.6272,-2.71776 2.2208,1.32128 3.8592,4.26529 5.2864,6.34816 2.256,3.29537 4.74882,6.4384 7.18722,9.60001 1.4112,1.824 3.1424,3.59359 2.704,6.07999 -1.3504,7.6384 -11.93922,18.20481 -5.4848,25.28 1.904,-10.50879 7.984,-19.28959 12.976,-28.47999 5.872,-10.80992 11.6096,-21.74176 18.6112,-31.88448 8.1696,-11.83841 17.6544,-22.74176 25.2352,-34.99552 4.6816,-7.56865 12.1024,-14.61152 14.5376,-23.36001 1.5136,1.21952 3.8048,2.82816 4.3392,4.80001 0.3904,1.42399 -0.6112,2.93984 -1.2192,4.15999 -1.4976,3.01249 -3.1328,5.95168 -4.64,8.96001 -6.7488,13.48447 -14.9152,27.02143 -19.92,41.27999 8.9888,-11.34656 14.416,-26.16832 20.88,-39.04 2.5728,-5.12351 5.1456,-10.97855 8.88,-15.35999 v -0.32 c -0.864,-0.62464 -1.7184,-1.25344 -2.512,-1.96865 -6.912,-6.23679 6.6048,-4.25248 6.992,-9.55136 2.9792,-0.58527 7.6544,-4.33792 10.24,-2.56 m 75.84,-0.64 c 3.0272,1.76192 5.7152,3.4384 9.2768,3.77441 0.656,0.0621 2.9536,-0.0231 2.9536,1.04895 0,1.38848 -3.2192,0.75553 -3.9104,0.59552 -2.9152,-0.67232 -7.2064,-2.41408 -8.32,-5.41888 m -486.72001,0.96001 c 1.00352,3.10623 0.25952,6.38592 0.3328,9.59999 0.0947,4.15616 0.97728,8.52673 2.24,12.48001 2.78304,8.71231 6.14176,17.33439 9.29536,25.91999 2.18304,5.94336 4.00128,12.22784 6.78368,17.92 7.23328,14.79584 16.76704,28.5376 25.3408,42.5664 4.8672,7.9648 10.21312,15.48481 14.77984,23.6736 0.80864,1.4496 2.94432,7.4592 4.84512,7.4592 2.28928,0 -0.85792,-5.7024 -1.21728,-6.4992 -2.95104,-6.55039 -3.61856,-14.18559 -8.32032,-19.84 l 3.2,8.32 c -2.06144,-1.9168 -5.76352,-5.62559 -5.73312,-8.63999 0.0525,-5.17761 4.65824,-9.82081 7.04672,-14.08001 5.7936,-10.33151 11.6144,-20.93888 16.6064,-31.67999 4.51264,1.02783 8.30048,3.99615 12.16,6.39999 -0.62912,2.30176 -1.97056,4.35073 -2.3648,6.72 -1.73888,10.4496 -0.1216,21.4752 -1.31424,32 -1.37056,12.096 -5.80032,24.36161 -8.76064,36.16 -1.4736,5.872 -2.36864,13.728 -5.68704,18.85761 -1.63328,2.52799 -4.40864,4.27199 -6.47904,6.4256 -1.99488,2.0768 -3.74784,4.93759 -6.4352,6.18879 -1.73888,0.81281 -3.63328,0.30081 -5.43904,0.064 -3.928,-0.5088 -9.42496,-0.512 -12.5536,-3.39519 -2.4144,-2.224 -3.31136,-6.75201 -4.98848,-9.58081 -3.65472,-6.1664 -8.04448,-11.87519 -12.33792,-17.6 -7.01664,-9.35999 -13.82336,-20.8736 -17.6176,-32 -2.52608,-7.4048 -3.8272,-15.4752 -5.94573,-23.03999 -3.93766,-14.05728 -8.03661,-28.08256 -12.6912,-41.92001 -3.22646,-9.59199 -6.65033,-19.12544 -9.62841,-28.8 -1.24052,-4.03008 -3.60848,-8.5152 -3.27706,-12.79999 -1.4463,-0.19648 -1.06902,-1.83136 -0.64,-2.88 h 0.32 l 3.20109,6.688 5.85187,6.752 12.99766,20.79999 8.34938,11.84001 c -1.33376,-4.85473 -4.35005,-8.92289 -6.46141,-13.44 -1.02739,-2.19809 -1.05417,-4.67552 -2.40237,-6.72001 -4.1976,-6.36575 -9.10499,-11.5168 -11.61622,-18.88 l 1.6,-0.63999 v -0.32 c -3.24272,-1.15937 -6.75606,-2.85697 -8.32,-6.08 l 7.68,1.46783 5.76,-2.7072 11.84,-6.76063 m 501.12001,0.96 2.56,3.19999 -2.56,-3.19999 m -71.36,3.83999 c -1.9584,1.02528 -4.1088,1.34273 -6.0832,2.23617 -1.5168,0.68703 -2.6112,2.0432 -4.1568,2.68991 -2.8256,1.18208 -6.3904,0.3648 -9.28,-0.12608 v -0.32 l 10.56,-1.6 -6.72,-3.2 c 4.2336,-1.76288 11.3568,-0.98176 15.68,0.32 m -161.60001,11.52001 c 1.47008,4.14592 -2.94112,3.9264 -5.76,5.43455 -4.71936,2.52544 -11.56704,6.57504 -13.44,11.84544 3.42368,-2.1392 6.2992,-4.88576 9.92,-6.78463 4.1424,-2.17216 8.4336,-2.99777 11.84,-6.33537 2.31904,1.90561 5.44511,-0.003 6.71999,-2.24 -1.55712,0.31009 -3.95872,1.65985 -5.05727,-0.13024 -0.56704,-0.92351 0.79424,-6.45696 -0.74304,-6.22431 -1.3968,0.2112 -2.0912,3.58784 -3.47968,4.43456 m -80.32,9.27999 h 0.32 c 2.48256,7.87969 13.67232,5.38336 19.52,2.58465 1.5728,-0.75265 3.58592,-1.48768 4.75392,-2.83393 1.8624,-2.1472 0.77792,-7.91968 -2.22912,-8.56351 -2.12736,-0.45569 -4.51968,-0.10753 -6.6848,-0.16033 -2.38976,-0.0582 -4.76832,-0.93536 -7.04,0.13121 -3.13408,1.47135 -6.29248,2.92832 -9.28,4.68192 0.0822,-3.68704 2.34816,-4.75232 5.44,-6.02177 5.71296,-2.34591 10.86272,-1.71328 16.96,-1.65407 1.97472,0.0192 6.45024,-0.34401 8.07904,0.88352 2.11968,1.59744 1.9024,8.16736 1.98592,10.62176 0.11008,3.23232 -3.46976,3.78015 -5.90496,4.74752 -5.5792,2.21695 -11.20768,4.4592 -16.96,6.19007 -1.83232,0.55136 -4.67296,1.856 -6.57504,1.05248 -2.6704,-1.12832 -2.09728,-9.13408 -2.38496,-11.65952 m -30.4,-11.51999 2.56,2.24 1.28,-2.24 h 0.32 c 0.77312,1.26592 1.40192,1.94304 2.88,2.24 l 0.64,2.88 h -12.48 l 4.8,-5.12 m 98.56,10.88 10.24,-6.40001 0.32,-3.2 c -4.2112,1.70497 -8.05248,5.89184 -10.56,9.60001 m -137.6,-8.96 -8.64,6.71999 4.16,0.96 v 0.32001 c -11.29056,2.03711 -20.36448,8.39903 -31.04,11.84 5.34976,-8.71488 13.72512,-13.66721 23.04,-17.39264 3.86368,-1.54529 8.27872,-3.25056 12.48,-2.44736 m -23.68,0.64 0.32,0.32 -0.32,-0.32 m 106.88,2.56 c -1.28704,1.31104 -9.05472,2.18079 -5.12,4.47999 0.26592,3.69121 8.71008,0.88225 7.04,-1.91999 l -0.32,-2.56 h 6.72 l 0.96,4.15999 c -4.42496,2.64065 -13.54688,7.312 -18.65952,3.64577 -1.5536,-1.11392 -2.11616,-3.71329 -0.40768,-4.90016 2.80064,-1.94561 6.43776,-2.99489 9.7872,-2.9056 m 118.72001,1.27999 c 8.9024,13.91393 20.0512,24.88545 31.68,36.48001 v 0.31999 c -2.464,3.14208 -4.7392,6.38656 -7.1072,9.59424 -0.7584,1.02592 -1.8944,2.80513 -3.3824,2.67712 -1.2,-0.10304 -1.9552,-1.44287 -2.4928,-2.36256 -1.568,-2.67968 -2.9216,-5.54431 -4.336,-8.3088 -4.4096,-8.6192 -8.1344,-17.77279 -11.4048,-26.88 -1.2288,-3.42655 -3.5552,-7.8128 -2.9568,-11.52 m -86.72001,0.32 0.32,0.32 -0.32,-0.32 m 140.80001,4.48 -8.96,13.44 -5.8976,-8.96 -5.6224,-7.99999 c 2.944,0.63232 5.1104,2.65663 7.68,4.09983 0.9696,0.54433 2.4416,1.34305 3.4112,0.36544 1.0976,-1.11071 0.9184,-3.64959 1.3888,-5.10528 l 8,4.16 m -206.72001,-3.19999 c 0.0214,7.40991 0.64928,15.04191 -0.64,22.39999 -5.28288,-0.42912 -6.55264,3.99169 -8.56032,8 -4.20864,8.40256 -7.35456,17.11681 -10.65952,25.92001 -7.368,19.6256 -13.1536,39.7248 -20.01152,59.51999 -6.5424,18.8832 -14.15136,37.57761 -21.88864,56 -4.22752,-3.76319 -8.75552,5.8496 -11.52,8.32 8.60832,-27.55199 21.43296,-54.03519 32.52416,-80.64 3.00192,-7.19999 6.3264,-14.2688 9.39552,-21.44 1.656,-3.8688 3.82912,-7.9104 4.16032,-12.16 -3.01824,2.1776 -3.30592,6.9472 -4.71232,10.24 -3.40736,7.98081 -7.07168,15.97441 -11.06432,23.68 -10.46624,20.20161 -18.49792,41.84001 -26.6768,63.04001 -2.76992,7.18079 -4.82464,14.7776 -8.0576,21.75999 -3.69184,7.97441 -9.08544,15.136 -13.48896,22.72 -0.43328,-0.89919 -1.32544,-3.4048 -2.65888,-3.21279 -1.06752,0.15359 -1.23552,2.42879 -1.49248,3.21279 -1.05536,3.2192 -3.06016,6.05441 -4.16864,9.28 h -0.32 c 5.96928,-32.6048 21.592,-62.43519 29.58944,-94.4 4.096,-16.3712 4.8544,-32.99839 7.5824,-49.6 0.87552,-5.32832 0.9776,-11.22784 2.82816,-16.31999 6.84928,-0.57664 14.34048,-1.42816 20.8,-3.84001 v -0.32 c -4.52928,0.3104 -8.88032,1.9344 -13.44,2.19136 -1.37344,0.0774 -4.00128,0.39008 -4.90752,-0.95424 -0.97696,-1.44959 1.2016,-3.69599 1.9904,-4.75712 3.1424,-4.22784 6.31712,-8.49727 9.768,-12.48 6.49248,-7.49344 13.2256,-14.61536 19.38112,-22.39999 2.88992,-3.65473 6.06112,-9.49985 10.27296,-11.70784 4.41632,-2.3152 11.0512,-0.74944 15.97504,-2.05216 m -69.44,17.27999 c 6.15648,-0.0224 11.10176,-3.81984 15.67968,-7.6384 2.13088,-1.77792 4.56064,-3.77855 4.48032,-6.76159 l -10.00992,7.06783 -10.15008,7.33216 m 26.56,-9.92 -5.44256,9.28 -6.39744,8 c 6.20544,-2.14464 14.43008,-9.54272 17.92,-15.04 l -7.68,5.44 1.6,-7.68 m 181.43999,32.64001 6.72,11.19999 c -3.2704,1.35553 -6.8128,2.25057 -9.92,3.95808 -7.6864,4.22305 -14.672,10.04224 -21.76,15.1776 -2.43904,1.76672 -4.8688,3.56513 -7.35904,5.26112 -0.87999,0.59841 -2.14783,1.5072 -3.24735,0.90881 -2.9584,-1.6032 1.06688,-5.6032 0.92768,-7.70561 -0.3072,-4.65312 -4.96032,-8.42368 -6.32128,-12.79999 l 13.11999,7.35999 c -2.80576,-2.6928 -6.36799,-5.15616 -7.67999,-8.96 -2.30048,-0.0451 -5.37952,-1.70655 -7.45632,-0.0954 -1.3856,1.07489 -0.38624,3.02528 0.21952,4.25537 1.83744,3.72959 4.336,6.96576 7.2368,9.91999 v 0.32 c -0.85376,0.81376 -2.25696,2.54401 -3.6272,1.9648 -1.79744,-0.75935 -2.9744,-4.18176 -3.81056,-5.8048 -2.80832,-5.44959 -5.73984,-10.83616 -8.48224,-16.32 -0.8624,-1.72448 -2.2464,-6.13983 -4.6016,-6.20576 -1.58848,-0.0442 -3.11136,1.65216 -4.14688,2.66368 -2.77728,2.71232 -5.52384,5.43616 -8.10368,8.34209 -7.15776,8.06239 -11.11296,18.34559 -17.6192,26.88 -4.52288,5.93279 -11.69888,11.68639 -13.28864,19.19999 l 18.51424,-22.39999 10.60576,-11.52001 -9.28,19.2 1.92,-1.28 -4.20928,16.96 -10.97664,60.8 -4.01408,31.36 c -2.08768,-1.4368 -2.99968,-3.328 -3.52,-5.75999 1.55136,-0.4928 2.56896,-1.00801 3.2,-2.56 -3.47008,2.05759 -5.78656,-1.65761 -7.25024,-4.48001 -3.62752,-6.99519 -4.90976,-13.0208 -4.90976,-20.8 0,-5.7376 -1.32256,-13.38879 0.40768,-18.88 1.82816,-5.79839 6.06944,-10.304 9.18304,-15.36 4.56448,-7.4112 8.51936,-15.2608 12.40928,-23.03999 2.288,-4.57601 5.02592,-9.1552 6.48,-14.08001 -7.47456,10.2368 -12.47552,22.71361 -19.008,33.6 -2.51296,4.1888 -5.22112,10.5856 -9.792,12.8 0.25248,-15.1712 2.7392,-31.3248 6.16416,-46.07999 2.48896,-10.72321 6.95232,-23.43712 5.03584,-34.56 l -1.6,0.32 c -1.4736,7.11327 -8.52736,1.65407 -11.56224,6.1952 -1.39264,2.08383 -1.44576,5.46463 -1.85088,7.88479 -0.87648,5.23521 -1.92672,10.4416 -2.77856,15.68 -3.96672,24.3968 -6.27808,49.2064 -6.83552,73.92001 -0.1568,6.9504 -0.47264,14.19199 0.10368,21.12 0.28768,3.45599 1.5536,9.37919 0.23904,12.6336 -0.6032,1.4912 -2.552,2.1376 -3.87584,2.8096 -2.5104,1.27359 -4.84512,2.57919 -6.71968,4.71679 l 10.56,-2.88 -0.54624,7.7152 -5.21376,4.44481 6.08,-1.92001 c -0.26848,3.376 0.61888,8.3968 -0.72096,11.48481 -1.56768,3.61599 -7.744,7.49439 -10.79904,9.9552 -0.0627,-11.35681 -3.51584,-23.9488 -0.77056,-35.2 0.57088,-2.33921 2.66912,-4.40641 3.95616,-6.40001 2.32416,-3.59999 4.38048,-7.46239 5.7744,-11.52 -3.94144,4.0096 -6.7664,9.8784 -9.6,14.72001 h -0.32 c 0.0947,-13.80801 1.4352,-27.50401 2.19296,-41.28001 0.62624,-11.38879 0.61248,-22.88639 1.77184,-34.24 0.84512,-8.27839 2.49632,-16.4448 3.8784,-24.64 2.0704,-12.27839 2.46464,-26.312 7.5168,-37.76 -2.2736,0.97952 -2.96,3.66336 -4.9904,4.51584 -2.38784,1.00256 -7.48064,-0.70144 -9.18848,1.52832 -1.15776,1.51168 -1.27392,4.60064 -1.71296,6.43584 -1.39552,5.83201 -2.368,11.6768 -3.28192,17.6 -1.50976,9.7888 -2.64992,19.60001 -3.71584,29.44 -0.52992,4.896 -0.4768,10.28481 -1.79776,15.04001 -1.22432,4.40959 -4.02752,8.61439 -5.88384,12.8 -2.19072,4.94079 -4.18624,9.8912 -6.63136,14.71999 -1.25504,2.48001 -2.496,5.35681 -5.03744,6.72001 0.23264,-8.74881 1.69472,-17.52641 2.46688,-26.24 1.11712,-12.60161 1.65696,-25.6192 3.8976,-38.08001 0.80704,-4.48639 2.63456,-8.72639 3.79968,-13.11999 1.73024,-6.52161 2.8608,-13.47264 3.69568,-20.16001 1.11392,-8.92223 2.5712,-17.7088 4.01664,-26.56 0.40704,-2.49439 -0.12832,-7.69759 1.9152,-9.46112 1.62048,-1.39808 4.53888,-0.71904 6.44832,-0.45696 5.36288,0.73664 10.7376,1.5984 16,2.87808 0.81344,-1.23808 2.11648,-2.392 2.48096,-3.8608 0.54048,-2.18016 -0.71616,-5.168 1.54464,-6.67904 3.29056,-2.19936 9.1136,-2.62687 12.9344,-3.68543 5.69216,-1.57665 13.24192,-5.384 19.2,-3.92065 5.0592,1.24288 8.85056,6.15424 12.8,9.31392 9.62144,7.6976 19.04896,15.66113 28.48,23.58177 3.37248,2.83231 7.8496,8.24671 12.16095,9.48767 3.0816,0.88704 7.496,-2.496 9.91904,-4.0592 5.8656,-3.78431 12.736,-8.1744 19.84,-8.97823 m -11.52,-29.76001 6.4608,9.28 1.8304,4.0784 -2.2112,2.3216 c -2.4576,-4.26912 -7.1424,-10.46848 -6.08,-15.68 m -2.56,2.56 c 2.3552,4.2304 10.096,12.80064 4.48,16.32001 -1.9552,-4.61473 -5.6064,-11.15873 -4.48,-16.32001 m -172.47999,0.64001 -1.92,2.56 1.92,-2.56 m 78.4,8.95999 v 0.32 c 4.31072,0.35872 6.6336,2.07776 9.28,5.44 h 0.32 c -0.43552,-1.5104 -1.99872,-4.05472 -1.11168,-5.56704 2.25792,-3.85088 9.93856,-2.0416 11.22944,1.73216 0.6912,2.02112 -1.30496,4.74016 -1.79776,6.71488 1.60448,-1.25312 5.83328,-4.73856 5.12,-0.32 l 0.32,0.32 0.96,-7.36 8.96,6.08001 c -2.0176,-4.62944 -6.61344,-4.71489 -10.04576,-7.52321 -1.33824,-1.09504 -0.73664,-3.08511 -1.9168,-4.15583 -1.18976,-1.07936 -3.1296,2.58144 -2.89568,-0.70529 0.0246,-0.34687 0.0922,-0.71616 0.13824,-1.05567 l -18.56,6.07999 m -115.84,-4.16 c -2.81216,4.60832 -6.81216,-0.74431 -1.94688,-0.41759 0.66688,0.0448 1.30624,0.24352 1.94688,0.41759 m 48.96,3.20001 c -1.8032,4.66975 -6.49952,8.47423 -9.77152,12.15999 -3.50176,3.94496 -6.97888,7.9456 -10.15552,12.16001 -1.77248,2.35199 -3.17504,5.30943 -5.68672,6.98176 -2.15744,1.43647 -5.18752,1.69407 -7.66624,2.29823 4.61568,-10.35936 11.7808,-20.00896 20.8,-26.9536 3.55712,-2.73856 8.04928,-5.70848 12.48,-6.64639 m 102.4,0 0.64,5.44 -5.44,-3.20001 c 2.4592,3.04704 6.78752,7.22944 10.88,7.68 l -0.32,2.24 -1.28,-0.32 -0.32,0.32 c 0.69216,1.71489 2.35008,0.97825 2.72864,-0.6416 0.8944,-3.82688 -3.35936,-10.47008 -6.88864,-11.51839 m -147.52,2.56 c 2.0976,0.60031 7.09824,1.55552 7.56128,4.15711 0.30368,1.70688 -2.3632,2.97185 -3.40192,3.91232 -3.8496,3.48481 -7.1312,7.4736 -12.47936,8.54048 -2.31296,0.46112 -7.49664,-0.0643 -6.29824,-3.78079 0.55392,-1.71745 2.65952,-2.58753 4.05824,-3.48193 1.75264,-1.12064 3.16256,-2.66687 4.88992,-3.79392 2.58112,-1.68352 5.03296,-2.09472 5.67008,-5.55327 m 12.16,3.83999 c -1.03424,2.87232 -3.11488,6.77632 -6.4,7.04001 1.24032,-2.97025 3.77344,-5.26369 6.4,-7.04001 m 81.28,0.96 c 0.82912,2.59777 1.99648,4.89408 1.6,7.68 2.39264,0.2128 3.85248,-0.90335 4.48,-3.2 l -6.08,-4.48 m 125.11999,8.96001 c -6.624,1.90463 -12.736,4.07648 -18.24,8.35935 -0.91552,0.71233 -4.03264,4.14657 -5.32864,2.76161 -1.49472,-1.59777 4.02048,-5.66624 4.98944,-6.58305 2.7552,-2.61183 5.5648,-5.16672 8.3392,-7.76096 1.1936,-1.11712 2.6688,-2.86144 4.4768,-2.75808 2.8384,0.1616 4.6336,3.80864 5.7632,5.98113 M 386.12383,337.9463 c -1.64864,11.81408 -3.93344,23.50656 -6.272,35.2 -1.57728,7.88481 -2.89088,16.064 -5.52384,23.68 -3.33728,9.65441 -8.37184,18.7488 -12.3184,28.16 -7.48864,17.856 -14.37248,36.3552 -19.4624,55.04001 -3.82528,14.0416 -7.30624,27.6608 -7.9744,42.23999 -0.33824,7.37601 -0.96224,12.85761 1.95104,19.84001 h 0.32 c -0.24128,-3.7824 -2.13792,-7.4432 -2.09024,-11.2 0.1712,-13.57121 4.29664,-28.18561 7.57024,-41.28001 4.87456,-19.4976 11.37824,-38.624 18.84,-57.27999 3.55328,-8.88321 6.93472,-18.15041 11.52,-26.56 h 0.32 c -1.06976,18.40319 -4.4464,36.64959 -5.80896,55.03999 -0.20864,2.8192 1.04704,4.9664 1.46176,7.68 0.6512,4.256 0.52896,9.872 -0.38624,14.08 -0.87776,4.0352 -3.03168,8.00321 -4.54304,11.84 -3.2192,8.1696 -6.5232,16.30081 -9.28352,24.64 h 0.32 l 13.44,-32.64 h 0.32 c 1.32448,16.6528 1.59424,33.536 2.51296,50.24001 0.39488,7.18079 -0.14208,15.024 1.24416,22.08 1.6832,8.56959 5.64576,17.21919 8.9136,25.28 1.25952,3.1072 4.34176,7.79839 4.16672,11.19039 -0.0893,1.73441 -1.77984,2.8448 -3.08032,3.7184 -3.52544,2.36481 -7.36,4.7168 -11.19712,6.5312 v 0.32001 l 15.68,-8 17.6,33.91999 c -10.5136,0.016 -21.18848,0.1952 -31.68,0.8928 -5.24832,0.34881 -10.9296,0.2176 -16,1.80481 -5.19712,1.63199 -10.17088,5.0272 -15.04,7.4624 -12.98656,6.4928 -25.8448,13.8144 -39.68,18.31999 0.81952,-5.03039 8.77504,-8.1024 12.8,-10.3712 13.97248,-7.8784 29.53056,-13.4656 44.16,-20.02879 v -0.32001 c -7.8768,1.63521 -15.14784,5.67041 -22.4,8.9888 -5.56448,2.54401 -11.44384,4.29121 -16.96,6.94401 -6.13344,2.95039 -11.66912,6.72 -17.6,9.9872 0.0742,-4.384 0.87424,-12.5056 4.104,-15.78561 1.52288,-1.5488 4.14688,-1.5168 6.136,-2.00959 4.24384,-1.05921 8.59872,-2.2144 12.8,-3.472 6.87456,-2.06081 12.66496,-5.54561 19.2,-8.288 6.23072,-2.61441 12.75168,-4.36801 18.88,-7.24481 v -0.31999 c -9.70144,0.288 -17.91264,5.9968 -26.24,10.08639 -4.7504,2.3328 -10.3312,3.4976 -15.36,5.13921 -3.576,1.168 -7.19136,1.9072 -10.88,2.6304 -1.23712,0.24 -3.06848,0.81599 -4.07904,-0.256 -1.06496,-1.12641 -0.7472,-3.39201 -0.65408,-4.80001 0.28256,-4.27199 0.81408,-8.5408 1.22848,-12.79999 1.72736,-17.7664 4.94944,-35.16801 7.61664,-52.8 3.83712,-25.3664 7.55584,-50.912 15.01152,-75.52001 8.13504,-26.8512 20.12224,-52.32 28.6528,-79.03999 5.3552,-16.77121 10.89728,-33.4592 17.16032,-49.92001 2.81888,-7.408 5.26464,-17.01663 10.58336,-23.04 m 149.64799,1.00544 c 2.128,-0.25216 4.92802,4.60608 6.04802,6.03456 4.0416,5.15808 7.9328,10.43681 11.8624,15.68001 1.3824,1.84159 4.096,4.35007 4.384,6.71999 0.3584,2.96289 -4.1472,7.8752 -5.7664,10.22721 -0.6144,0.89279 -1.456,2.28799 -2.6944,2.2976 -1.4944,0.0128 -2.5376,-1.86561 -3.264,-2.928 -1.7312,-2.53281 -7.55202,-8.66177 -6.58562,-11.83681 0.7936,-2.61087 4.85762,-5.1216 4.47682,-8 -0.4032,-3.03583 -4.85442,-6.59392 -6.43522,-9.28 -1.152,-1.95519 -2.3936,-4.14528 -2.8288,-6.39584 -0.1472,-0.7552 -0.3104,-2.38656 0.8032,-2.51872 m -212.36799,2.83457 c -2.8048,5.20479 -5.44672,10.584 -11.84,9.91999 l -1.28,-3.2 13.12,-6.71999 m -7.36,1.27999 -4.16,2.56 -0.32,-1.27999 4.48,-1.28001 m 13.44,0 c -2.6528,5.928 -8.95232,10.5392 -10.67072,16.96 -1.736,6.48672 -0.52736,14.42081 -0.89632,21.12 -0.66848,12.1344 -2.58336,24.304 -5.22176,36.16 -5.1568,23.1712 -14.78336,44.784 -21.2912,67.52 h -0.32 c 0.47328,-2.736 1.77152,-5.84959 1.47808,-8.64 -0.22176,-2.10879 -1.92896,-3.51999 -1.40672,-5.76 1.92672,-8.2656 6.53344,-15.7312 9.27904,-23.68 2.35008,-6.8064 3.01568,-14.42559 4.7696,-21.44 1.87168,-7.4848 4.99776,-15.13599 6.21024,-22.72 1.19808,-7.4944 1.2464,-15.46559 1.41696,-23.04 0.0906,-4.00959 -0.32768,-8.55936 0.56576,-12.48 1.8896,-8.28928 9.61344,-18.76768 16.08704,-24 m 124.8,5.12 c -3.72736,2.17248 -8.22816,4.66433 -10.24,8.64 3.60544,-1.09247 8.9648,-4.99136 10.24,-8.64 m 13.44,8 c -1.80704,6.9776 -7.94752,13.48097 -13.44,17.92001 3.73664,-6.2432 8.21568,-12.83297 13.44,-17.92001 m -137.6,4.48001 c -0.8064,7.06112 -2.29888,14.03295 -3.05472,21.12 -1.47968,13.87519 -2.36448,27.68959 -5.78656,41.27999 -5.65376,22.45121 -14.90976,44.22401 -22.088,66.24 -8.55168,26.22721 -15.30432,53.83041 -20.27072,80.96001 -1.36768,-0.0128 -3.32096,0.17279 -4.4176,-0.8192 -2.28192,-2.064 0.34208,-8.5024 0.8272,-11.02081 2.20832,-11.46879 4.85664,-22.83839 7.39488,-34.24 2.25952,-10.15359 3.88352,-20.8064 7.03392,-30.71999 2.8464,-8.95681 7.41312,-17.40801 10.63872,-26.24 7.91648,-21.67681 14.60544,-44.70401 18.10624,-67.52001 1.43488,-9.3504 1.33088,-18.7904 2.50624,-28.16 0.76544,-6.10432 2.11712,-10.68191 9.1104,-10.87999 m 77.12,2.56 c -3.27168,22.26879 -7.98048,44.07999 -9.832,66.56 -1.59328,19.344 -1.90784,38.56959 -2.3408,57.91999 -0.2384,10.6624 -0.94592,21.3184 -0.6064,32 0.24352,7.66081 2.22208,15.1104 2.5392,22.72 -1.67456,0.003 -4.54112,0.6496 -5.94368,-0.44159 -2.37888,-1.84961 -2.4528,-7.06561 -2.79616,-9.79841 -1.15712,-9.216 -1.50016,-18.2464 -1.50016,-27.51999 0,-15.03041 1.6736,-30.096 2.51328,-45.12001 1.19168,-21.3216 2.3376,-42.5504 5.61248,-63.68 1.19328,-7.69919 2.3984,-15.39519 3.9072,-23.04 0.44704,-2.26496 0.46112,-6.85792 2.17024,-8.53151 1.34752,-1.31873 4.52736,-1.03937 6.2768,-1.06848 m 22.4,2.24 c -0.64832,3.70112 -0.32256,7.47328 -1.00288,11.2 -1.02432,5.61279 -2.9184,11.03679 -4.01792,16.63999 -2.99936,15.28641 -5.0784,30.8512 -6.11264,46.4 -0.69056,10.3808 0.007,20.6656 0.24064,31.04 0.20224,8.9568 -0.11584,17.9232 0.0202,26.88 0.1408,9.27681 0.63264,18.56 0.63264,27.84001 0,2.65919 1.17184,8.0128 -0.0848,10.33279 -0.912,1.68001 -3.99488,1.91681 -5.6752,2.1472 -1.96512,-17.2448 -1.28,-34.2112 -1.28,-51.52 0,-17.2192 -0.59296,-34.6528 0.36768,-51.84 0.54816,-9.8048 2.35328,-19.70879 3.64704,-29.44 1.37568,-10.34559 2.63872,-21.008 5.60608,-31.03999 1.12416,-3.80192 2.71712,-9.2976 7.6592,-8.64 m 73.91999,2.23999 0.32,0.32 -0.32,-0.32 m -116.15999,11.20001 -1.32736,14.71999 -0.91264,26.88 h 0.32 c 1.36032,-9.28319 1.78112,-18.4896 2.28736,-27.83999 0.22464,-4.15041 1.32416,-9.856 -0.36736,-13.76 M 670.60384,503.0663 c -1.84,-1.83999 -3.0912,-4.0608 -5.1296,-5.7344 -7.616,-6.2528 -17.7312,-10.35519 -26.8704,-13.8336 -4.2112,-1.6032 -8.4896,-3.07519 -12.8,-4.38399 -2.0864,-0.6336 -5.0656,-1.1136 -6.7552,-2.5664 -1.5456,-1.3248 -0.9088,-4.61121 -1.0688,-6.4416 -0.5664,-6.47681 -0.09,-13.04001 -0.5856,-19.52001 -0.9984,-13.0272 -9.3088,-26.288 -15.5968,-37.44 -1.9904,-3.52959 -4.016,-7.03999 -6.0288,-10.56 -0.8544,-1.4944 -2.3136,-3.328 -2.3328,-5.11999 -0.029,-2.70401 3.1168,-6.12161 4.528,-8.32001 3.1936,2.0992 5.6416,5.49441 8.176,8.32001 4.8032,5.35039 9.4912,10.79359 14.0896,16.32 15.2736,18.3648 29.6672,38.10239 40.3744,59.51999 4.4736,8.9504 9.7152,19.56801 10,29.76 M 469.64383,392.66637 c 3.20928,2.7616 5.55392,6.49599 8,9.91999 6.40768,8.9696 11.31584,18.3392 12.8,29.44 -9.28704,-6.03199 -12.67808,-18.1248 -16.95264,-27.84 -1.45184,-3.29919 -4.3792,-7.8208 -3.84736,-11.51999 m -14.4,8.63999 c 9.04896,13.712 16.26816,28.4992 26.28992,41.60001 2.6432,3.45599 5.4784,6.8096 8.91008,9.5072 2.17088,1.70879 5.55936,2.97279 6.7888,5.5744 2.10111,4.44799 2.45087,10.21119 3.45983,14.99839 2.39712,11.3696 4.42464,22.7904 6.39136,34.24001 -13.25887,-0.0192 -24.27679,-8.5664 -32.23423,-18.56 -14.09664,-17.70241 -23.1056,-41.56481 -23.12544,-64.32 -0.007,-7.42081 0.2048,-16.23041 3.51968,-23.04001 m 123.20001,4.16001 c -3.36,3.95519 -6.6528,8.4608 -8.96,13.11999 3.5424,-2.90559 8.256,-8.4256 8.96,-13.11999 m 8.96,0.64 c 7.0368,11.0144 9.9968,24.91199 13.2448,37.43999 2.1568,8.32 5.1264,17.0272 5.9552,25.6 -11.9936,-5.936 -20.7872,-15.86879 -28.4352,-26.56 -1.984,-2.7744 -6.7648,-7.3504 -6.8768,-10.88 -0.08,-2.4224 1.84,-5.3472 3.0176,-7.35999 2.1312,-3.64161 4.9536,-6.8288 7.4208,-10.24 1.904,-2.6336 3.4464,-5.62881 5.6736,-8 m -30.72,32 c 4.544,-1.60001 10.1504,-10.12481 11.2,-14.72001 l -6.2944,7.68 -4.9056,7.04001 m -169.92001,0 c -0.0106,7.37919 -1.48064,14.6976 -1.59264,22.07999 -0.0883,5.80801 1.01472,13.64481 -0.63264,19.2 -1.82176,6.144 -7.66016,12.60481 -11.21472,17.92 h -0.32 l -0.352,-18.88 -0.12032,-10.56 5.33952,-11.51999 8.2528,-18.24 h 0.64 m 126.07999,24.95999 -0.32,0.32 0.32,-0.32 m -145.27999,5.76 -13.44,37.76 h 0.32 c 4.34432,-8.11839 7.35072,-17.28 10.50112,-25.91999 1.26912,-3.48161 3.43872,-8.08641 2.61888,-11.84001 m -106.56,100.80001 13.13088,-45.12001 8.9008,-30.08 6.44832,-19.51999 c 1.81568,1.77919 0.74304,4.22719 0.2,6.39999 -1.29632,5.19041 -2.71456,10.38401 -3.51872,15.68 -2.89632,19.072 -8.576,37.77921 -12.6048,56.64001 -0.84768,3.968 -0.89152,12.2528 -4.11136,15.0336 -2.08192,1.79519 -5.94592,1.45279 -8.44512,0.9664 m 161.28,-93.44001 5.76,14.08 -6.08,1.28 0.32,-15.36 m -131.2,71.68001 c 4.09696,-19.74401 16.33856,-37.6896 26.99552,-54.4 2.59808,-4.07361 5.09984,-8.25601 7.95264,-12.15681 0.65504,-0.89599 2.32864,-3.6032 3.77888,-2.848 1.3168,0.6816 0.18048,3.45601 -0.104,4.44481 -1.3264,4.62079 -2.95872,9.15199 -4.33536,13.76 -1.52512,5.10399 -2.12768,11.17439 -4.29376,16 -1.81696,4.048 -5.26336,7.4048 -7.93888,10.87999 -6.42656,8.352 -13.84288,17.664 -22.05504,24.32001 m 93.44,-64.32001 c -6.4e-4,6.48641 -0.24224,13.04321 -0.59264,19.52 -0.152,2.8096 0.38144,5.8976 -0.33728,8.64 -1.67872,6.4096 -6.73216,13.03041 -10.27008,18.56001 h -0.32 l -0.352,-20.48 0.28064,-8 4.02176,-7.04001 7.5696,-11.2 m 49.92,4.80001 0.32,0.32 -0.32,-0.32 m -13.44,14.71999 c 0,-4.8736 -0.95872,-8.26239 4.48,-9.63839 0.9584,-0.24321 2.09824,-0.64641 3.08672,-0.34881 1.33472,0.4 6.22432,5.6672 5.56672,7.0144 -1.47712,3.02401 -10.21696,2.7392 -13.13344,2.9728 m 11.84,1.92 c -3.61248,1.5424 -7.9104,4 -11.84,4.16 1.9856,-3.92319 7.71264,-5.7344 11.84,-4.16 m 0.64,2.88 0.41344,8.752 -11.21664,8.04161 -1.0368,5.6064 h -0.32 c -0.54656,-3.65761 0.41568,-6.92801 1.92,-10.24 l -1.6,0.32 0.96,-8.32 -1.28,1.59999 h -0.32 v -3.2 l 5.4192,0.0704 7.0608,-2.63041 m -133.76,1.60001 c 3.52448,6.58879 -1.48544,12.23999 -5.12,17.91999 h -0.32 c 0.54144,-5.5392 2.68384,-13.07519 5.44,-17.91999 m 84.16,5.76 1.112,13.12 2.088,11.19999 -12.8,3.84001 -0.10848,-10.24 3.94752,-7.36 5.76096,-10.56 m 52.60544,4.11519 c 1.17312,0.34561 1.12512,1.95521 1.14688,2.928 0.0563,2.5216 1.02592,8.1792 -0.53856,10.272 -0.68384,0.9152 -1.95584,0.864 -2.97536,0.80001 -2.70432,-0.16641 -6.63136,0.528 -9.144,-0.48 -2.31392,-0.92481 -1.63232,-4.128 -0.688,-5.79201 1.784,-3.14559 5.16864,-4.784 8.2336,-6.42879 1.06336,-0.5728 2.68992,-1.67681 3.96544,-1.29921 m -143.48544,2.9248 c -0.28608,2.16 -1.06592,4.71361 0.64,6.40001 l -0.96,2.56 c -1.99872,-2.6656 -1.40544,-6.29121 0.32,-8.96001 m 23.04,2.88 c 2.34496,4.13761 1.51008,8.63041 0.86848,13.12001 -0.97536,6.8288 -1.87168,13.6928 -3.10848,20.48 -2.7168,14.90559 -6.112,30.08959 -7.9408,45.12 -1.62784,13.3792 -1.81856,27.168 -4.83264,40.31999 -1.33504,5.82721 -1.23232,14.28481 -4.18816,19.4688 -1.42208,2.49281 -4.47616,4.3072 -6.7184,6.0032 -1.90688,1.44641 -3.70752,2.816 -6.08,3.328 l 4.8,-17.59999 c -2.89792,-0.1504 -2.8304,-3.48161 -2.8736,-5.76 -0.1312,-6.92481 -1.66048,-13.6448 -2.61024,-20.48 -0.53376,-3.84321 -1.58688,-8.2848 -1.24672,-12.16001 0.42944,-4.8896 2.42816,-9.69919 2.86368,-14.71999 0.46816,-5.39521 -0.30464,-11.84001 1.552,-16.96001 5.3312,-14.7008 15.21376,-28.06079 19.27488,-43.19999 h -0.32 c -4.09088,8.848 -8.94944,17.3376 -12.97376,26.23999 -2.16032,4.7808 -3.65184,11.1104 -7.18624,15.04001 -0.80832,-4.3872 0.74848,-9.43361 1.54112,-13.76 0.88192,-4.8128 1.11296,-10.56321 3.14048,-15.04 1.73856,-3.8368 5.07488,-6.752 7.75808,-9.91681 5.68512,-6.70079 11.65056,-13.71839 18.28032,-19.5232 m 95.36,13.44 c 0.776,3.68001 4.41824,2.20481 7.04,1.6 -3.2e-4,1.42721 0.42688,3.93281 -0.72096,5.024 -1.06112,1.00801 -2.90688,0.2528 -4.07904,-0.12159 -3.49184,-1.12 -6.8672,-2.4256 -10.56,-2.66241 0.54112,0.27201 4.4704,1.60641 2.56,2.88 -0.93536,0.62401 -2.33728,-1.05599 -2.88,-1.6 -1.99424,-1.99359 -4.15072,-5.0848 -4.8,-7.67999 -0.73952,-2.95681 5.07808,-5.7184 7.04,-7.68 0.84256,-0.84161 2.15616,-2.416 3.52,-1.92001 1.66624,0.60481 1.79904,7.55201 1.92,8.64 0.15136,1.36 -0.0838,3.78241 0.96,3.52 m -120.96,-8.64 c 1.57696,5.18081 -0.4496,9.97441 -1.62528,15.04001 -1.34784,5.808 -2.00064,11.70559 -2.81056,17.6 -0.41344,3.008 -0.0986,8.43199 -2.92416,10.23999 l -0.32,-1.6 h -0.32 l -1.6,2.24 5.47584,-27.19999 4.12416,-16.32001 m 155.52,23.04001 c -6.22208,-1.09121 -14.59392,-4.2816 -20.8,-2.24 v 0.31999 l 6.4,1.60001 -0.32,0.96 6.72,-0.32001 v 0.32001 l -3.84,1.28 v 0.32 l 11.2,-0.96 v 0.32 l -2.24,1.28 v 0.31999 l 5.12,0.32001 c -11.36288,3.67999 -22.58944,-2.9664 -33.28,-5.44001 v -0.31999 c 1.56064,-0.2848 3.64928,-0.3328 4.92352,-1.376 2.16256,-1.77281 0.27072,-5.9776 -0.12352,-8.224 4.16992,-0.32641 4.80544,-3.4784 4.16,-7.04 3.8288,0.1536 10.34432,0.0448 13.63072,2.17279 1.70016,1.10081 2.30496,3.45921 3.14752,5.18721 1.84832,3.79199 4.25728,7.3952 5.30176,11.52 m -23.04,-16.32 -1.92,2.87999 1.92,-2.87999 m -110.4,1.91999 c -2.15264,3.2608 -4.3664,6.672 -5.12,10.56001 h 0.32 c 1.84928,-2.96001 4.77248,-6.95361 4.8,-10.56001 m 74.24,2.88001 c 2.06368,3.50399 4.46464,6.112 8.64,6.71999 v -0.31999 l -2.56,-1.28001 c 3.02176,-0.8864 6.33152,0.39361 9.28,1.29601 6.68768,2.0384 14.16704,3.9968 20.16,7.66399 v 0.32001 l -10.24,0.95999 v 0.32001 c 7.8848,0.003 15.94176,0.7168 23.68,2.24 v 0.31999 c -5.336,2.4832 -10.84864,1.792 -16.31296,3.712 -4.2752,1.504 -5.3104,5.24161 -10.56704,3.648 l 2.24,16 -3.84,-0.64 c -2.06752,7.7952 -3.62496,16.2432 -3.84,24.32001 h 0.32 l 4.16,-22.08 c 3.82016,0.55039 5.36608,3.8432 4.16,7.36 4.29216,1.8944 2.27616,9.4944 6.4,12.15999 l -2.24,17.28 h 0.32 l 3.2,-15.04 c 8.68,2.37121 9.92064,9.12 12.928,16.64 3.2864,8.21761 6.8848,16.2656 10.54592,24.32001 1.74208,3.83359 2.84896,8.07999 5.32608,11.52 -0.25888,-2.30401 -2.3008,-5.79521 -0.43072,-7.7568 2.2736,-2.3872 6.71552,-1.8624 9.71072,-2.1024 7.22656,-0.58561 14.64224,-1.93601 21.76,-3.24801 2.63072,-0.4832 6.87968,-2.60799 9.4688,-1.5104 2.76608,1.1744 5.02144,5.38241 6.9808,7.57761 5.08671,5.69599 11.08415,10.7008 15.87039,16.64 -9.1664,-0.0512 -17.83807,-3.5104 -26.87999,-4.3584 -10.8672,-1.0208 -22.27712,1.3952 -32.32,5.44959 -4.59968,1.856 -9.19584,3.7344 -13.76,5.67681 -1.00544,0.42559 -3.86816,2.18239 -4.85184,1.07839 -1.21248,-1.35999 1.17472,-4.7424 1.83968,-5.9264 1.84352,-3.28319 3.568,-6.65279 5.456,-9.90719 1.08896,-1.8784 2.40544,-3.2256 2.67616,-5.45281 -5.04256,4.52161 -8.3296,10.736 -12.05344,16.32001 -1.92096,2.88 -3.7472,6.4032 -7.14656,7.67999 -1.152,-7.23519 -3.9728,-13.93279 -6.392,-20.79999 -2.24576,-6.37441 -4.30496,-13.0688 -7.15264,-19.20001 -10.62464,-22.8736 -24.89824,-44.35519 -31.89536,-68.79999 l 22.08,3.83999 c -6.19392,-5.4304 -16.1392,-3.4848 -22.87136,-7.40799 -1.29568,-0.75521 -1.73056,-2.4928 -2.26688,-3.792 -1.62048,-3.9232 -2.06208,-6.976 -2.06176,-11.20001 0,-1.5616 -0.3632,-3.8144 0.72096,-5.10719 2.28256,-2.72 8.51072,-3.8464 11.75904,-5.1328 m -34.88,17.28 3.52,-8.64 -8.03008,7.12 -2.88576,3.76 0.99584,6.07999 c 2.94848,-1.0144 5.4896,-2.99839 8,-4.80319 5.63264,-4.0544 12.304,-8.3008 13.12,-15.67681 l -14.72,12.16001 m 65.92,-10.56001 h -2.24 2.24 m 3.52,3.52 v 0.32001 h 2.56 l -2.56,-0.32001 m -36.8,4.16001 v 0.31999 c 3.1968,1.80801 6.52448,3.55201 10.24,3.84001 v -0.32001 l -10.24,-3.83999 m 75.18496,2.4448 c 3.15808,-0.3392 3.19168,4.11839 1.34336,5.74079 -2.55072,2.24 -7.75552,2.68481 -10.92832,3.7728 -1.4304,0.48961 -2.9472,1.4336 -4.48,1.4944 -2.38528,0.0928 -7.53376,-4.27839 -4.30848,-6.32959 1.5472,-0.9824 3.83264,-1.24481 5.58848,-1.7088 4.08064,-1.08161 8.59552,-2.5184 12.78496,-2.9696 m -74.54496,0.11519 c 2.17696,2.7584 5.46688,4.736 8.32,6.736 3.51104,2.46081 7.18848,5.6544 11.52,6.384 l -6.72,-4.8576 -13.12,-8.2624 m -31.04,5.12 c -8.22048,6.9472 -14.99776,15.74081 -21.8384,24 -5.55488,6.70721 -11.96224,13.776 -15.6016,21.76 3.80544,-3.39839 6.4944,-8.1248 9.57664,-12.15999 5.14016,-6.7328 10.6048,-13.2672 16.3168,-19.52 3.4288,-3.7536 10.31936,-9.04321 11.54656,-14.08001 m 112.96,1.28 c 5.3456,12.8896 10.16224,26.17601 13.71808,39.68001 1.09376,4.1536 4.44672,10.6272 2.19136,14.6976 -1.7072,3.08159 -5.42752,3.12 -8.54944,3.6864 -4.80224,0.8736 -10.15776,2.61759 -15.04,2.58239 -2.2656,-0.016 -4.48928,-0.80639 -6.72,-1.1264 -5.32384,-9.92959 -11.7712,-19.4688 -16.36512,-29.76 -3.64928,-8.17279 -6.0048,-17.52 -7.95488,-26.24 1.9616,-0.784 4.5792,-2.00319 6.6992,-1.19359 3.29664,1.2608 4.63264,5.44639 8.02176,6.54719 2.16032,0.70401 4.68992,-0.5184 6.71904,-1.19359 5.31104,-1.76641 13.97888,-2.8832 17.28,-7.68001 m -42.56,1.6 c 0.53632,3.76 2.33408,7.5296 3.38272,11.20001 1.50016,5.25119 2.38304,10.94719 4.45824,16 3.66944,8.9376 9.36096,17.5648 14.19872,25.91999 1.57856,2.72641 4.30048,5.872 5.01216,8.96001 0.6608,2.8672 -2.22432,8.18239 -4.65184,9.59999 l -2.24,-5.76 h -0.32 l 0.96,5.12 c -2.4368,-1.43359 -2.87584,-3.8816 -3.74016,-6.4 -1.45856,-4.25279 -3.60736,-8.40639 -4.57984,-12.79999 l -2.24,2.55999 h -0.64 l 1.6,-4.15999 c -3.74624,0.128 -4.1168,-4.85761 -5.12,-7.68001 l 5.67232,4.84801 5.20768,10.192 c -1.07552,-10.9888 -7.96736,-20.8832 -11.88256,-31.04001 -1.08832,-2.82239 -1.1936,-5.7248 -1.87744,-8.64 h -0.32 v 1.6 h -0.32 l -1.28,-8.64 -0.96,0.64 -1.28,-6.08 c -1.69408,0.1088 -3.7008,-0.896 -5.31232,-0.32959 -2.168,0.76159 -1.40768,4.95679 -1.40768,6.7296 2.31552,-0.0288 4.00832,-0.27841 5.44,-2.24 h 0.32 l 4.16,17.6 -5.12,-0.96 0.32,5.75999 c -2.88416,-2.40319 -4.69344,-5.66399 -6.4,-8.96 0.8208,0.144 5.10688,1.83361 5.41536,1.2096 0.85184,-1.72799 -4.76192,-3.5936 -5.56384,-4.65599 -2.808,-3.71521 -2.24,-11.28961 -3.69152,-15.7536 l 10.24,-0.32001 -0.64,-3.83999 3.2,0.31999 m -145.92,5.76 c -1.00576,0.1184 -4.05824,1.856 -4.74912,1.472 -0.81152,-0.448 0.648,-1.4592 0.97728,-1.6224 1.28768,-0.6336 2.61408,-0.68479 3.77184,0.1504 m -19.84,-0.32 c -1.57856,3.1968 -5.01568,4.2688 -6.72,0.64001 l 6.72,-0.64001 m 3.84,2.56 c 1.18528,-1.2 2.39744,-1.9488 4.15168,-1.824 0.59168,0.0416 3.00512,0.6624 2.03968,1.70881 -0.84896,0.92159 -4.71296,-0.3296 -6.19136,0.11519 m 127.68,-0.96 v 0.32001 l 7.36,2.24 c -1.87648,-1.93281 -4.80928,-2.18241 -7.36,-2.56001 m -112,2.56001 c -0.38048,4.768 -0.1536,11.51999 -2.27936,15.87199 -1.3216,2.704 -5.32576,1.68 -6.0544,5.568 -0.7008,3.73761 2.30176,4.1088 5.13376,3.52 -0.9104,2.25601 -6.35584,9.51041 -7.74976,3.4944 -0.3968,-1.712 0.22368,-3.68959 0.3488,-5.4144 0.26336,-3.62879 0.3776,-7.2512 0.6144,-10.88 0.0454,-0.69759 0.19168,-6.3392 -1.77152,-4.64 -1.15744,1.00481 -0.70848,3.6128 -0.72928,4.96001 -0.0672,4.36479 -0.41664,8.75839 -0.67776,13.12 -0.17664,2.944 -0.04,6.07359 -0.65824,8.95999 -0.49312,2.30401 -1.75456,4.40961 -2.10048,6.72 -1.63328,10.912 -2.07392,22.2752 -2.95616,33.28 h -0.32 l -2.24,-2.24 1.23264,-16.95999 0.0794,-23.36 1.568,-29.44001 c -4.2176,1.1264 -3.07296,9.6608 -3.37472,13.12 -1.22304,14.0128 -0.61824,28.1984 -1.37792,42.24 -0.208,3.84321 -0.13088,7.69281 -0.63424,11.52 -0.17184,1.3088 -0.30688,3.29281 -1.81152,3.76 -8.96448,2.7744 -7.22336,-9.5136 -7.64352,-14.95999 -1.04768,-13.57761 -0.3408,-27.74401 0.87648,-41.28001 0.34176,-3.79839 -0.39456,-11.25119 1.83808,-14.43519 1.24512,-1.77601 5.74624,-0.8704 7.64736,-1.0144 7.67808,-0.5824 15.3568,-0.8768 23.04,-1.5104 m -8,2.24 c 0.33056,1.79839 1.97792,7.46239 4.88352,5.57439 1.56864,-1.0176 1.67904,-4.864 -0.0272,-5.8048 -1.36544,-0.75519 -3.4288,-0.0128 -4.85632,0.23041 m 98.88,9.59999 c 3.47648,-2.2048 6.26688,-6.07679 8.32,-9.59999 -3.88448,1.09439 -6.80992,6.09279 -8.32,9.59999 m -87.68,-8.64 0.64,3.2 c -0.83872,-1.1008 -1.10016,-1.87199 -0.64,-3.2 m 175.36,14.08 c -0.82688,7.1712 -10.66112,5.88481 -12.74336,-0.1408 -1.25312,-3.62559 2.85056,-6.3328 5.70272,-6.8256 1.13824,-0.1952 3.77344,-0.48 3.42848,-2.2304 -0.41856,-2.12799 -4.6464,-0.87039 -5.9872,-0.6432 -4.12768,0.69761 -6.46848,5.48801 -6.792,9.5072 -0.256,3.18401 6.68192,8.90881 9.67136,9.04001 2.27264,0.0992 4.4176,-1.53601 6.72,-0.92481 2.23872,0.59521 3.80608,2.7136 5.76,3.8432 2.14592,1.24161 7.47168,0.64 9.288,-1.16159 1.00672,-0.99841 0.21824,-2.19201 -1.01824,-2.336 -4.14432,-0.4832 -8.856,2.02239 -11.0368,-3.6704 -0.27104,-0.7072 -0.26208,-1.47201 -0.19392,-2.21441 0.32064,-3.4976 2.93408,-3.5584 5.84032,-4.0416 1.12896,-0.1856 3.15552,-0.37759 3.42848,-1.792 0.416,-2.1568 -2.96,-1.54879 -4.06784,-1.3824 -3.4704,0.5184 -7.86336,0.76801 -11.10048,2.13441 -3.87904,1.63519 1.62272,2.88639 3.10048,2.83839 m -29.65344,-9.38559 0.10688,0.21119 -0.10688,-0.21119 m -145.06656,0.7456 c 1.43712,4.11519 0.0755,8.65919 -0.64,12.79999 h -0.32 c -0.5536,-3.78559 -1.6944,-9.58399 0.96,-12.79999 m 145.6,1.6 -0.32,0.31999 0.32,-0.31999 m -152,10.24 c -1.71168,-0.84801 -2.76832,-0.84801 -4.48,0 1.4192,-1.7024 3.0608,-1.7024 4.48,0 m 156.16,7.36 -8.96,-4.80001 c 1.12864,-0.8672 2.83872,-2.5248 4.36512,-2.40959 2.5392,0.19199 4.18272,5.1744 4.59488,7.2096 m -158.4,-7.36 v 2.55999 h -0.32 l 0.32,-2.55999 m 8.64,3.83999 -0.96,9.92001 h -0.32 l 0.32,-7.36 -3.52,-2.24 4.48,-0.32001 m -5.12,6.40001 c -1.59648,3.1776 -4.73312,5.44959 -8,6.71999 l -0.64,-2.88 c 3.58016,-0.43839 5.65472,-2 8.64,-3.83999 m 0,3.19999 c 0,16.21121 0.32,32.41921 0.32,48.64 v 13.76 c 0,1.9584 0.4128,4.5216 -0.40096,6.352 -1.48192,3.3376 -7.1744,6.69761 -10.15904,8.68801 l 0.3856,-12.48 1.53568,-4.6848 4.79872,-1.0752 c 0,-14.07681 -0.64,-28.16321 -0.64,-42.24 0,-6.52481 -1.4208,-12.544 4.16,-16.96001 m 2.56,4.48 c 0.82432,5.30881 0.32576,10.70081 1.18208,16 1.8768,11.6096 5.76928,23.88161 1.69792,35.52 l -1.6,-0.64 0.64,5.12 h -0.64 l -1.6,-39.36 0.32,-16.64 m -9.28,0.64 c 1.68032,7.6128 0.64,16.23361 0.64,24 -2.40768,-1.4624 -2.84416,-3.7312 -2.87552,-6.39999 -0.0634,-5.4208 -0.83104,-11.7088 0.63552,-16.96001 l 1.6,-0.64 m 97.92,5.44001 v 0.31999 c 4.94176,-0.2272 10.28512,-2.02879 14.72,-4.15999 -4.50016,-0.2464 -10.74112,1.8304 -14.72,3.84 m 67.84,0.31999 c 2.25408,3.56481 3.31872,7.648 4.90624,11.52 1.8272,4.45761 4.05024,7.5168 4.05376,12.48 h -0.32 c -2.70912,-5.23519 -5.12768,-10.7392 -7.0112,-16.31999 -0.82304,-2.4384 -2.10848,-5.0624 -1.6288,-7.68001 m 46.72,2.88 c 0.18336,3.4528 -3.77472,3.6032 -6.4,4.3424 -7.2864,2.0608 -14.91008,3.5168 -22.4,4.61761 l 0.64,-2.88 c 6.74272,-1.33761 14.92448,-4.1472 21.76,-2.88 v -0.32001 l -0.96,-0.31999 v -0.32001 l 7.36,-2.24 m -103.68,1.6 c -4.33536,1.32801 -12.36416,2.7968 -14.72,7.04 5.16128,-1.7152 10.41248,-3.83999 15.04,-6.71999 l -0.32,-0.32001 m -114.56,0.64 0.30208,10.88 -1.26208,19.52 h -0.32 c -1.0096,-7.2352 -1.28864,-14.46399 -0.6992,-21.76 0.23648,-2.9312 0.128,-6.21119 1.9792,-8.64 m 212.05344,1.0656 0.21312,0.1088 -0.21312,-0.1088 m 6.50656,1.49441 c -0.45856,2.31359 -0.91776,7.904 -2.8864,9.3728 -1.08352,0.80959 -2.88352,0.54719 -4.1536,0.54719 v 0.32001 l 2.24,0.31999 v 0.32001 l -28.8,4.79999 3.2,-5.76 -0.96,0.32001 c 0.6192,-4.5696 4.14272,-4.54081 8,-5.312 7.78528,-1.5584 15.5536,-3.5552 23.36,-4.928 m 1.92,2.55999 c -0.21696,2.0992 0.54528,4.3936 -0.96,6.08001 -0.50208,-2.37441 -0.73632,-4.1568 0.96,-6.08001 m -79.36,4.48 c 2.6848,3.0496 2.86848,6.6464 2.88,10.56 -8.63616,-4.9408 -18.7152,-7.34399 -28.48,-9.28 8.04384,-1.94559 17.36384,-0.90239 25.6,-1.28 m 8.96,24.64 c -6.11552,-3.9008 -11.3584,0.1504 -16.96,3.20001 -12.09504,6.58239 -24.28864,13.0176 -36.48,19.4208 -4.85504,2.55039 -14.28096,5.0272 -13.01536,11.91679 0.38592,2.1024 2.4768,3.34401 4.05568,4.5408 1.51872,1.15201 3.1888,2.8192 5.11968,3.1936 1.82144,0.35521 3.98784,-0.42559 5.76,-0.81919 4.06528,-0.90561 8.12544,-1.91681 12.16,-2.94401 5.62688,-1.4368 11.27968,-2.6464 16.64,-4.92799 3.98464,-1.696 8.22016,-4.78401 12.48,-5.57441 7.11968,-1.3152 15.56672,1.44321 22.4,-0.94719 9.6032,-3.35681 17.74816,-10.22401 27.2,-13.93921 -5.1408,13.40481 -18.81024,22.20481 -31.04,28.5472 -7.53088,3.90401 -15.5024,6.45441 -23.36,9.5968 -9.88384,3.9552 -19.6672,8.3552 -29.76,11.76 -10.77664,3.63201 -21.60864,6.5536 -32,11.30241 -6.16768,2.81919 -12.74208,5.09119 -18.56,8.60799 -4.73248,2.86081 -9.95424,7.5584 -15.36,8.9632 -5.10464,1.328 -11.69376,0.2624 -16.96,0.2624 l 1.6,-2.55999 -21.12,-1.28 v 0.31999 l 4.8,1.28 -16,1.28001 v 0.64 c 4.05344,2.35199 -2.82688,4.9824 -4.48,5.87199 -3.29632,1.76961 -7.94016,3.50081 -10.75936,5.9008 -1.16576,0.992 -2.09408,3.29921 -0.84448,4.57281 1.74336,1.776 5.49024,1.58079 7.76384,2.21439 -1.41536,2.26241 -2.22944,4.0416 -1.6,6.72 6.39392,-2.1952 12.26784,-6.3872 17.6,-10.4736 2.1392,-1.63839 4.9872,-3.5136 4.8,-6.4864 3.0416,1.3728 0.2,4.2048 -1.30336,5.7568 -3.58464,3.69921 -10.81664,6.1472 -12.13664,11.2032 l 4.8,0.96001 c -2.7248,3.86559 -6.74848,6.0224 -8,10.88 2.5392,-0.6304 2.77408,-2.52161 4.42784,-4.20161 1.76352,-1.79199 4.35776,-3.35679 6.45216,-4.7584 v 4.16 c 3.67232,-3.2096 5.26688,-7.72799 8.30432,-11.44639 2.31968,-2.8384 5.688,-4.11521 7.51584,-7.48161 0.96896,-1.78239 3.15744,-7.94879 6.24704,-6.73599 1.62656,0.63679 -1.75392,3.16799 -2.2272,3.584 8.7792,0.096 -1.33984,10.7296 -2.41056,14.71999 -0.49856,1.8592 1.8608,4.0992 0.84928,5.68321 -1.27648,1.99359 -5.5184,3.7504 -7.39872,5.51679 l 11.84,-3.84 -5.76,6.72 c 5.3072,-1.09759 12.28608,-7.376 13.41152,-12.79999 0.39776,-1.9168 -0.51968,-3.8464 -0.63616,-5.76 -0.1776,-2.9152 0.4192,-5.7536 0.66464,-8.64 12.39168,0 25.08768,0.5632 37.12,3.87519 5.18336,1.424 9.74912,3.97441 14.72,5.90721 3.18208,1.23519 7.89952,-1.5328 10.6016,0.59519 2.82624,2.22721 3.86112,9.0144 4.8032,12.3424 2.48672,8.7808 1.90656,21.7664 -3.216,29.6128 -2.59936,3.984 -6.90464,6.92801 -10.5888,9.824 -3.0272,2.37761 -6.656,5.69281 -10.44352,6.75201 -2.73024,0.7648 -6.1136,-0.6944 -8.75648,-1.3472 -6.17792,-1.52961 -12.38464,-2.94081 -18.56,-4.48321 -23.64288,-5.89119 -47.0608,-12.208 -70.4,-19.2384 v -0.31999 l 6.08,-0.64 -3.84,-1.92001 v -0.31999 c 15.06464,-2.89281 32.0112,-1.6128 46.72,2.56639 7.86144,2.2336 15.48288,7.072 23.68,7.9936 -4.65984,-3.6096 -9.96576,-5.488 -15.36,-7.696 -11.42304,-4.67519 -24.82048,-8.5312 -37.44,-7.12 -5.448,0.61121 -11.03328,1.08481 -16.32,2.61121 -3.48576,1.008 -7.11616,3.29599 -10.88,2.7648 -13.06614,-1.84961 -18.61405,-11.24801 -24.93891,-21.6 -3.04362,-4.98241 -6.43306,-9.52 -7.38109,-15.36 3.29309,0.2624 7.41987,0.69439 8.64,-3.20001 -2.77389,1.21601 -5.66349,1.53921 -8.64,0.96 2.37904,-4.46399 5.96957,-8.44159 9.00003,-12.48 6.47863,-8.63679 13.19709,-16.8896 20.36989,-24.96 21.80064,-24.528 45.79104,-46.5312 73.99008,-63.664 13.27616,-8.0672 27.7264,-13.9936 41.6,-20.896 4.25088,-2.11519 8.49216,-4.6176 13.12,-5.81119 12.58976,-3.24801 24.74304,0.4288 36.8,4.1728 5.36832,1.66399 14.74016,3.31199 18.14016,8.2016 1.69088,2.42879 2.15552,6.32639 2.65984,9.19679 m 66.56,-20.48 -0.32,0.32001 0.32,-0.32001 m 2.88,2.88 -4.16,-0.31999 v 0.31999 l 0.96,0.32001 v 0.31999 c -8.36576,2.336 -17.9088,2.56001 -26.56,2.56001 6.66464,-2.0992 14.23968,-2.12481 21.12,-3.33761 3.10528,-0.5472 5.84416,-1.94239 8.64,0.1376 m -158.08,13.44001 v 0.31999 c 9.10304,-1.888 18.104,-6.7968 26.56,-10.55999 -2.74912,-0.3968 -5.78848,1.15839 -8.32,2.10239 -6.22784,2.32 -12.47104,4.81921 -18.24,8.13761 m 138.88,-9.60001 v 0.32001 l -2.24,0.31999 2.24,-0.64 m -205.76,17.92 c 1.73952,-1.2736 3.04992,-1.6512 5.12,-0.95999 -2.43104,1.73439 -9.86336,3.376 -12.4064,1.0848 -1.07232,-0.96321 -0.928,-2.9888 -1.27808,-4.28481 -0.75232,-2.78719 -2.33184,-5.0624 -2.63552,-8 2.57824,0 8.70592,-0.3712 8.78208,3.5296 0.0336,1.7088 -1.69632,3.2288 -1.14304,4.9728 0.53376,1.67681 2.8448,1.8848 3.56096,3.6576 m 12.48,-11.19999 -0.32,8.31999 h -0.96 c 0.35264,3.56481 -1.88832,4.3584 -1.49856,0.6368 0.29632,-2.82559 2.00032,-6.1344 2.77856,-8.95679 m -12.8096,2.7328 0.40224,0.74559 -0.40224,-0.74559 m 5.16224,4.95679 0.13088,0.8736 -0.13088,-0.8736 m 0.92736,5.43041 v -0.32001 l 1.92,-2.24 -1.6,0.32001 c 2.01632,-1.97441 2.91552,1.55519 -0.32,2.24 m 149.44,1.27999 2.88,-1.27999 6.08,17.6 c -6.17344,0.10239 -13.85728,-1.16481 -19.84,0.2848 -4.63712,1.1232 -9.00256,4.20479 -13.44,5.98079 -5.93184,2.37761 -12.08896,3.5296 -18.24,5.14241 -3.30368,0.86719 -7.43456,3.01439 -10.88,2.7072 -3.55232,-0.3136 -6.84032,-3.5136 -8.96,-6.1152 15.048,-6.74881 30.5168,-13.97441 44.8,-22.2336 5.66016,-3.2704 12.35232,-9.59041 17.6,-2.08641 m 99.83999,5.12001 c -2.3648,7.9904 -15.04096,12.15039 -22.07999,14.91839 -21.7872,8.56 -44.4128,17.40801 -68.16,18.04161 2.42464,-2.4896 6.30944,-4.0352 9.28,-5.82401 5.37984,-3.24479 11.26144,-7.2032 15.54944,-11.8304 2.26624,-2.44479 3.57984,-5.56159 5.49792,-8.2528 1.23424,-1.73439 2.96608,-2.91839 4.32992,-4.52479 1.56064,-1.84001 2.25664,-4.0448 4.72064,-4.85441 6.43072,-2.1056 14.01408,-3.44959 20.78208,-2.6816 10.1408,1.15201 19.75487,4.95041 30.07999,5.00801 m -248.95999,-0.32001 c -0.15104,3.7408 -0.73856,7.4752 -1.10144,11.2 -0.44064,4.52801 -2.41728,10.7968 -8.49856,9.8656 -1.94592,-0.2976 -3.74976,-1.6576 -5.44,-2.5856 -1.67456,-0.91839 -4.60128,-1.86559 -5.28128,-3.8528 -0.89792,-2.6272 2.7856,-7.82719 3.94912,-10.1472 0.93632,-1.86559 1.88448,-5.29599 4.00864,-6.11519 4.36192,-1.68 8.22336,1.4048 12.36352,1.63519 m 27.84,28.48 c -11.5088,7.1232 -22.2352,15.8656 -32.96,24.10241 -5.74912,4.4128 -12.71808,8.6336 -16.96,14.61759 5.13024,-2.46399 9.584,-6.74559 14.08,-10.192 7.31136,-5.6032 14.80448,-10.9696 22.08,-16.6176 4.312,-3.34719 11.07904,-7.06559 13.76,-11.9104 m 1.28,17.92001 c -8.73888,4.81919 -18.66144,9.8688 -25.51424,17.31199 -1.24256,1.35041 -5.98272,7.43681 -4.7168,9.21601 0.95584,1.344 3.81472,1.21599 5.27104,1.38239 4.86336,0.5568 9.57664,1.728 14.4,2.48961 l -1.92,-1.92001 h 2.24 v -0.31999 c -3.8576,-2.1184 -8.10848,-3.57441 -12.48,-4.16 0.97824,-7.79521 11.26976,-14.43521 16.96,-18.9088 1.95136,-1.53281 4.43808,-2.94721 5.76,-5.0912 m 74.88,58.23999 -9.28,-5.11359 -14.72,-6.0832 -35.2,-11.5232 c 2.46496,-3.2672 7.13024,-5.1712 10.56,-7.29921 10.5872,-6.5696 22.5072,-11.25759 34.24,-15.33759 3.60704,-1.2544 7.24448,-2.43201 10.88,-3.6 1.064,-0.3424 2.99136,-1.20641 3.93376,-0.18881 0.80448,0.8704 0.54432,2.62721 0.54592,3.7056 l 3.2e-4,8.96001 c 0,12.1824 -0.96,24.3232 -0.96,36.47999 m -140.48,-28.16 c -6.51958,4.192 -14.19379,10.11521 -17.6,17.28 5.53926,-0.48639 10.18378,-7.98399 13.64352,-11.83999 1.48064,-1.6512 3.216,-3.30881 3.95648,-5.44001 m 45.12,4.80001 c -1.28608,1.43359 -2.47136,3.21279 -3.97472,4.41279 -3.56672,2.8512 -7.728,1.59681 -11.70528,0.70721 v -0.32001 l 7.04,0.32001 -1.28,-1.28001 1.28,-0.64 v -0.31999 l -4.48,0.31999 v -0.31999 l 1.28,-0.64 -3.2,-2.56001 15.04,0.32001 m 11.2,0 8,0.64 v 0.31999 l -7.68,1.92001 -0.32,-2.88 m 20.16,1.28 c -2.624,0.3424 -5.21376,0.176 -7.36,1.91999 h -0.96 l -0.64,-2.55999 c 2.73248,-0.006 6.67168,-1.1712 8.96,0.64 m -22.72,1.27999 c -1.7104,-0.20799 -2.99008,-0.6144 -4.16,-1.91999 l 4.16,1.91999 m -8.64,4.16 c 0.256,-0.71359 2.37792,-4.29119 3.46688,-2.71999 1.06688,1.536 -2.64352,2.5696 -3.46688,2.71999 m 49.28,2.56001 v 0.31999 c -7.53728,0 -15.512,-0.5344 -23.04,-1.16479 -3.03008,-0.2528 -6.40096,0.208 -8.96,-1.71521 11.35328,-2.50879 21.15264,-0.82559 32,2.56001 m -61.12,-2.56001 v 0.32001 l -8.96,2.55999 c 2.23424,-3.1424 5.45856,-2.88 8.96,-2.88 m -9.92,3.2 c -1.85248,1.15521 -3.68448,3.58721 -5.568,4.3584 -1.51584,0.6208 -5.31648,-0.672 -3.37344,-2.6336 1.88864,-1.904 6.45216,-1.6256 8.94144,-1.7248 m 1.6,1.60001 c -0.9936,1.23519 -1.94944,1.7344 -3.52,1.91999 l 3.52,-1.91999 m 37.12,0.64 v 2.24 h -0.64 v -2.24 h 0.64 m -18.24,0.63999 c -3.504,5.55841 -7.72608,10.752 -14.72,10.88 v -0.32 l 14.72,-10.56 m -15.68,0.96001 c -2.13344,2.768 -5.8096,4.6752 -8.96,6.07999 2.44096,-2.7264 5.6496,-4.5888 8.96,-6.07999 m 30.08,0.95999 -1.6,1.92001 1.6,-1.92001 m 3.84,1.6 -0.32,2.88 h -0.32 v -2.88 h 0.64 m -5.76,1.6 -1.92,3.52 1.28,-3.52 h 0.64 m 37.44,1.60001 c 3.58848,3.7024 9.20352,4.592 13.76,6.66559 3.13376,1.42721 6.15232,3.712 9.6,4.21441 -0.90592,-2.56641 -3.13536,-3.8016 -5.44,-5.0176 -4.99616,-2.6432 -12.06688,-6.8928 -17.92,-5.8624 m -35.52,0 c -0.37888,2.94079 -1.55584,4.832 -3.84,6.72 l 3.84,-6.72 m 5.12,2.88 -2.24,-0.96001 2.24,0.96001 m 49.92,58.24 c 5.44064,-5.98081 13.04224,-9.63841 17.80192,-16.32001 5.53888,-7.776 5.74752,-20.35839 4.2416,-29.43999 -0.63968,-3.8592 -2.32192,-7.63521 -2.52352,-11.52001 6.3936,2.72 11.99968,8.60161 17.6,12.6848 7.18496,5.23521 14.64832,10.01601 21.76,15.35681 7.27904,5.46559 14.3344,11.56479 22.08,16.3616 16.56864,10.2592 33.77888,19.904 51.2,28.6368 5.42016,2.71679 10.80256,5.55199 16.32,8.06399 3.70336,1.68961 8.06688,3.04961 11.11807,5.8272 8.39328,7.6352 1.95136,18.4608 -6.63807,22.2208 -4.70528,2.0608 -8.66272,-0.74559 -12.8,-2.832 -9.11264,-4.59839 -17.68,-9.68639 -27.2,-13.51999 -36.37888,-14.6464 -74.43264,-27.88161 -112.96,-35.52 m -51.2,-56.64 -2.88,3.83999 2.88,-3.83999 m -22.72,17.59999 c 0.29504,3.7536 3.17024,3.9904 6.4,3.77281 5.28032,-0.3584 15.02336,-0.96001 18.56,-5.3728 -3.09984,0.21439 -5.65408,1.72799 -8.64,2.3552 -5.27392,1.10399 -11.23168,0.90879 -16.32,-0.75521 m 103.36,73.28001 -9.92,-4.16001 c 3.26528,3.744 6.76352,5.8848 8.96,10.56001 l 0.64,-2.24 h 0.32 c 3.33312,6.05119 0.23392,14.16639 3.29312,20.48 10.9312,22.55999 26.09056,42.76479 37.81216,64.95999 3.52192,6.66881 6.52256,13.53281 9.45536,20.48 0.65472,1.552 1.91296,7.00481 -1.62048,6.29441 -1.6736,-0.33601 -2.72928,-2.4256 -3.5472,-3.7344 -2.12832,-3.408 -3.67552,-7.42721 -6.17024,-10.56001 -3.50912,-4.40639 -5.43648,-9.74399 -9.0304,-14.07999 -4.0592,-4.89601 -9.19712,-7.4912 -11.50016,-13.76 -4.23328,-11.52001 -0.57792,-28.784 -13.89216,-34.88 2.34048,4.4 6.1376,6.992 7.44064,12.16 2.28608,9.0688 0.60992,19.3472 6.00384,27.51999 2.89088,4.38081 7.37344,7.44641 10.63776,11.52 4.1408,5.168 7.16064,11.4784 10.91936,16.96001 1.83616,2.67839 6.9264,7.536 6.82784,10.88 -0.10112,3.42719 -6.47264,7.68322 -8.86944,9.73762 -9.55264,8.19522 -20.82784,12.74882 -33.28,13.71202 -3.57024,0.2752 -10.0432,1.4016 -12.59616,-1.8432 -1.80064,-2.2912 -2.79552,-5.5232 -3.96704,-8.1664 -1.90496,-4.30082 -4.0016,-8.52805 -5.97408,-12.80005 -6.77728,-14.6752 -13.33184,-29.14559 -22.37344,-42.55999 -4.67168,-6.9312 -9.0448,-13.9872 -13.40192,-21.12 -1.75936,-2.88 -4.80512,-6.44801 -5.06368,-9.92001 -0.4928,-6.6144 4.82816,-13.63839 7.18976,-19.52 2.96576,-7.38559 3.96,-15.888 5.39296,-23.67999 1.15136,-6.25921 4.04896,-13.07521 -2.3264,-17.28001 0.82944,2.17601 2.66976,4.3968 2.92192,6.72 0.344,3.1712 -1.66048,7.20001 -2.48512,10.24 -1.90208,7.0112 -3.14016,14.2304 -5.45152,21.12 -1.04288,3.10721 -2.13664,6.43521 -3.8208,9.264 -0.53248,0.896 -1.72736,2.67841 -3.00384,1.94881 -1.12032,-0.64 -1.1968,-2.7392 -1.38912,-3.8528 -0.62432,-3.62241 -1.18848,-7.25441 -1.79168,-10.88 -2.40128,-14.4384 -4.99008,-28.6784 -8.53984,-42.88 -0.98592,-3.9456 -1.88608,-7.92321 -2.98272,-11.84001 -0.31264,-1.11679 -1.44768,-3.2896 -0.6672,-4.3872 1.05632,-1.48479 5.33632,0.18241 6.72992,0.4928 6.69376,1.50401 13.4368,2.79681 20.16,4.15041 11.70144,2.35519 23.34592,4.9536 34.88,8.01599 2.95424,0.78401 9.97824,1.2192 11.98112,3.5936 1.24704,1.4784 0.98304,4.54401 1.13888,6.3744 0.46848,5.50081 1.80896,11.47521 0.96,16.96001 m -67.2,-32.96001 c 1.52512,3.07201 4.93248,5.1584 7.68,7.0752 3.99616,2.784 8.72192,4.2688 13.12,6.3104 5.17696,2.4 10.48,5.6064 16,7.09441 -1.36512,-2.5312 -4.31424,-3.69921 -6.72,-5.07521 -5.21664,-2.97919 -10.93728,-5.42399 -15.99968,-8.608 -2.72576,-1.712 -4.09248,-5.4464 -6.83584,-6.8256 -1.7632,-0.8896 -5.22688,0.0704 -7.24448,0.0288 m 216.95999,26.56 -2.24,3.84 c -4.9888,-4.55359 -10.44288,-5.2416 -16.64,-7.36 2.20256,-1.53279 4.33664,-0.6976 6.72,0.016 4.0192,1.2 8.0544,2.65279 12.16,3.50399 m -35.83999,28.48 c 10.97664,-0.006 21.67167,-6.1952 22.94719,-18.24 0.34208,-3.2288 -0.74368,-5.9136 -1.5072,-8.95999 3.27968,0.43839 9.312,2.832 10.5952,6.2016 0.7296,1.91359 0.2848,4.58239 0.2848,6.59839 0,1.9072 0.3616,4.30721 -0.7168,5.99361 -3.7632,5.87839 -13.26464,10.88319 -19.44319,13.7984 -4.6304,2.18559 -12.09728,0.26239 -12.16,-5.39201 m 38.52799,-25.43999 c 2.3712,-0.7968 3.3056,2.63679 3.52,4.27199 0.6272,4.70721 1.2032,9.41761 0.288,14.128 -0.2912,1.4976 -0.752,4.0704 -2.448,4.624 -2.4512,0.8 -3.2256,-3.02079 -3.5008,-4.624 -0.768,-4.48 -0.816,-9.26399 -0.1536,-13.75999 0.224,-1.5392 0.5504,-4.0512 2.2944,-4.64 m 9.792,10.07999 0.96,2.56001 c -1.4976,-0.2976 -1.4944,-1.29921 -0.96,-2.56001 m 3.84,2.24 c 3.56798,3.6576 7.84318,9.8976 8.79358,15.04001 0.7296,3.9488 0.01,8.3008 0.1248,12.31039 0.1248,4.25921 0.6176,9.5808 -0.624,13.69921 -1.84,6.1024 -5.86878,11.6096 -7.63838,17.83039 -2.0672,7.2704 -2.7136,15.53601 -3.536,23.04001 h -0.32 c -1.0048,-6.4384 0.4032,-11.6192 1.5104,-17.92001 1.3024,-7.40479 2.5312,-14.94399 3.5072,-22.4 1.81758,-13.91039 0.01,-27.80479 -1.8176,-41.6 m -3.52,2.56001 c 1.3856,3.5136 1.4816,7.1424 1.1648,10.88 -0.0992,1.1488 0.0448,3.1072 -0.9248,3.93279 -0.864,0.7392 -2.3872,0.54081 -3.44,0.54721 0.192,-4.7264 0.2592,-11.46241 3.2,-15.36 m -17.28,16.64 3.2,2.55999 c -1.4496,-3.00799 -0.4416,-4.5952 2.88,-4.8 0.3264,2.32961 1.1104,5.05601 0.3648,7.36001 -2.6848,8.2944 -13.8032,11.51039 -21.4848,11.51999 0.4672,-2.39039 1.61536,-6.61759 0.39328,-8.88 -1.11744,-2.07039 -5.23007,-2.49919 -6.11263,-0.003 -0.90144,2.5504 0.55904,6.09921 1.23936,8.56321 -5.57248,-0.3392 -9.5776,-5.344 -13.42944,-8.91521 -1.22976,-1.1392 -4.22848,-3.8784 -2.41888,-5.75039 1.0272,-1.0592 3.18016,-0.0672 4.32832,0.288 3.32992,1.0272 7.06272,2.49919 10.56,1.4336 5.47903,-1.6736 10.98847,-5.6704 15.67039,-8.8864 1.7664,-1.21281 3.664,-4.04481 5.7984,-4.4736 1.6992,-0.34241 3.0752,1.33439 2.8736,2.9504 -0.304,2.416 -2.6112,4.99839 -3.8624,7.0336 m 18.88,0.63999 -1.92,2.88 -0.32,-0.31999 2.24,-2.56001 m -15.68,1.92 0.64,0.64001 -0.64,-0.64001 m 10.56,19.2 c -2.0896,-0.7328 -2.4032,-5.3824 -2.56,-7.36 -1.0368,-0.1536 -1.2096,-1.888 -1.1936,-2.88 0.048,-2.88 1.504,-5.66719 1.5136,-8.64 6.8352,3.46241 3.328,12.8928 2.24,18.88 M 357.32383,901.78637 c -2.11776,9.68639 -3.78784,19.1424 -7.36,28.48 -6.85152,-4.22081 -12.1456,-13.54561 -14.08,-21.12 h -0.32 c -3.21056,6.07999 0.35392,8.95679 3.81536,13.76 1.30848,1.81439 2.08512,3.93919 3.4032,5.75679 1.58656,2.18881 4.71424,5.60641 7.78688,5.1072 3.84,-0.62079 3.27264,-5.232 3.67072,-7.98399 1.10496,-7.63521 4.96448,-16.1952 3.08384,-24 m 178.23999,0.63999 -1.28,23.04 h -0.32 c -2.7616,-4.61439 -0.6496,-10.62399 -0.0192,-15.67999 0.3104,-2.49601 0.4064,-5.1104 1.6192,-7.36001 m -36.16,8 h -0.32 c -0.85023,-2.06079 -1.53439,-3.8528 -0.95999,-6.08 1.87359,1.66081 1.63583,3.77921 1.27999,6.08 m 23.04,-0.63999 1.28,4.15999 c -1.1616,-1.2096 -1.568,-2.50559 -1.28,-4.15999 m 4.16,2.55999 -0.32,0.32001 0.32,-0.32001 m -9.92,1.2192 c 3.8144,-0.19199 5.7088,5.03041 7.184,7.7408 2.656,4.8768 5.0048,8.98241 3.696,14.72001 -0.4608,2.0224 -1.6128,3.7824 -2.2048,5.76 -1.1008,3.6832 -3.4592,8.3424 -8.0224,8.5696 -2.5856,0.12799 -5.12,-4.0352 -6.72512,-5.6896 -6.3376,-6.52801 -6.19808,-16.5408 -1.95712,-24.32001 1.72032,-3.1552 4.01024,-6.57919 8.02944,-6.7808 m -22.07999,5.5008 -3.2,-1.6 c 2.03104,-1.8656 3.10496,-0.85759 3.2,1.6 m -10.56,27.20001 c 3.79328,-10.2112 7.9344,-19.85601 13.76,-29.12 4.35519,3.1136 4.70463,9.83039 2.71263,14.39999 -2.57119,5.90081 -10.94271,11.70561 -16.47263,14.72001 m 6.08,-20.16001 c 0.015,-0.86079 0.0298,-1.7152 0.14176,-2.5696 0.0883,-0.672 1.17376,-5.1584 2.49344,-3.17759 1.2464,1.87199 -1.29024,4.72639 -2.6352,5.74719 m 42.87999,3.2 c 1.344,3.10721 0.6208,5.93281 -0.64,8.96001 h -0.64 c -0.96,-2.832 -0.2144,-6.08001 0.32,-8.96001 h 0.96 m -198.07999,6.08001 c 7.18752,16.0224 16.18528,30.70399 25.6848,45.43999 3.4144,5.29601 6.84,14.01922 12.0752,17.60002 -1.43872,-6.31681 -5.7808,-11.72802 -9.19872,-17.04962 -5.8784,-9.15519 -11.48736,-18.56959 -16.85344,-28.0704 -3.24576,-5.7472 -6.02048,-14.15999 -11.70784,-17.91999 m 194.87999,2.55999 c 1.2256,4.10881 0.288,8.3904 -0.6048,12.48 -1.168,5.34721 -2.2528,11.13601 -4.8352,16 h -0.32 c 1.568,-8.8672 0.5408,-20.74559 5.76,-28.48 m -22.72,8.64 c -6.66016,3.2128 -10.52447,1.77921 -17.27999,-0.31999 2.02112,-1.9072 8.63744,-6.18241 11.46527,-5.2672 2.184,0.70719 4.28512,3.9296 5.81472,5.58719 m -21.43999,0.32001 -0.32,0.31999 0.32,-0.31999 m 35.19999,5.43999 h 1.6 c -1.0272,4.9568 -3.2448,11.66721 -6.6208,15.52321 -4.8096,5.49759 -14.44256,9.45599 -21.53919,10.61759 -6.60416,1.08161 -12.27232,-0.22079 -17.91904,-3.76 -1.9104,-1.1968 -4.6656,-2.99199 -4.90272,-5.4688 -0.62656,-6.54719 7.4048,-15.32479 11.92448,-19.248 4.83776,-4.1984 10.40768,2.45121 15.37727,2.10241 3.0192,-0.2112 6.58368,-3.38241 9.6,-2.35521 4.2176,1.4336 7.9968,8.30401 12.48,2.5888 m 1.6,7.04001 c -0.0192,3.6224 0.464,9.1072 -0.7648,12.48 -3.3632,9.21919 -14.8544,12.37759 -22.91328,16.07679 -2.18271,1.0016 -3.40735,3.0688 -5.45471,4.21121 -3.22944,1.8016 -8.29984,1.5008 -11.8272,0.96639 -6.39296,-0.96639 -11.02976,-5.65119 -12.13472,-11.97439 -0.27744,-1.58721 -0.85984,-4.3808 0.2592,-5.76321 1.24832,-1.54559 4.24864,0.72961 5.47552,1.36961 5.45312,2.84479 10.09664,4.67839 16.32736,4.36479 9.39359,-0.47679 20.15583,-4.74879 26.17183,-12.2048 2.2784,-2.8224 3.0048,-6.4672 4.8608,-9.52639 m 8.64,4.79999 -3.2,2.88 3.2,-2.88 m 3.52,0.32001 c 0,6.94399 -2.4512,10.08639 -6.224,15.69279 -1.84,2.7328 -3.4592,5.75041 -5.792,8.10881 -7.5936,7.67361 -18.06176,11.96483 -28.62399,13.10083 -10.00832,1.0784 -26.42784,-1.0144 -26.56,-13.86244 3.21088,2.32321 5.45536,5.85281 9.28,7.36962 10.45632,4.1408 21.04896,0.336 30.71999,-3.75361 4.7072,-1.9936 9.6288,-4.0128 13.44,-7.51681 5.9168,-5.44319 8.832,-12.95679 13.76,-19.13919 m -7.68,4.79999 c -1.9296,4.7104 -5.296,10.28801 -9.6,13.12 1.9744,-4.6624 5.8816,-9.7088 9.6,-13.12 m -59.19999,5.44001 v 2.24 h -0.64 v -2.24 h 0.64 m 11.52,5.76 c 2.03456,2.4224 5.6144,3.79199 8.64,4.48 -2.15456,-2.4768 -5.54944,-3.6384 -8.64,-4.48 m 35.51999,3.19999 c -3.5968,3.3728 -10.97312,5.68321 -15.68,7.04001 3.80992,-3.4368 10.62944,-6.2464 15.68,-7.04001 m -98.87999,2.88 0.32,0.32001 -0.32,-0.32001 m 51.52,0 -0.32,0.32001 0.32,-0.32001 m -43.52,2.88 c 4.3664,9.96482 9.26016,20.19844 12.10048,30.71994 6.16,22.8192 7.39456,45.8752 10.7104,69.12 1.55904,10.928 4.25664,21.7312 6.01248,32.64 2.48544,15.4432 4.15168,31.0048 6.95808,46.4 1.70528,9.3536 3.62304,18.6272 5.98112,27.84 1.1968,4.6752 3.664,9.4656 1.99968,14.4 -1.64416,4.8736 -8.52064,8.7232 -13.04224,10.4448 -3.00032,1.1424 -6.67104,2.3264 -9.91936,1.8656 -5.6672,-0.8032 -5.21728,-7.904 -6.15712,-12.3104 -2.7424,-12.8512 -5.74656,-25.7216 -9.20352,-38.4 -4.30528,-15.792 -9.97408,-30.912 -15.24928,-46.4 -8.22272,-24.1376 -16.4608,-48.208 -25.6592,-72 -3.25184,-8.4096 -6.72416,-16.7968 -10.55936,-24.96 -2.24544,-4.7776 -5.2576,-9.3152 -6.77216,-14.3999 4.55872,-0.2656 9.63168,-0.032 14.08,-1.0784 6.74272,-1.5872 14.17408,-5.8464 19.84,-9.7344 6.17664,-4.23362 11.56256,-12.01923 18.88,-14.14724 m 47.36,218.23994 c 0.96288,3.0176 2.05408,6.0512 3.30336,8.96 0.71424,1.664 1.84192,3.5616 1.4464,5.44 -0.7392,3.5104 -4.95808,6.5504 -7.62976,8.5888 -8.79776,6.7136 -19.81248,9.2128 -30.72,9.6512 l 0.93856,-6.72 0.0214,-9.6 c 10.4944,4.1696 25.09376,-1.4144 31.0736,-10.8864 1.05504,-1.6736 0.79744,-3.6608 1.5664,-5.4336 m -2.88,43.52 c -0.99264,-3.3408 -4.2304,-8.9024 -3.19584,-12.4192 0.72,-2.4448 4.59584,-4.2432 6.39584,-5.8944 4.32192,-3.9648 7.4304,-8.1472 10.56,-13.0464 1.54976,0.9472 2.28384,2.2432 3.09184,3.84 0.89312,1.7664 1.99488,3.7216 1.9008,5.76 -0.29248,6.3616 -8.65056,13.4784 -12.99264,17.3888 -1.81696,1.6384 -3.56832,3.2544 -5.76,4.3712 m -7.36,-11.52 c -3.8688,3.92 -11.59904,4.896 -16.64,6.784 -2.45504,0.9184 -5.38944,1.7824 -6.4,4.416 l 24,-8.64 c 1.78208,5.4688 3.10272,10.9088 3.6928,16.64 0.20736,2.016 0.89216,4.7584 0.0643,6.6848 -0.9808,2.2784 -3.97568,3.7344 -5.99712,4.9472 -2.56864,1.5424 -5.41408,3.5648 -8.32,4.3712 -3.69728,1.0304 -8.34176,0.3168 -12.16,0.3168 -0.0755,-7.4368 -0.61152,-14.6816 -1.64672,-22.08 -0.22656,-1.6192 -0.1296,-6.3328 -2.18528,-6.848 -1.70784,-0.432 -1.6016,3.0592 -1.58304,3.968 0.0966,4.7008 0.88128,9.3984 1.25504,14.08 h -0.32 c -1.58624,-3.3216 -2.00512,-7.0016 -2.8416,-10.56 -1.47968,-6.2944 -3.29408,-12.3968 -2.9184,-18.88 2.56544,1.6096 1.5536,5.296 4.4912,7.1776 8.832,5.6576 18.79392,-0.6336 27.5088,-2.3776 m 27.13632,-3.6128 c 2.56704,0.144 3.0992,4.176 2.01792,5.8528 -3.2704,5.0656 -8.64352,9.0048 -12.68896,13.44 -1.07968,1.184 -3.12,4.2912 -4.96992,4.1152 -2.78912,-0.2688 -3.24768,-4.5376 -2.05568,-6.352 3.21696,-4.8928 8.99232,-8.704 12.9248,-13.1232 1.088,-1.2224 2.88,-4.0384 4.77184,-3.9328 m 5.49504,8.624 c 3.81088,0.896 5.18847,7.1552 6.08127,10.3488 1.0048,3.5968 1.72032,7.4688 1.07968,11.2 -1.53824,8.9568 -9.94591,16.6848 -15.24863,23.68 -2.17984,2.8768 -4.23104,5.952 -6.672,8.6144 -0.9456,1.0304 -2.19584,2.3776 -3.752,2.0544 -1.94144,-0.4 -2.27008,-2.624 -2.24672,-4.2688 0.0582,-4.1024 2.01696,-8.2208 3.0304,-12.16 1.2832,-4.9888 0.49504,-10.9728 -0.2096,-16 -0.28224,-2.016 -1.55584,-4.7232 -1.01664,-6.72 1.0448,-3.8688 6.93248,-7.5008 9.68288,-10.24 2.06688,-2.0608 5.84736,-7.312 9.27136,-6.5088 m 11.84863,18.0288 c 7.8368,5.1552 9.5488,15.9136 4.65088,23.68 -3.4416,5.4592 -6.936,11.8368 -12.33087,15.6 -5.8224,4.0608 -13.93856,5.9104 -18.60608,11.3984 -3.34272,3.9296 -4.03872,9.5488 -6.632,13.9616 -2.2272,3.792 -5.74752,7.024 -8.71648,10.24 -4.69696,5.088 -9.32608,10.2432 -13.99136,15.36 -3.088,3.3888 -6.21952,8.1952 -10.63584,9.8944 -9.85856,3.7984 -20.65344,4.7168 -31.01824,2.9408 -3.66208,-0.6304 -10.95904,-1.7088 -12.71904,-5.5488 -0.82752,-1.8048 -0.40096,-4.384 -0.40096,-6.3264 2.28512,1.3792 4.17472,4.0032 6.72,4.8352 5.12992,1.6832 13.4176,0.3968 18.56,-0.8064 17.46272,-4.0832 32.53152,-15.6896 43.07232,-29.9488 5.97952,-8.0896 9.72448,-17.456 16.16064,-25.28 6.776,-8.2368 13.92512,-16.2016 19.58431,-25.28 2.848,-4.5696 5.72448,-9.28 6.30272,-14.72 m -37.43999,6.72 c 0.19744,4.8704 1.1328,9.504 0.50592,14.4 -1.1856,9.2544 -5.18784,18.3424 -7.96896,27.2 -1.47488,4.6976 -5.02368,7.6096 -9.49696,9.3248 -1.3504,0.5184 -3.24608,1.4848 -4.71904,1.024 -2.87776,-0.8992 -3.64928,-7.2192 -4.32832,-9.7088 -2.16672,-7.9456 -5.52832,-16.6336 -3.94048,-24.96 0.39072,-2.048 0.65472,-5.0976 2.032,-6.7552 1.76768,-2.128 8.03648,-0.7872 10.63584,-1.3344 6.99232,-1.472 11.12128,-6.368 17.28,-9.1904 m -32,5.12 c -1.78208,-4.7296 2.37568,-3.6256 0,0 m 69.16863,4.2112 c -3.56512,1.2736 -6.24064,7.8368 -7.40511,11.1488 -0.8592,2.4448 0.1216,4.768 3.10015,3.9584 3.16576,-0.8576 6.21952,-8.7296 7.03744,-11.6384 0.5984,-2.128 -0.0602,-4.4256 -2.73248,-3.4688 m -70.44863,19.1488 c 1.08896,6.768 3.06048,13.6 5.08544,20.16 0.75392,2.4416 1.23712,5.7856 3.62112,7.2288 3.35104,2.0288 9.46976,-1.5744 12.09344,-3.5456 1.8128,-1.3632 3.77696,-2.7648 5.08288,-4.6496 3.80256,-5.4912 4.11872,-13.2352 7.07712,-19.1936 1.41824,1.9552 5.0272,5.1744 4.97824,7.68 -0.0467,2.3872 -2.50336,5.3792 -3.69984,7.36 -5.04992,8.3616 -14.53248,13.1712 -21.4384,19.8496 -3.24608,3.1392 -6.7056,7.4592 -10.88,9.312 -5.08448,2.256 -10.5456,3.4656 -15.68,5.5808 -2.3552,0.9696 -4.7824,2.0864 -6.72,3.7632 -1.60704,1.3888 -3.20224,3.7344 -5.44,4.0768 -9.98208,1.5328 -14.99424,-9.664 -13.76,-17.6224 8.45152,4.9216 20.37472,4.848 29.44,1.1552 2.8464,-1.1584 6.13216,-2.0992 8,-4.6752 -4.82496,0.2208 -8.86272,2.5536 -13.44,3.7152 -3.95328,1.0016 -9.41216,0.8736 -13.44,0.288 -2.03168,-0.2944 -9.47072,-2.3328 -7.3472,-5.4976 2.92736,-4.3616 9.4864,-6.512 14.0672,-8.4736 1.81088,-0.7744 3.74592,-1.9776 5.76,-2.0288 2.89376,-0.074 9.39392,3.3856 11.75232,1.1168 1.58624,-1.5232 1.67232,-4.992 2.06368,-7.04 1.15968,-6.0672 1.35264,-12.6208 2.824,-18.56 m -14.08,20.8 c 0.72928,-2.0448 1.9136,-3.8496 2.93152,-5.76 1.20832,-2.2656 2.3968,-4.5184 3.75008,-6.704 0.40896,-0.6624 1.04,-2.0064 1.97536,-2.0064 2.05408,0 1.01216,4.7904 0.78944,5.8304 -0.54304,2.5376 -1.09792,8.8192 -4.07712,9.6288 -1.7872,0.4864 -3.69632,-0.4608 -5.36928,-0.9888 m 35.52,12.48 c -2.87168,3.5648 -6.3312,6.5856 -10.24,8.96 2.6784,-3.5808 5.9936,-7.2896 10.24,-8.96 m -19.2,15.04 c -4.3232,4.7584 -14.54816,9.7312 -21.12,8.64 5.2592,-5.04 14.43616,-6.2336 21.12,-8.64 z"
       id="path380" /></g></svg>
