%TF.GenerationSoftware,Altium Limited,Altium Designer,21.7.2 (23)*%
G04 Layer_Color=32896*
%FSLAX45Y45*%
%MOMM*%
%TF.SameCoordinates,838FB56E-0ED7-4152-9A2E-8E5145BDEB09*%
%TF.FilePolarity,Positive*%
%TF.FileFunction,Legend,Bot*%
%TF.Part,Single*%
G01*
G75*
%TA.AperFunction,NonConductor*%
%ADD49C,0.15000*%
G36*
X46754Y-1272323D02*
X48606Y-1272878D01*
X50272Y-1273434D01*
X51754Y-1274174D01*
X52865Y-1275100D01*
X53791Y-1275656D01*
X54346Y-1276211D01*
X54531Y-1276396D01*
X55827Y-1278063D01*
X56938Y-1279729D01*
X57679Y-1281211D01*
X58049Y-1282877D01*
X58420Y-1284173D01*
X58605Y-1285284D01*
Y-1286025D01*
Y-1286210D01*
X58420Y-1288432D01*
X58049Y-1290469D01*
X57309Y-1292136D01*
X56568Y-1293617D01*
X55827Y-1294913D01*
X55087Y-1295839D01*
X54716Y-1296394D01*
X54531Y-1296580D01*
X52865Y-1297876D01*
X51198Y-1298987D01*
X49532Y-1299727D01*
X48050Y-1300098D01*
X46569Y-1300468D01*
X45458Y-1300653D01*
X44532D01*
X42495Y-1300468D01*
X40644Y-1300098D01*
X38977Y-1299357D01*
X37681Y-1298616D01*
X36570Y-1297876D01*
X35644Y-1297135D01*
X35089Y-1296765D01*
X34904Y-1296580D01*
X33422Y-1294913D01*
X32497Y-1293247D01*
X31756Y-1291580D01*
X31200Y-1290099D01*
X30830Y-1288617D01*
X30645Y-1287506D01*
Y-1286766D01*
Y-1286581D01*
X30830Y-1284359D01*
X31386Y-1282507D01*
X31941Y-1280840D01*
X32682Y-1279174D01*
X33608Y-1278063D01*
X34163Y-1277137D01*
X34718Y-1276582D01*
X34904Y-1276396D01*
X36570Y-1274915D01*
X38237Y-1273989D01*
X39718Y-1273249D01*
X41384Y-1272693D01*
X42681Y-1272323D01*
X43792Y-1272138D01*
X44717D01*
X46754Y-1272323D01*
D02*
G37*
G36*
X152484Y-1395829D02*
X130449D01*
Y-1360832D01*
Y-1358240D01*
Y-1356018D01*
Y-1353981D01*
X130264Y-1352129D01*
Y-1350463D01*
X130079Y-1348982D01*
X129894Y-1346389D01*
Y-1344723D01*
X129709Y-1343612D01*
X129523Y-1342871D01*
Y-1342686D01*
X128783Y-1339908D01*
X127672Y-1337686D01*
X126561Y-1335464D01*
X125635Y-1333798D01*
X124524Y-1332502D01*
X123783Y-1331391D01*
X123228Y-1330835D01*
X123043Y-1330650D01*
X121191Y-1329169D01*
X119154Y-1328058D01*
X117303Y-1327317D01*
X115451Y-1326762D01*
X113970Y-1326391D01*
X112673Y-1326206D01*
X111562D01*
X109711Y-1326391D01*
X108044Y-1326576D01*
X106563Y-1327132D01*
X105267Y-1327502D01*
X104156Y-1328058D01*
X103415Y-1328613D01*
X103045Y-1328798D01*
X102860Y-1328984D01*
X101563Y-1330095D01*
X100638Y-1331391D01*
X98971Y-1333983D01*
X98601Y-1335094D01*
X98230Y-1336020D01*
X97860Y-1336761D01*
Y-1336946D01*
X97675Y-1338057D01*
X97305Y-1339353D01*
X96934Y-1342501D01*
X96749Y-1345834D01*
X96564Y-1349167D01*
X96379Y-1352315D01*
Y-1353796D01*
Y-1355092D01*
Y-1356018D01*
Y-1356759D01*
Y-1357314D01*
Y-1357499D01*
Y-1395829D01*
X74714D01*
Y-1338057D01*
X75085Y-1332687D01*
X76011Y-1328058D01*
X77122Y-1324169D01*
X78603Y-1320836D01*
X80084Y-1318429D01*
X81195Y-1316578D01*
X82121Y-1315467D01*
X82491Y-1315096D01*
X84158Y-1313430D01*
X86009Y-1312134D01*
X87861Y-1310837D01*
X89713Y-1309912D01*
X93231Y-1308245D01*
X96749Y-1307134D01*
X99712Y-1306579D01*
X101008Y-1306208D01*
X102119D01*
X103045Y-1306023D01*
X104341D01*
X106748Y-1306208D01*
X109155Y-1306393D01*
X111562Y-1306949D01*
X113414Y-1307504D01*
X115266Y-1308060D01*
X116562Y-1308430D01*
X117303Y-1308801D01*
X117673Y-1308986D01*
X120080Y-1310097D01*
X122487Y-1311393D01*
X124524Y-1312874D01*
X126561Y-1314170D01*
X128042Y-1315467D01*
X129338Y-1316392D01*
X130079Y-1317133D01*
X130449Y-1317318D01*
Y-1274360D01*
X152484D01*
Y-1395829D01*
D02*
G37*
G36*
X-240994Y-1306208D02*
X-238031Y-1306579D01*
X-235068Y-1307134D01*
X-232291Y-1308060D01*
X-227291Y-1310097D01*
X-225069Y-1311208D01*
X-223033Y-1312504D01*
X-221181Y-1313615D01*
X-219700Y-1314911D01*
X-218218Y-1316022D01*
X-217107Y-1316948D01*
X-216181Y-1317874D01*
X-215441Y-1318429D01*
X-215070Y-1318799D01*
X-214885Y-1318985D01*
X-212848Y-1321577D01*
X-210997Y-1324169D01*
X-209330Y-1326947D01*
X-208034Y-1329724D01*
X-206923Y-1332502D01*
X-205997Y-1335279D01*
X-204516Y-1340464D01*
X-203960Y-1342871D01*
X-203590Y-1345093D01*
X-203405Y-1347130D01*
X-203220Y-1348982D01*
X-203035Y-1350278D01*
Y-1351389D01*
Y-1352129D01*
Y-1352315D01*
X-203220Y-1355833D01*
X-203590Y-1359351D01*
X-204146Y-1362499D01*
X-205071Y-1365646D01*
X-205997Y-1368424D01*
X-206923Y-1371201D01*
X-208034Y-1373609D01*
X-209330Y-1375831D01*
X-210441Y-1377867D01*
X-211552Y-1379719D01*
X-212478Y-1381200D01*
X-213589Y-1382497D01*
X-214330Y-1383608D01*
X-214885Y-1384348D01*
X-215256Y-1384719D01*
X-215441Y-1384904D01*
X-217848Y-1387126D01*
X-220255Y-1389163D01*
X-222847Y-1391014D01*
X-225255Y-1392496D01*
X-227847Y-1393792D01*
X-230254Y-1394903D01*
X-232661Y-1395643D01*
X-234883Y-1396384D01*
X-236920Y-1396940D01*
X-238772Y-1397310D01*
X-240623Y-1397680D01*
X-242105Y-1397865D01*
X-243216Y-1398051D01*
X-244882D01*
X-247660Y-1397865D01*
X-250252Y-1397680D01*
X-252659Y-1397310D01*
X-254696Y-1396754D01*
X-256548Y-1396199D01*
X-257844Y-1395829D01*
X-258584Y-1395643D01*
X-258955Y-1395458D01*
X-261362Y-1394347D01*
X-263769Y-1392866D01*
X-265991Y-1391385D01*
X-267843Y-1389903D01*
X-269509Y-1388607D01*
X-270805Y-1387496D01*
X-271546Y-1386755D01*
X-271916Y-1386570D01*
Y-1395829D01*
X-293951D01*
Y-1308245D01*
X-271916D01*
Y-1317874D01*
X-269694Y-1315837D01*
X-267472Y-1313985D01*
X-265250Y-1312504D01*
X-263214Y-1311208D01*
X-261547Y-1310282D01*
X-260066Y-1309541D01*
X-259325Y-1309171D01*
X-258955Y-1308986D01*
X-256362Y-1308060D01*
X-253770Y-1307319D01*
X-251178Y-1306764D01*
X-248956Y-1306393D01*
X-247104Y-1306208D01*
X-245438Y-1306023D01*
X-244141D01*
X-240994Y-1306208D01*
D02*
G37*
G36*
X-316171Y-1395829D02*
X-338206D01*
Y-1386570D01*
X-340613Y-1388792D01*
X-342835Y-1390459D01*
X-345057Y-1392125D01*
X-346909Y-1393236D01*
X-348575Y-1394162D01*
X-349871Y-1394903D01*
X-350612Y-1395273D01*
X-350982Y-1395458D01*
X-353575Y-1396384D01*
X-355982Y-1396940D01*
X-358389Y-1397495D01*
X-360611Y-1397680D01*
X-362463Y-1397865D01*
X-363944Y-1398051D01*
X-365240D01*
X-368388Y-1397865D01*
X-371351Y-1397495D01*
X-374313Y-1396754D01*
X-377091Y-1396014D01*
X-382090Y-1393977D01*
X-384312Y-1392681D01*
X-386349Y-1391385D01*
X-388201Y-1390274D01*
X-389867Y-1388977D01*
X-391348Y-1387866D01*
X-392459Y-1386941D01*
X-393385Y-1386200D01*
X-394126Y-1385459D01*
X-394496Y-1385089D01*
X-394681Y-1384904D01*
X-396903Y-1382311D01*
X-398755Y-1379719D01*
X-400422Y-1376942D01*
X-401903Y-1374349D01*
X-403014Y-1371572D01*
X-404125Y-1368794D01*
X-405606Y-1363610D01*
X-405977Y-1361388D01*
X-406347Y-1359166D01*
X-406717Y-1357129D01*
X-406902Y-1355462D01*
X-407088Y-1354166D01*
Y-1353240D01*
Y-1352500D01*
Y-1352315D01*
X-406902Y-1348611D01*
X-406532Y-1345093D01*
X-405977Y-1341760D01*
X-405236Y-1338427D01*
X-404310Y-1335464D01*
X-403199Y-1332872D01*
X-402273Y-1330280D01*
X-401162Y-1328058D01*
X-399866Y-1326021D01*
X-398940Y-1324169D01*
X-397829Y-1322688D01*
X-396903Y-1321392D01*
X-396163Y-1320281D01*
X-395607Y-1319540D01*
X-395237Y-1319170D01*
X-395052Y-1318985D01*
X-392830Y-1316763D01*
X-390423Y-1314726D01*
X-387830Y-1313059D01*
X-385423Y-1311393D01*
X-383016Y-1310282D01*
X-380424Y-1309171D01*
X-378202Y-1308245D01*
X-375980Y-1307690D01*
X-373758Y-1307134D01*
X-371906Y-1306764D01*
X-370240Y-1306393D01*
X-368758Y-1306208D01*
X-367462Y-1306023D01*
X-365796D01*
X-363018Y-1306208D01*
X-360241Y-1306393D01*
X-357648Y-1306949D01*
X-355426Y-1307504D01*
X-353575Y-1308060D01*
X-352278Y-1308430D01*
X-351353Y-1308801D01*
X-350982Y-1308986D01*
X-348390Y-1310282D01*
X-346168Y-1311578D01*
X-343946Y-1313245D01*
X-342094Y-1314541D01*
X-340428Y-1316022D01*
X-339317Y-1317133D01*
X-338391Y-1317874D01*
X-338206Y-1318059D01*
Y-1274360D01*
X-316171D01*
Y-1395829D01*
D02*
G37*
G36*
X681874D02*
X667986D01*
X648914Y-1346019D01*
X630027Y-1395829D01*
X616140D01*
X584476Y-1308245D01*
X605956D01*
X623546Y-1357684D01*
X642063Y-1308245D01*
X655395D01*
X674282Y-1358240D01*
X692058Y-1308245D01*
X713352D01*
X681874Y-1395829D01*
D02*
G37*
G36*
X549850D02*
X535963D01*
X516891Y-1346019D01*
X498004Y-1395829D01*
X484116D01*
X452453Y-1308245D01*
X473932D01*
X491523Y-1357684D01*
X510040Y-1308245D01*
X523372D01*
X542259Y-1358240D01*
X560034Y-1308245D01*
X581329D01*
X549850Y-1395829D01*
D02*
G37*
G36*
X417827D02*
X403940D01*
X384867Y-1346019D01*
X365980Y-1395829D01*
X352093D01*
X320430Y-1308245D01*
X341909D01*
X359500Y-1357684D01*
X378016Y-1308245D01*
X391348D01*
X410235Y-1358240D01*
X428011Y-1308245D01*
X449305D01*
X417827Y-1395829D01*
D02*
G37*
G36*
X-101564Y-1362314D02*
X-142485D01*
Y-1341760D01*
X-101564D01*
Y-1362314D01*
D02*
G37*
G36*
X-607622Y-1306208D02*
X-604104Y-1306579D01*
X-600956Y-1307319D01*
X-597809Y-1308060D01*
X-595031Y-1309171D01*
X-592439Y-1310282D01*
X-589846Y-1311393D01*
X-587624Y-1312689D01*
X-585588Y-1313985D01*
X-583921Y-1315096D01*
X-582255Y-1316207D01*
X-581144Y-1317318D01*
X-580033Y-1318059D01*
X-579292Y-1318799D01*
X-578922Y-1319170D01*
X-578736Y-1319355D01*
X-576514Y-1321947D01*
X-574478Y-1324540D01*
X-572811Y-1327317D01*
X-571330Y-1330095D01*
X-570034Y-1332872D01*
X-569108Y-1335650D01*
X-568182Y-1338427D01*
X-567626Y-1341019D01*
X-567071Y-1343427D01*
X-566701Y-1345649D01*
X-566330Y-1347685D01*
X-566145Y-1349352D01*
X-565960Y-1350648D01*
Y-1351759D01*
Y-1352500D01*
Y-1352685D01*
X-566145Y-1356203D01*
X-566516Y-1359721D01*
X-567071Y-1362869D01*
X-567997Y-1366017D01*
X-568923Y-1368794D01*
X-570034Y-1371387D01*
X-571145Y-1373979D01*
X-572441Y-1376201D01*
X-573552Y-1378238D01*
X-574663Y-1379904D01*
X-575774Y-1381571D01*
X-576700Y-1382682D01*
X-577625Y-1383793D01*
X-578181Y-1384533D01*
X-578551Y-1384904D01*
X-578736Y-1385089D01*
X-581329Y-1387311D01*
X-583921Y-1389348D01*
X-586699Y-1391014D01*
X-589476Y-1392496D01*
X-592254Y-1393792D01*
X-595031Y-1394903D01*
X-597809Y-1395829D01*
X-600401Y-1396384D01*
X-602808Y-1396940D01*
X-605030Y-1397310D01*
X-607067Y-1397680D01*
X-608919Y-1397865D01*
X-610215Y-1398051D01*
X-612252D01*
X-617066Y-1397865D01*
X-621325Y-1397310D01*
X-625213Y-1396569D01*
X-628546Y-1395643D01*
X-631324Y-1394903D01*
X-632435Y-1394532D01*
X-633360Y-1394162D01*
X-634101Y-1393792D01*
X-634657Y-1393607D01*
X-634842Y-1393421D01*
X-635027D01*
X-638545Y-1391385D01*
X-641693Y-1389163D01*
X-644470Y-1386755D01*
X-647063Y-1384533D01*
X-648914Y-1382311D01*
X-650396Y-1380645D01*
X-650951Y-1379904D01*
X-651322Y-1379349D01*
X-651692Y-1379164D01*
Y-1378978D01*
X-633175Y-1370276D01*
X-631509Y-1371757D01*
X-629842Y-1373053D01*
X-626139Y-1375275D01*
X-622621Y-1376756D01*
X-619288Y-1377682D01*
X-616510Y-1378423D01*
X-615214Y-1378608D01*
X-614103D01*
X-613363Y-1378793D01*
X-612066D01*
X-608363Y-1378608D01*
X-605215Y-1377867D01*
X-602253Y-1376942D01*
X-599845Y-1376016D01*
X-597809Y-1374905D01*
X-596512Y-1374164D01*
X-595587Y-1373423D01*
X-595216Y-1373238D01*
X-592994Y-1371016D01*
X-591328Y-1368609D01*
X-589846Y-1366017D01*
X-588735Y-1363610D01*
X-587995Y-1361573D01*
X-587624Y-1359721D01*
X-587254Y-1358610D01*
Y-1358425D01*
Y-1358240D01*
X-657617D01*
X-657802Y-1354166D01*
X-657617Y-1350278D01*
X-657247Y-1346389D01*
X-656691Y-1342871D01*
X-655766Y-1339538D01*
X-654840Y-1336575D01*
X-653729Y-1333613D01*
X-652618Y-1331020D01*
X-651322Y-1328613D01*
X-650211Y-1326576D01*
X-648914Y-1324725D01*
X-647803Y-1323058D01*
X-646878Y-1321762D01*
X-645952Y-1320651D01*
X-645396Y-1319910D01*
X-645026Y-1319540D01*
X-644841Y-1319355D01*
X-642248Y-1316948D01*
X-639656Y-1314911D01*
X-636879Y-1313245D01*
X-634101Y-1311578D01*
X-631324Y-1310282D01*
X-628546Y-1309356D01*
X-625769Y-1308430D01*
X-623176Y-1307690D01*
X-620584Y-1307134D01*
X-618362Y-1306764D01*
X-616325Y-1306393D01*
X-614659Y-1306208D01*
X-613177Y-1306023D01*
X-611141D01*
X-607622Y-1306208D01*
D02*
G37*
G36*
X55827Y-1395829D02*
X33793D01*
Y-1308245D01*
X55827D01*
Y-1395829D01*
D02*
G37*
G36*
X16202D02*
X-5833D01*
Y-1274360D01*
X16202D01*
Y-1395829D01*
D02*
G37*
G36*
X-165261D02*
X-187296D01*
Y-1274360D01*
X-165261D01*
Y-1395829D01*
D02*
G37*
G36*
X-516706Y-1306208D02*
X-514484Y-1306393D01*
X-512262Y-1306764D01*
X-510410Y-1307319D01*
X-508744Y-1307875D01*
X-507633Y-1308245D01*
X-506892Y-1308430D01*
X-506522Y-1308615D01*
X-504300Y-1309726D01*
X-501893Y-1311023D01*
X-499671Y-1312504D01*
X-497634Y-1313800D01*
X-495782Y-1315281D01*
X-494486Y-1316207D01*
X-493560Y-1316948D01*
X-493190Y-1317318D01*
Y-1308245D01*
X-471155D01*
Y-1395829D01*
X-493190D01*
Y-1360832D01*
Y-1358425D01*
Y-1356203D01*
Y-1354166D01*
X-493375Y-1352315D01*
Y-1350648D01*
X-493560Y-1349167D01*
X-493745Y-1346760D01*
Y-1345093D01*
X-493930Y-1343982D01*
X-494116Y-1343241D01*
Y-1343056D01*
X-494856Y-1340279D01*
X-495967Y-1337872D01*
X-497078Y-1335835D01*
X-498004Y-1333983D01*
X-499115Y-1332687D01*
X-499856Y-1331576D01*
X-500411Y-1331020D01*
X-500596Y-1330835D01*
X-502448Y-1329354D01*
X-504485Y-1328243D01*
X-506337Y-1327317D01*
X-508003Y-1326762D01*
X-509670Y-1326391D01*
X-510781Y-1326206D01*
X-511892D01*
X-513743Y-1326391D01*
X-515410Y-1326576D01*
X-516891Y-1327132D01*
X-518187Y-1327502D01*
X-519113Y-1328058D01*
X-519854Y-1328613D01*
X-520224Y-1328798D01*
X-520409Y-1328984D01*
X-521705Y-1330095D01*
X-522631Y-1331391D01*
X-524298Y-1333983D01*
X-524668Y-1335094D01*
X-525038Y-1336020D01*
X-525409Y-1336761D01*
Y-1336946D01*
X-525594Y-1338057D01*
X-525964Y-1339353D01*
X-526334Y-1342316D01*
X-526520Y-1345649D01*
X-526705Y-1349167D01*
X-526890Y-1352500D01*
Y-1353796D01*
Y-1355092D01*
Y-1356203D01*
Y-1356944D01*
Y-1357499D01*
Y-1357684D01*
Y-1395829D01*
X-548925D01*
Y-1338057D01*
X-548554Y-1332687D01*
X-547629Y-1328058D01*
X-546518Y-1324169D01*
X-545036Y-1321021D01*
X-543555Y-1318429D01*
X-542444Y-1316763D01*
X-541518Y-1315652D01*
X-541148Y-1315281D01*
X-539481Y-1313615D01*
X-537630Y-1312134D01*
X-535778Y-1311023D01*
X-533926Y-1309912D01*
X-530223Y-1308245D01*
X-526705Y-1307134D01*
X-523742Y-1306579D01*
X-522446Y-1306208D01*
X-521335D01*
X-520409Y-1306023D01*
X-519113D01*
X-516706Y-1306208D01*
D02*
G37*
G36*
X-678356Y-1308245D02*
X-667061D01*
Y-1327132D01*
X-678356D01*
Y-1395829D01*
X-700391D01*
Y-1327132D01*
X-713352D01*
Y-1308245D01*
X-700391D01*
Y-1275841D01*
X-678356D01*
Y-1308245D01*
D02*
G37*
G36*
X297284Y-1373053D02*
X298950Y-1373423D01*
X300432Y-1373979D01*
X301728Y-1374720D01*
X302839Y-1375460D01*
X303580Y-1376016D01*
X304135Y-1376386D01*
X304320Y-1376571D01*
X305616Y-1378053D01*
X306542Y-1379534D01*
X307098Y-1381015D01*
X307468Y-1382311D01*
X307838Y-1383608D01*
X308024Y-1384533D01*
Y-1385274D01*
Y-1385459D01*
X307838Y-1387311D01*
X307468Y-1389163D01*
X306913Y-1390644D01*
X306172Y-1391940D01*
X305431Y-1393051D01*
X304876Y-1393792D01*
X304505Y-1394347D01*
X304320Y-1394532D01*
X302839Y-1395643D01*
X301358Y-1396569D01*
X299876Y-1397125D01*
X298395Y-1397680D01*
X297284Y-1397865D01*
X296358Y-1398051D01*
X295432D01*
X293581Y-1397865D01*
X291914Y-1397495D01*
X290248Y-1396940D01*
X288951Y-1396199D01*
X288026Y-1395643D01*
X287285Y-1395088D01*
X286729Y-1394718D01*
X286544Y-1394532D01*
X285248Y-1393051D01*
X284322Y-1391570D01*
X283582Y-1390088D01*
X283211Y-1388607D01*
X282841Y-1387311D01*
X282656Y-1386385D01*
Y-1385644D01*
Y-1385459D01*
X282841Y-1383608D01*
X283211Y-1381941D01*
X283952Y-1380275D01*
X284507Y-1378978D01*
X285248Y-1378053D01*
X285989Y-1377312D01*
X286359Y-1376756D01*
X286544Y-1376571D01*
X288026Y-1375275D01*
X289507Y-1374349D01*
X290988Y-1373794D01*
X292284Y-1373238D01*
X293581Y-1373053D01*
X294506Y-1372868D01*
X295432D01*
X297284Y-1373053D01*
D02*
G37*
G36*
X-46014Y-1306393D02*
X-42125Y-1307134D01*
X-38607Y-1308430D01*
X-35645Y-1309726D01*
X-33237Y-1311023D01*
X-31571Y-1312319D01*
X-30460Y-1313059D01*
X-30275Y-1313430D01*
X-30090D01*
X-28608Y-1314911D01*
X-27497Y-1316392D01*
X-25460Y-1319355D01*
X-24164Y-1322318D01*
X-23053Y-1325095D01*
X-22498Y-1327502D01*
X-22313Y-1329539D01*
X-22127Y-1330280D01*
Y-1330650D01*
Y-1331020D01*
Y-1331206D01*
X-22313Y-1334168D01*
X-23053Y-1336946D01*
X-24164Y-1339723D01*
X-25460Y-1342130D01*
X-26942Y-1344538D01*
X-28793Y-1346760D01*
X-30645Y-1348796D01*
X-32682Y-1350648D01*
X-34719Y-1352315D01*
X-36570Y-1353796D01*
X-38422Y-1355092D01*
X-39903Y-1356203D01*
X-41385Y-1356944D01*
X-42311Y-1357499D01*
X-43051Y-1357870D01*
X-43236Y-1358055D01*
X-50643Y-1361758D01*
X-52310Y-1362684D01*
X-53791Y-1363610D01*
X-55087Y-1364535D01*
X-56198Y-1365276D01*
X-57865Y-1366943D01*
X-59161Y-1368424D01*
X-59716Y-1369720D01*
X-60086Y-1370646D01*
X-60272Y-1371387D01*
Y-1371572D01*
X-60086Y-1372498D01*
X-59901Y-1373423D01*
X-58975Y-1375090D01*
X-57865Y-1376016D01*
X-57679Y-1376201D01*
X-57494Y-1376386D01*
X-56383Y-1377127D01*
X-55272Y-1377497D01*
X-53050Y-1378238D01*
X-52124D01*
X-51384Y-1378423D01*
X-50643D01*
X-49162Y-1378238D01*
X-47495Y-1378053D01*
X-46014Y-1377682D01*
X-44533Y-1377127D01*
X-43236Y-1376571D01*
X-42311Y-1376201D01*
X-41570Y-1376016D01*
X-41385Y-1375831D01*
X-37867Y-1373423D01*
X-36200Y-1372312D01*
X-34904Y-1371016D01*
X-33793Y-1370090D01*
X-33052Y-1369165D01*
X-32497Y-1368609D01*
X-32312Y-1368424D01*
X-18980Y-1383237D01*
X-21202Y-1385830D01*
X-23609Y-1388052D01*
X-26016Y-1390088D01*
X-28423Y-1391755D01*
X-31015Y-1393236D01*
X-33608Y-1394347D01*
X-36015Y-1395458D01*
X-38422Y-1396199D01*
X-40644Y-1396754D01*
X-42681Y-1397310D01*
X-44533Y-1397680D01*
X-46199Y-1397865D01*
X-47495D01*
X-48421Y-1398051D01*
X-49347D01*
X-54532Y-1397680D01*
X-58975Y-1396940D01*
X-63049Y-1395643D01*
X-66197Y-1394162D01*
X-68789Y-1392866D01*
X-70826Y-1391570D01*
X-71382Y-1391199D01*
X-71937Y-1390829D01*
X-72122Y-1390459D01*
X-72307D01*
X-73789Y-1388977D01*
X-75270Y-1387311D01*
X-77307Y-1384163D01*
X-78973Y-1380830D01*
X-79899Y-1377867D01*
X-80640Y-1375090D01*
X-80825Y-1372868D01*
X-81010Y-1372127D01*
Y-1371572D01*
Y-1371201D01*
Y-1371016D01*
X-80825Y-1367868D01*
X-80270Y-1364906D01*
X-79529Y-1362314D01*
X-78603Y-1360092D01*
X-77677Y-1358425D01*
X-76937Y-1356944D01*
X-76381Y-1356203D01*
X-76196Y-1355833D01*
X-74159Y-1353426D01*
X-71382Y-1351018D01*
X-68604Y-1348982D01*
X-65641Y-1346945D01*
X-63049Y-1345463D01*
X-60827Y-1344167D01*
X-59901Y-1343612D01*
X-59346Y-1343241D01*
X-58975Y-1343056D01*
X-58790D01*
X-50643Y-1338983D01*
X-48791Y-1338057D01*
X-47495Y-1337316D01*
X-46384Y-1336575D01*
X-45458Y-1336020D01*
X-44903Y-1335464D01*
X-44533Y-1335094D01*
X-44162Y-1334909D01*
X-43422Y-1333798D01*
X-43051Y-1332687D01*
X-42866Y-1331946D01*
Y-1331761D01*
X-43051Y-1330835D01*
X-43236Y-1330095D01*
X-43977Y-1328984D01*
X-44533Y-1328058D01*
X-44903Y-1327873D01*
X-46755Y-1326947D01*
X-48606Y-1326391D01*
X-49347Y-1326206D01*
X-51939D01*
X-53235Y-1326576D01*
X-55828Y-1327502D01*
X-58235Y-1328798D01*
X-60642Y-1330280D01*
X-62679Y-1331761D01*
X-64160Y-1333057D01*
X-65271Y-1333983D01*
X-65641Y-1334168D01*
Y-1334353D01*
X-79344Y-1320651D01*
X-77307Y-1318244D01*
X-75085Y-1316022D01*
X-72863Y-1314170D01*
X-70826Y-1312689D01*
X-69160Y-1311393D01*
X-67678Y-1310652D01*
X-66752Y-1310097D01*
X-66382Y-1309912D01*
X-63605Y-1308615D01*
X-60827Y-1307690D01*
X-58050Y-1306949D01*
X-55643Y-1306579D01*
X-53606Y-1306208D01*
X-51939Y-1306023D01*
X-50458D01*
X-46014Y-1306393D01*
D02*
G37*
G36*
X-435233Y-1373053D02*
X-433566Y-1373423D01*
X-432085Y-1373979D01*
X-430789Y-1374720D01*
X-429678Y-1375460D01*
X-428937Y-1376016D01*
X-428382Y-1376386D01*
X-428197Y-1376571D01*
X-426900Y-1378053D01*
X-425975Y-1379534D01*
X-425419Y-1381015D01*
X-425049Y-1382311D01*
X-424678Y-1383608D01*
X-424493Y-1384533D01*
Y-1385274D01*
Y-1385459D01*
X-424678Y-1387311D01*
X-425049Y-1389163D01*
X-425604Y-1390644D01*
X-426345Y-1391940D01*
X-427086Y-1393051D01*
X-427641Y-1393792D01*
X-428011Y-1394347D01*
X-428197Y-1394532D01*
X-429678Y-1395643D01*
X-431159Y-1396569D01*
X-432640Y-1397125D01*
X-434122Y-1397680D01*
X-435233Y-1397865D01*
X-436159Y-1398051D01*
X-437084D01*
X-438936Y-1397865D01*
X-440603Y-1397495D01*
X-442269Y-1396940D01*
X-443565Y-1396199D01*
X-444491Y-1395643D01*
X-445232Y-1395088D01*
X-445787Y-1394718D01*
X-445972Y-1394532D01*
X-447269Y-1393051D01*
X-448194Y-1391570D01*
X-448935Y-1390088D01*
X-449305Y-1388607D01*
X-449676Y-1387311D01*
X-449861Y-1386385D01*
Y-1385644D01*
Y-1385459D01*
X-449676Y-1383608D01*
X-449305Y-1381941D01*
X-448565Y-1380275D01*
X-448009Y-1378978D01*
X-447269Y-1378053D01*
X-446528Y-1377312D01*
X-446158Y-1376756D01*
X-445972Y-1376571D01*
X-444491Y-1375275D01*
X-443010Y-1374349D01*
X-441528Y-1373794D01*
X-440232Y-1373238D01*
X-438936Y-1373053D01*
X-438010Y-1372868D01*
X-437084D01*
X-435233Y-1373053D01*
D02*
G37*
G36*
X214515Y-1306208D02*
X217292Y-1306393D01*
X219884Y-1306949D01*
X222106Y-1307504D01*
X223958Y-1308060D01*
X225254Y-1308430D01*
X226180Y-1308801D01*
X226550Y-1308986D01*
X229143Y-1310282D01*
X231365Y-1311578D01*
X233587Y-1313059D01*
X235438Y-1314541D01*
X237105Y-1315837D01*
X238216Y-1316948D01*
X239142Y-1317689D01*
X239327Y-1317874D01*
Y-1308245D01*
X261362D01*
Y-1427862D01*
X239327D01*
Y-1386570D01*
X236920Y-1388792D01*
X234698Y-1390459D01*
X232476Y-1392125D01*
X230624Y-1393236D01*
X228958Y-1394162D01*
X227661Y-1394903D01*
X226921Y-1395273D01*
X226550Y-1395458D01*
X223958Y-1396384D01*
X221551Y-1396940D01*
X219144Y-1397495D01*
X216922Y-1397680D01*
X215070Y-1397865D01*
X213589Y-1398051D01*
X212293D01*
X209145Y-1397865D01*
X206182Y-1397495D01*
X203220Y-1396754D01*
X200442Y-1396014D01*
X195443Y-1393977D01*
X193221Y-1392681D01*
X191184Y-1391385D01*
X189332Y-1390274D01*
X187666Y-1388977D01*
X186184Y-1387866D01*
X185073Y-1386941D01*
X184147Y-1386200D01*
X183407Y-1385459D01*
X183036Y-1385089D01*
X182851Y-1384904D01*
X180629Y-1382311D01*
X178778Y-1379719D01*
X177111Y-1376942D01*
X175630Y-1374349D01*
X174519Y-1371572D01*
X173408Y-1368794D01*
X171927Y-1363610D01*
X171556Y-1361388D01*
X171186Y-1359166D01*
X170816Y-1357129D01*
X170630Y-1355462D01*
X170445Y-1354166D01*
Y-1353240D01*
Y-1352500D01*
Y-1352315D01*
X170630Y-1348611D01*
X171001Y-1345093D01*
X171556Y-1341760D01*
X172297Y-1338427D01*
X173223Y-1335464D01*
X174334Y-1332872D01*
X175259Y-1330280D01*
X176370Y-1328058D01*
X177667Y-1326021D01*
X178592Y-1324169D01*
X179703Y-1322688D01*
X180629Y-1321392D01*
X181370Y-1320281D01*
X181925Y-1319540D01*
X182296Y-1319170D01*
X182481Y-1318985D01*
X184703Y-1316763D01*
X187110Y-1314726D01*
X189702Y-1313059D01*
X192110Y-1311393D01*
X194517Y-1310282D01*
X197109Y-1309171D01*
X199331Y-1308245D01*
X201553Y-1307690D01*
X203775Y-1307134D01*
X205627Y-1306764D01*
X207293Y-1306393D01*
X208775Y-1306208D01*
X210071Y-1306023D01*
X211737D01*
X214515Y-1306208D01*
D02*
G37*
%LPC*%
G36*
X-247660Y-1326206D02*
X-248585D01*
X-252289Y-1326576D01*
X-255807Y-1327317D01*
X-258770Y-1328428D01*
X-261177Y-1329724D01*
X-263214Y-1331206D01*
X-264695Y-1332317D01*
X-265621Y-1333057D01*
X-265991Y-1333428D01*
X-268213Y-1336205D01*
X-269880Y-1339353D01*
X-271176Y-1342316D01*
X-271916Y-1345278D01*
X-272472Y-1347871D01*
X-272657Y-1350093D01*
X-272842Y-1350833D01*
Y-1351389D01*
Y-1351759D01*
Y-1351944D01*
X-272472Y-1356018D01*
X-271731Y-1359721D01*
X-270620Y-1363054D01*
X-269509Y-1365832D01*
X-268213Y-1367868D01*
X-267102Y-1369535D01*
X-266361Y-1370461D01*
X-265991Y-1370831D01*
X-263214Y-1373238D01*
X-260436Y-1374905D01*
X-257473Y-1376201D01*
X-254696Y-1376942D01*
X-252289Y-1377497D01*
X-250437Y-1377682D01*
X-249696Y-1377867D01*
X-248585D01*
X-245067Y-1377497D01*
X-241734Y-1376756D01*
X-238957Y-1375645D01*
X-236365Y-1374164D01*
X-234513Y-1372868D01*
X-233032Y-1371757D01*
X-232106Y-1371016D01*
X-231735Y-1370646D01*
X-229513Y-1367683D01*
X-227847Y-1364535D01*
X-226551Y-1361388D01*
X-225810Y-1358425D01*
X-225255Y-1355833D01*
X-225069Y-1353796D01*
X-224884Y-1353055D01*
Y-1352500D01*
Y-1352129D01*
Y-1351944D01*
X-225255Y-1347871D01*
X-225995Y-1344352D01*
X-226921Y-1341205D01*
X-228217Y-1338427D01*
X-229513Y-1336390D01*
X-230439Y-1334724D01*
X-231180Y-1333798D01*
X-231550Y-1333428D01*
X-234328Y-1331020D01*
X-237105Y-1329169D01*
X-239883Y-1327873D01*
X-242660Y-1327132D01*
X-245067Y-1326576D01*
X-246919Y-1326391D01*
X-247660Y-1326206D01*
D02*
G37*
G36*
X-360426D02*
X-361352D01*
X-365055Y-1326576D01*
X-368388Y-1327317D01*
X-371165Y-1328428D01*
X-373758Y-1329724D01*
X-375609Y-1331206D01*
X-377091Y-1332317D01*
X-378017Y-1333057D01*
X-378387Y-1333428D01*
X-380609Y-1336205D01*
X-382275Y-1339353D01*
X-383571Y-1342501D01*
X-384312Y-1345463D01*
X-384868Y-1348056D01*
X-385053Y-1350093D01*
X-385238Y-1350833D01*
Y-1351389D01*
Y-1351759D01*
Y-1351944D01*
X-384868Y-1356018D01*
X-384127Y-1359536D01*
X-383016Y-1362869D01*
X-381720Y-1365461D01*
X-380424Y-1367683D01*
X-379313Y-1369350D01*
X-378572Y-1370276D01*
X-378202Y-1370646D01*
X-375424Y-1373053D01*
X-372647Y-1374905D01*
X-369869Y-1376016D01*
X-367277Y-1376942D01*
X-364870Y-1377497D01*
X-363018Y-1377682D01*
X-362277Y-1377867D01*
X-361352D01*
X-357648Y-1377497D01*
X-354315Y-1376756D01*
X-351353Y-1375645D01*
X-348945Y-1374349D01*
X-346909Y-1373053D01*
X-345427Y-1371942D01*
X-344501Y-1371201D01*
X-344131Y-1370831D01*
X-341909Y-1367868D01*
X-340243Y-1364906D01*
X-338946Y-1361758D01*
X-338206Y-1358610D01*
X-337650Y-1356018D01*
X-337465Y-1353796D01*
X-337280Y-1353055D01*
Y-1352500D01*
Y-1352129D01*
Y-1351944D01*
X-337650Y-1347871D01*
X-338391Y-1344167D01*
X-339502Y-1341019D01*
X-340798Y-1338427D01*
X-341909Y-1336205D01*
X-343020Y-1334724D01*
X-343761Y-1333798D01*
X-344131Y-1333428D01*
X-346909Y-1331020D01*
X-349686Y-1329169D01*
X-352649Y-1327873D01*
X-355241Y-1327132D01*
X-357648Y-1326576D01*
X-359685Y-1326391D01*
X-360426Y-1326206D01*
D02*
G37*
G36*
X-610770Y-1324725D02*
X-612252D01*
X-615399Y-1324910D01*
X-618177Y-1325465D01*
X-620769Y-1326206D01*
X-622806Y-1326947D01*
X-624658Y-1327873D01*
X-625954Y-1328613D01*
X-626694Y-1329169D01*
X-627065Y-1329354D01*
X-629287Y-1331206D01*
X-631138Y-1333057D01*
X-632620Y-1334909D01*
X-633916Y-1336761D01*
X-634657Y-1338427D01*
X-635397Y-1339723D01*
X-635582Y-1340649D01*
X-635768Y-1341019D01*
X-588180D01*
X-589661Y-1338242D01*
X-590957Y-1335835D01*
X-592254Y-1333983D01*
X-593550Y-1332502D01*
X-594661Y-1331391D01*
X-595401Y-1330465D01*
X-595957Y-1330095D01*
X-596142Y-1329909D01*
X-598734Y-1328243D01*
X-601512Y-1326947D01*
X-604289Y-1326021D01*
X-606697Y-1325280D01*
X-608919Y-1324910D01*
X-610770Y-1324725D01*
D02*
G37*
G36*
X217107Y-1326206D02*
X216181D01*
X212478Y-1326576D01*
X209145Y-1327317D01*
X206367Y-1328428D01*
X203775Y-1329724D01*
X201923Y-1331206D01*
X200442Y-1332317D01*
X199516Y-1333057D01*
X199146Y-1333428D01*
X196924Y-1336205D01*
X195257Y-1339353D01*
X193961Y-1342501D01*
X193221Y-1345463D01*
X192665Y-1348056D01*
X192480Y-1350093D01*
X192295Y-1350833D01*
Y-1351389D01*
Y-1351759D01*
Y-1351944D01*
X192665Y-1356018D01*
X193406Y-1359536D01*
X194517Y-1362869D01*
X195813Y-1365461D01*
X197109Y-1367683D01*
X198220Y-1369350D01*
X198961Y-1370276D01*
X199331Y-1370646D01*
X202109Y-1373053D01*
X204886Y-1374905D01*
X207664Y-1376016D01*
X210256Y-1376942D01*
X212663Y-1377497D01*
X214515Y-1377682D01*
X215255Y-1377867D01*
X216181D01*
X219884Y-1377497D01*
X223217Y-1376756D01*
X226180Y-1375645D01*
X228587Y-1374349D01*
X230624Y-1373053D01*
X232105Y-1371942D01*
X233031Y-1371201D01*
X233402Y-1370831D01*
X235624Y-1367868D01*
X237290Y-1364906D01*
X238586Y-1361758D01*
X239327Y-1358610D01*
X239882Y-1356018D01*
X240068Y-1353796D01*
X240253Y-1353055D01*
Y-1352500D01*
Y-1352129D01*
Y-1351944D01*
X239882Y-1347871D01*
X239142Y-1344167D01*
X238031Y-1341019D01*
X236735Y-1338427D01*
X235624Y-1336205D01*
X234513Y-1334724D01*
X233772Y-1333798D01*
X233402Y-1333428D01*
X230624Y-1331020D01*
X227847Y-1329169D01*
X224884Y-1327873D01*
X222292Y-1327132D01*
X219884Y-1326576D01*
X217848Y-1326391D01*
X217107Y-1326206D01*
D02*
G37*
%LPD*%
D49*
X233258Y1127996D02*
Y1227964D01*
X183274D01*
X166613Y1211303D01*
Y1177980D01*
X183274Y1161319D01*
X233258D01*
X199936D02*
X166613Y1127996D01*
X66645Y1227964D02*
X133290D01*
Y1127996D01*
X66645D01*
X133290Y1177980D02*
X99968D01*
X33323Y1227964D02*
Y1161319D01*
X0Y1127996D01*
X-33323Y1161319D01*
Y1227964D01*
X-166613D02*
Y1127996D01*
X-216597D01*
X-233258Y1144658D01*
Y1161319D01*
X-216597Y1177980D01*
X-166613D01*
X-216597D01*
X-233258Y1194642D01*
Y1211303D01*
X-216597Y1227964D01*
X-166613D01*
X374879Y972036D02*
Y1072004D01*
X324895D01*
X308234Y1055342D01*
Y1022020D01*
X324895Y1005358D01*
X374879D01*
X208266Y1055342D02*
X224927Y1072004D01*
X258250D01*
X274911Y1055342D01*
Y1038681D01*
X258250Y1022020D01*
X224927D01*
X208266Y1005358D01*
Y988697D01*
X224927Y972036D01*
X258250D01*
X274911Y988697D01*
X74976Y972036D02*
X41653D01*
X58314D01*
Y1072004D01*
X74976Y1055342D01*
X-74976Y972036D02*
X-8331D01*
X-74976Y1038681D01*
Y1055342D01*
X-58315Y1072004D01*
X-24992D01*
X-8331Y1055342D01*
X-108298Y972036D02*
X-174944Y1038681D01*
X-274911Y972036D02*
X-208266D01*
X-274911Y1038681D01*
Y1055342D01*
X-258250Y1072004D01*
X-224928D01*
X-208266Y1055342D01*
X-374879Y972036D02*
X-308234D01*
X-374879Y1038681D01*
Y1055342D01*
X-358218Y1072004D01*
X-324895D01*
X-308234Y1055342D01*
%TF.MD5,8763dbc3ad6a4b9e091d727a657b4432*%
M02*
