<?xml version="1.0" encoding="UTF-8" standalone="no"?>
<!-- Created with Inkscape (http://www.inkscape.org/) -->

<svg
   version="1.1"
   id="svg249"
   width="1330.6458"
   height="476.34647"
   viewBox="0 0 1330.6458 476.34647"
   sodipodi:docname="Typuwu Text.png"
   xmlns:inkscape="http://www.inkscape.org/namespaces/inkscape"
   xmlns:sodipodi="http://sodipodi.sourceforge.net/DTD/sodipodi-0.dtd"
   xmlns="http://www.w3.org/2000/svg"
   xmlns:svg="http://www.w3.org/2000/svg">
  <defs
     id="defs253" />
  <sodipodi:namedview
     id="namedview251"
     pagecolor="#505050"
     bordercolor="#eeeeee"
     borderopacity="1"
     inkscape:showpageshadow="0"
     inkscape:pageopacity="0"
     inkscape:pagecheckerboard="0"
     inkscape:deskcolor="#505050"
     showgrid="false" />
  <g
     inkscape:groupmode="layer"
     inkscape:label="Image"
     id="g255">
    <path
       style="fill:#000000;stroke-width:0.125984"
       d="m 406.92384,215.15067 v -14.3622 l -6.33071,-0.005 -6.33071,-0.005 -2.01575,-2.34532 -2.01574,-2.34532 -0.042,-0.10627 -0.042,-0.10627 h 21.74206 21.74207 l -2.10951,2.45056 -2.10952,2.45057 -6.26772,0.006 -6.26771,0.006 v 14.3622 14.36221 h -4.97638 -4.97638 z m 27.71654,-2.45669 v -16.8189 h 4.97533 4.97535 l 0.0325,7.14961 0.0325,7.14961 8.66142,0.0324 8.66141,0.0324 v -7.18198 -7.18197 h 5.10282 5.10283 l -0.032,16.78741 -0.0319,16.7874 -5.07087,0.0329 -5.07087,0.0329 v -7.18252 -7.18254 h -8.69291 -8.69291 v 7.18111 7.1811 h -4.97638 -4.97638 z m 41.32284,0 v -16.8189 h 18.85007 18.85008 l -0.17292,0.21991 -0.1729,0.2199 -1.92956,2.23679 -1.92956,2.23679 h -11.70824 -11.70823 v 4.72441 4.72441 h 12.72441 12.72441 v 2.45669 2.45669 h -12.72441 -12.72441 v 4.66077 4.66076 l 11.61878,0.0322 11.61879,0.0322 2.11044,2.3937 2.11044,2.3937 0.003,0.0945 0.003,0.0945 H 494.7348 475.96314 v -16.8189 z m 69.6693,2.45669 v -14.3622 l -6.33071,-0.004 -6.33071,-0.004 -2.08691,-2.42084 -2.08689,-2.42085 21.6666,-0.0319 21.66658,-0.0319 0.0546,0.0546 0.0546,0.0546 -2.05953,2.39449 -2.05951,2.39449 -6.26772,0.008 -6.26772,0.008 v 14.36221 14.3622 h -4.97638 -4.97637 v -14.36204 z m 42.91864,14.27822 -0.084,-0.084 -0.002,-7.88452 -0.002,-7.88451 -7.80924,-8.8052 -7.80925,-8.8052 v -0.0452 -0.0452 h 5.76584 5.76583 l 4.3851,4.96518 4.38509,4.96517 0.2168,0.1962 0.21679,0.19619 4.43601,-5.02044 4.43602,-5.02044 0.17135,-0.14221 0.17135,-0.14221 5.73087,0.0328 5.73088,0.0328 -7.85558,8.86041 -7.85556,8.86041 v 7.92699 7.92699 h -4.95537 -4.95539 l -0.084,-0.084 z m 27.50656,-16.73346 v -16.82035 h 18.58268 18.58268 v 10.83465 10.83464 H 639.681 626.13893 l -0.0327,5.95276 -0.0327,5.95276 -5.00788,0.0329 -5.00787,0.0329 z m 27.08662,-5.9857 v -5.92126 h -8.56693 -8.56693 v 5.92126 5.92126 h 8.56693 8.56693 z m 14.23622,5.98425 v -16.8189 h 4.97638 4.97637 v 14.29922 14.29921 h 8.94489 8.94488 V 210.1743 195.87508 h 4.91339 4.91338 v 16.8189 16.8189 h -18.83464 -18.83465 z m 86.67717,0 v -16.8189 h 4.97638 4.97638 v 14.29922 14.29921 h 8.94488 8.94488 V 210.1743 195.87508 h 4.91339 4.91339 v 16.8189 16.8189 h -18.83465 -18.83465 z m 56.063,0.063 v -16.7559 h 0.0621 0.0621 l 10.23349,6.64567 10.23349,6.64567 0.0771,-0.0245 0.0771,-0.0245 9.24937,-6.01053 9.24936,-6.01053 1.03937,-0.67081 1.03937,-0.67081 v 16.81606 16.81607 h -4.9756 -4.9756 l -0.0323,-9.6246 -0.0323,-9.6246 -5.33989,3.38527 -5.3399,3.38528 -0.0774,-0.0481 -0.0774,-0.0481 -5.22834,-3.34524 -5.22835,-3.34523 -0.0323,9.63265 -0.0323,9.63265 h -4.97559 -4.9756 z m 45.31378,16.67336 -0.0854,-0.0854 v -16.73491 -16.73491 h 5.03937 5.03937 v 7.05512 7.05512 l 2.4252,-0.008 2.4252,-0.008 6.15009,-7.04678 6.15009,-7.04679 h 5.6845 5.68451 l -0.32034,0.34646 -0.32033,0.34646 -6.9536,7.85522 -6.9536,7.85522 0.0378,0.10611 0.0378,0.10611 7.05512,8.27883 7.05511,8.27883 0.16463,0.23228 0.16462,0.23228 h -5.48218 -5.48217 l -6.37277,-7.30709 -6.37278,-7.30709 h -2.38739 -2.3874 l -0.0325,7.2756 -0.0325,7.27559 -4.92245,0.0329 -4.92244,0.0329 -0.0854,-0.0854 z m 44.21904,-0.001 -0.084,-0.084 v -3.44357 -3.44357 h 3.46456 3.46457 v 3.52756 3.52756 h -3.38057 -3.38059 z m 14.11024,0 -0.084,-0.084 v -16.73496 -16.7349 h 5.03938 5.03937 v 16.81889 16.8189 h -4.95538 -4.95539 z M 698.7034,212.63099 v -16.75591 h 5.03857 5.03858 l 0.0323,9.50873 0.0323,9.50873 5.22835,-3.28814 5.22834,-3.28815 0.14758,-0.057 0.14757,-0.057 5.31705,3.34826 5.31705,3.34826 h 0.0472 0.0472 v -9.51181 -9.51182 h 5.03937 5.03937 v 16.75591 16.75591 h -0.082 -0.082 l -10.32752,-6.70867 -10.32754,-6.70866 -0.0956,0.0267 -0.0956,0.0267 -10.28335,6.682 -10.28337,6.682 h -0.0618 -0.0619 z"
       id="path261" />
  </g>
</svg>
